<svg width="50" height="52" viewBox="0 0 50 52" fill="none" xmlns="http://www.w3.org/2000/svg">
<path d="M39.5086 6.62453C34.2793 4.45849 28.4038 4.45849 23.1745 6.62453C17.9452 8.79058 13.7905 12.9452 11.6245 18.1745C9.45843 23.4038 9.45843 29.2794 11.6245 34.5087C13.7905 39.738 17.9452 43.8927 23.1745 46.0587C28.4038 48.2247 34.2793 48.2247 39.5086 46.0587C39.7297 45.9671 39.9488 45.872 40.1659 45.7734C41.6294 45.1089 41.0016 42.9667 39.4473 42.5574C38.72 42.3659 38.0026 42.1247 37.3 41.8336C33.1913 40.1317 29.9269 36.8674 28.225 32.7586C26.5231 28.6499 26.5231 24.0334 28.225 19.9246C29.9269 15.8159 33.1913 12.5515 37.3 10.8496C38.0026 10.5586 38.7201 10.3173 39.4473 10.1258C41.0017 9.71655 41.6295 7.57438 40.166 6.90982C39.9488 6.81122 39.7297 6.7161 39.5086 6.62453Z" stroke="black" stroke-linecap="round" stroke-linejoin="round"/>
</svg>
