<svg width="51" height="54" viewBox="0 0 51 54" fill="none" xmlns="http://www.w3.org/2000/svg">
<path d="M22.2008 16.146C24.493 15.4012 26.9621 15.4012 29.2543 16.146C31.5464 16.8907 33.544 18.342 34.9606 20.2919C36.3772 22.2417 37.1402 24.59 37.1402 27.0001C37.1402 29.4102 36.3772 31.7585 34.9606 33.7083C33.544 35.6581 31.5464 37.1094 29.2543 37.8542C26.9621 38.599 24.493 38.599 22.2008 37.8542C19.9087 37.1094 17.9111 35.6581 16.4945 33.7083C15.0779 31.7585 14.3149 29.4102 14.3149 27.0001C14.3149 24.59 15.0779 22.2417 16.4945 20.2919C17.9111 18.342 19.9087 16.8907 22.2008 16.146Z" stroke="#333333" stroke-linecap="round" stroke-linejoin="round"/>
<path d="M25.7275 1L25.7525 9.00794L25.728 9L25.7025 9.0083L25.7275 1Z" stroke="#333333" stroke-linecap="round" stroke-linejoin="round"/>
<path d="M15.1724 12.4297L10.4451 5.96556L15.1321 12.4593L15.1478 12.4377L15.1724 12.4297Z" stroke="#333333" stroke-linecap="round" stroke-linejoin="round"/>
<path d="M8.62429 21.4166L1 18.9656L8.60894 21.4641V21.4377L8.62429 21.4166Z" stroke="#333333" stroke-linecap="round" stroke-linejoin="round"/>
<path d="M8.60894 32.5359L1 35.0344L8.62434 32.5834L8.609 32.5623L8.60894 32.5359Z" stroke="#333333" stroke-linecap="round" stroke-linejoin="round"/>
<path d="M15.1322 41.5407L10.4451 48.0344L15.1724 41.5703L15.1479 41.5623L15.1322 41.5407Z" stroke="#333333" stroke-linecap="round" stroke-linejoin="round"/>
<path d="M25.7025 44.9917L25.7275 53L25.7525 44.9921L25.728 45L25.7025 44.9917Z" stroke="#333333" stroke-linecap="round" stroke-linejoin="round"/>
<path d="M36.2827 41.5706L41.0099 48.0344L36.3233 41.5414L36.3082 41.5623L36.2827 41.5706Z" stroke="#333333" stroke-linecap="round" stroke-linejoin="round"/>
<path d="M42.8315 32.5837L50.4549 35.0344L42.847 32.5362V32.5623L42.8315 32.5837Z" stroke="#333333" stroke-linecap="round" stroke-linejoin="round"/>
<path d="M42.847 21.4377L42.847 21.4638L50.4549 18.9656L42.8315 21.4163L42.847 21.4377Z" stroke="#333333" stroke-linecap="round" stroke-linejoin="round"/>
<path d="M36.3233 12.4586L41.0099 5.96556L36.2827 12.4294L36.3081 12.4377L36.3233 12.4586Z" stroke="#333333" stroke-linecap="round" stroke-linejoin="round"/>
</svg>
