<?xml version="1.0" standalone="no"?>
<!DOCTYPE svg PUBLIC "-//W3C//DTD SVG 1.1//EN" "http://www.w3.org/Graphics/SVG/1.1/DTD/svg11.dtd" >
<svg xmlns="http://www.w3.org/2000/svg" xmlns:xlink="http://www.w3.org/1999/xlink" version="1.1">
<metadata>
Created by FontForge 20201107 at Tue Mar 30 01:10:07 2021
 By Unknown
Copyright (c) 2021 by Mercurial Studio. All rights reserved.
</metadata>
<defs>
<font id="SignoreSerifTypeface-Regular" horiz-adv-x="849" >
  <font-face 
    font-family="Signore - Serif Typeface"
    font-weight="400"
    font-stretch="normal"
    units-per-em="1273"
    panose-1="0 0 0 0 0 0 0 0 0 0"
    ascent="1018"
    descent="-255"
    x-height="523"
    cap-height="783"
    bbox="-211 -250 1620 1043"
    underline-thickness="50"
    underline-position="-125"
    unicode-range="U+000D-FB06"
  />
<missing-glyph horiz-adv-x="250" 
 />
    <glyph glyph-name="uniE22F" unicode="ft" horiz-adv-x="865" 
d="M85 13q20 5 26 18.5t7 34.5v419h-98v20l98 2v26q0 45 8.5 78.5t23.5 59.5q1 42 15.5 78.5t41 63.5t63 42.5t81.5 15.5q101 0 153.5 -59.5t52.5 -159.5v-144l121 3q29 1 60.5 4t53.5 8l12 -40l-247 1v-326q0 -42 11.5 -70t30 -45t41 -24t44.5 -7q38 0 78 15.5t83 61.5v-75
q-38 -20 -77 -30t-84 -10q-38 0 -73.5 12.5t-63 37.5t-44 63.5t-16.5 90.5v307h-299v-419q1 -21 7 -34.5t26 -18.5l4 -13h-144zM400 513h87q0 45 -2 76t-13 48q31 5 45.5 22t12.5 42q-3 35 -17 62.5t-37 47t-55 30t-70 10.5q-73 0 -119.5 -42t-57.5 -106q28 29 65 42t76 13
q32 0 69.5 -6t67.5 -20v-68q-39 35 -71.5 45.5t-62.5 10.5q-50 0 -87 -32.5t-42 -107.5q18 -43 54 -69zM212 510q-12 12 -24 29v-29h24z" />
    <glyph glyph-name="f_f" unicode="ff" horiz-adv-x="801" 
d="M85 13q20 5 26 18.5t7 34.5v419h-98v20l98 2v26q0 69 17 116.5t44.5 77.5t63 43t72.5 13q32 0 69.5 -6t67.5 -20v-68q-39 35 -71.5 45.5t-62.5 10.5q-27 0 -50.5 -10t-41 -32t-28 -57.5t-10.5 -85.5v-51l259 1v23q0 69 17 116.5t44.5 77.5t63 43t72.5 13q32 0 69.5 -6
t67.5 -20v-68q-39 35 -71.5 45.5t-62.5 10.5q-27 0 -50.5 -10t-41 -32t-28 -57.5t-10.5 -85.5v-51l110 2q29 1 60.5 4t53.5 8l12 -40l-236 1v-418q1 -21 7 -34.5t26 -18.5l4 -13h-144l4 13q20 5 26 18.5t7 34.5v419l-259 -1v-418q1 -21 7 -34.5t26 -18.5l4 -13h-144z" />
    <glyph glyph-name="f_f_i" unicode="ffi" horiz-adv-x="909" 
d="M724 13q20 5 26 18.5t7 34.5v309q0 33 -0.5 60.5t-5.5 47.5l-234 1v-418q1 -21 7 -34.5t26 -18.5l4 -13h-144l4 13q20 5 26 18.5t7 34.5v419l-259 -1v-418q1 -21 7 -34.5t26 -18.5l4 -13h-144l4 13q20 5 26 18.5t7 34.5v419h-98v20l98 2v26q0 69 17 116.5t44.5 77.5
t63 43t72.5 13q32 0 69.5 -6t67.5 -20v-68q-39 35 -71.5 45.5t-62.5 10.5q-27 0 -50.5 -10t-41 -32t-28 -57.5t-10.5 -85.5v-51l259 1v23q0 69 16.5 116.5t45.5 77.5t68 43t84 13q56 0 97.5 -25t55.5 -64q5 -10 7 -25.5t-0.5 -29.5t-11 -24t-25.5 -10q-40 0 -40 40
q0 16 11.5 25.5t25.5 12.5q-14 34 -47.5 48t-79.5 14q-27 0 -51.5 -10t-43.5 -32t-30.5 -57.5t-11.5 -85.5v-51l196 2q29 0 60.5 3.5t53.5 8.5v-457q1 -21 7 -34.5t26 -18.5l4 -13h-144z" />
    <glyph glyph-name="fi" unicode="fi" horiz-adv-x="580" 
d="M395 13q20 5 26 18.5t7 34.5v309q0 33 -0.5 60.5t-5.5 47.5l-234 1v-418q1 -21 7 -34.5t26 -18.5l4 -13h-144l4 13q20 5 26 18.5t7 34.5v419h-98v20l98 2v26q0 69 16.5 116.5t45.5 77.5t68 43t84 13q56 0 96.5 -25.5t56.5 -63.5q4 -11 6 -26t0 -29t-10.5 -24t-25.5 -10
q-40 0 -40 40q0 16 11.5 25.5t25.5 12.5q-14 34 -47.5 48t-79.5 14q-27 0 -51.5 -10t-43.5 -32t-30.5 -57.5t-11.5 -85.5v-51l196 2q29 0 60.5 3.5t53.5 8.5v-457q1 -21 7 -34.5t26 -18.5l4 -13h-144z" />
    <glyph glyph-name="fl" unicode="fl" horiz-adv-x="631" 
d="M85 13q20 5 26 18.5t7 34.5v419h-98v20l98 2v26q0 69 17 116.5t44.5 77.5t63 43t72.5 13h234v-717q1 -21 7 -34.5t26 -18.5l4 -13h-144l4 13q20 5 26 18.5t7 34.5v571q0 33 -0.5 60.5t-5.5 47.5h-155q-27 0 -50.5 -10t-41 -32t-28 -57.5t-10.5 -85.5v-51l110 2
q29 1 60.5 4t53.5 8l12 -40l-236 1v-418q1 -21 7 -34.5t26 -18.5l4 -13h-144z" />
    <glyph glyph-name="uniE22C" unicode="fh" horiz-adv-x="1048" 
d="M85 13q20 5 26 18.5t7 34.5v419h-98v20l98 2v26q0 69 17 116.5t44.5 77.5t63 43t72.5 13h234v-361q17 31 41.5 54.5t53 39.5t58.5 24.5t58 8.5q46 0 84.5 -15t66 -44.5t42.5 -74t15 -103.5v-246q1 -21 7 -34.5t26 -18.5l4 -13h-144l4 13q20 5 26 18.5t7 34.5v273
q0 44 -11.5 76t-32 53t-47.5 31t-57 10q-28 0 -57 -11t-56 -32t-50 -52t-38 -72v-276q1 -21 7 -34.5t26 -18.5l4 -13h-144l4 13q20 5 26 18.5t7 34.5v571q0 33 -0.5 60.5t-5.5 47.5h-155q-27 0 -50.5 -10t-41 -32t-28 -57.5t-10.5 -85.5v-51l110 2q29 1 60.5 4t53.5 8
l12 -40l-236 1v-418q1 -21 7 -34.5t26 -18.5l4 -13h-144z" />
    <glyph glyph-name="uniE229" unicode="ffh" horiz-adv-x="1389" 
d="M85 13q20 5 26 18.5t7 34.5v419h-98v20l98 2v26q0 69 17 116.5t44.5 77.5t63 43t72.5 13q32 0 69.5 -6t67.5 -20v-68q-39 35 -71.5 45.5t-62.5 10.5q-27 0 -50.5 -10t-41 -32t-28 -57.5t-10.5 -85.5v-51h271v24q0 69 17 116.5t44.5 77.5t63 43t72.5 13h234v-361
q17 31 41.5 54.5t53 39.5t58.5 24.5t58 8.5q46 0 84.5 -15t66 -44.5t42.5 -74t15 -103.5v-246q1 -21 7 -34.5t26 -18.5l4 -13h-144l4 13q20 5 26 18.5t7 34.5v273q0 44 -11.5 76t-32 53t-47.5 31t-57 10q-28 0 -57 -11t-56 -32t-50 -52t-38 -72v-276q1 -21 7 -34.5t26 -18.5
l4 -13h-144l4 13q20 5 26 18.5t7 34.5v571q0 33 -0.5 60.5t-5.5 47.5h-155q-27 0 -50.5 -10t-41 -32t-28 -57.5t-10.5 -85.5v-51l110 2q29 1 60.5 4t53.5 8l12 -40l-236 1v-418q1 -21 7 -34.5t26 -18.5l4 -13h-144l4 13q20 5 26 18.5t7 34.5v419h-31l-240 -1v-418
q1 -21 7 -34.5t26 -18.5l4 -13h-144z" />
    <glyph glyph-name=".notdef" horiz-adv-x="250" 
 />
    <glyph glyph-name=".null" horiz-adv-x="0" 
 />
    <glyph glyph-name="uni000D" unicode="&#xd;" horiz-adv-x="318" 
 />
    <glyph glyph-name="space" unicode=" " horiz-adv-x="220" 
 />
    <glyph glyph-name="H" unicode="H" horiz-adv-x="787" 
d="M54 13q20 5 26 18.5t7 34.5v571q0 45 -2 79.5t-13 51.5l90 15v-385h463v239q0 45 -2 79.5t-13 51.5l90 15v-717q1 -21 7 -34.5t26 -18.5l4 -13h-149l4 13q20 5 26 18.5t7 34.5v292h-463v-292q1 -21 7 -34.5t26 -18.5l4 -13h-149z" />
    <glyph glyph-name="a" unicode="a" horiz-adv-x="556" 
d="M272 509q-69 0 -119 -29t-89 -78v85q14 11 34.5 22t47 20t57.5 15t64 6q47 0 85.5 -15.5t67 -45.5t44 -74.5t15.5 -102.5v-246q1 -33 7 -45.5t26 -7.5l4 -13q-16 -9 -35 -9q-27 0 -49 21t-23 70q-16 -23 -39 -42t-49 -32.5t-54 -21t-56 -7.5q-91 0 -136 41.5t-45 116.5
q0 83 54 129t168 46h157v27q0 87 -38 128.5t-99 41.5zM409 271l-156 1q-72 1 -107.5 -34t-35.5 -99q0 -57 27.5 -88.5t84.5 -31.5q26 0 53.5 9t53 25t46.5 38t34 49v131z" />
    <glyph glyph-name="h" unicode="h" horiz-adv-x="651" 
d="M49 13q20 5 26 18.5t7 34.5v571q0 45 -2 79.5t-13 51.5l85 15v-361q17 31 41.5 54.5t53 39.5t58.5 24.5t58 8.5q46 0 84.5 -15t66 -44.5t42.5 -74t15 -103.5v-246q1 -21 7 -34.5t26 -18.5l4 -13h-144l4 13q20 5 26 18.5t7 34.5v273q0 44 -11.5 76t-32 53t-47.5 31t-57 10
q-28 0 -57 -11t-56 -32t-50 -52t-38 -72v-276q1 -21 7 -34.5t26 -18.5l4 -13h-144z" />
    <glyph glyph-name="o" unicode="o" horiz-adv-x="654" 
d="M327 -26q-57 0 -109.5 20.5t-93 58t-65 90.5t-24.5 118t24.5 118.5t65 91t93 58t109.5 20.5t110 -20.5t93.5 -58t64.5 -91t24 -118.5t-24 -118t-64.5 -90.5t-93.5 -58t-110 -20.5zM115 261q0 -49 13.5 -94.5t40 -79.5t66.5 -54.5t92 -20.5q53 0 92.5 20.5t66 54.5
t40 79.5t13.5 94.5q0 50 -13.5 95t-40 79.5t-66 55t-92.5 20.5q-52 0 -92 -20.5t-66.5 -55t-40 -79.5t-13.5 -95z" />
    <glyph glyph-name="O" unicode="O" 
d="M424 -22q-75 0 -145 31t-124 86t-87 131t-33 167t33 167t87 131t124 85.5t145 30.5q86 0 158 -33t123.5 -89.5t80 -132t28.5 -159.5t-28.5 -159.5t-80 -132.5t-123.5 -90t-158 -33zM120 393q0 -70 20 -137t58.5 -119.5t95 -85t130.5 -32.5t131 32.5t95.5 85t58.5 119.5
t20 137t-20 137t-58.5 119.5t-95.5 85t-131 32.5t-130.5 -32.5t-95 -85t-58.5 -119.5t-20 -137z" />
    <glyph glyph-name="b" unicode="b" horiz-adv-x="691" 
d="M656 261q0 -61 -21.5 -114t-59.5 -91.5t-89.5 -60.5t-111.5 -22q-41 0 -75 9.5t-61.5 26t-49 39t-36.5 47.5v-29q1 -21 7 -34.5t26 -18.5l4 -13h-144l4 13q20 5 26 18.5t7 34.5v571q0 45 -2 79.5t-13 51.5l85 15v-356q15 25 36.5 47.5t49 39t61.5 26t75 9.5
q60 0 111.5 -22t89.5 -60.5t59.5 -91t21.5 -114.5zM374 11q54 0 92.5 21t63 56t35.5 80t11 93t-11 93t-35.5 80t-63 56t-92.5 21q-51 0 -92 -21t-70 -55.5t-44.5 -79t-15.5 -92.5t15.5 -93t44.5 -80.5t70 -57t92 -21.5z" />
    <glyph glyph-name="n" unicode="n" horiz-adv-x="651" 
d="M49 13q20 5 26 18.5t7 34.5v311q0 45 -2 79.5t-13 51.5l85 15v-99q17 31 42 54.5t53.5 39t58.5 23.5t57 8q46 0 84.5 -15t66 -44.5t42.5 -74t15 -103.5v-246q1 -21 7 -34.5t26 -18.5l4 -13h-144l4 13q20 5 26 18.5t7 34.5v273q0 44 -11.5 76t-32 53t-47.5 31t-57 10
q-28 0 -57 -11t-56 -32t-50 -52t-38 -72v-276q1 -21 7 -34.5t26 -18.5l4 -13h-144z" />
    <glyph glyph-name="d" unicode="d" horiz-adv-x="691" 
d="M35 259q0 62 21.5 115t59.5 92t89.5 61t111.5 22q41 0 75 -9.5t61.5 -26t49 -39t36.5 -47.5v210q0 45 -2 79.5t-13 51.5l85 15v-717q1 -21 7 -34.5t26 -18.5l4 -13h-144l4 13q20 5 26 18.5t7 34.5v29q-15 -25 -36.5 -47.5t-49 -39t-61.5 -26t-75 -9.5q-60 0 -111.5 21.5
t-89.5 60t-59.5 91t-21.5 113.5zM115 259q0 -47 11 -91.5t35.5 -79.5t63 -56t92.5 -21q51 0 92 21.5t70 56.5t44.5 80t15.5 93t-15.5 92.5t-44.5 79.5t-70 56t-92 21q-55 0 -93.5 -21.5t-62.5 -56.5t-35 -80.5t-11 -93.5z" />
    <glyph glyph-name="e" unicode="e" horiz-adv-x="629" 
d="M337 14q35 0 70 10.5t65.5 30t54.5 48t37 65.5l10 -4q-13 -43 -39.5 -78.5t-60.5 -60.5t-72.5 -38t-75.5 -13q-61 1 -114 21t-92.5 57.5t-62 90t-22.5 118.5q0 65 24.5 118.5t65 91t93 58t109.5 20.5q50 0 95.5 -16t81.5 -45.5t60.5 -72t32.5 -95.5q5 -35 -10 -54
t-62 -19h-410q2 -44 19.5 -86t47.5 -74.5t69.5 -52.5t85.5 -20zM484 277q14 0 21 5.5t10 13t3 15.5t-1 14q-4 36 -17.5 69.5t-37 59.5t-57.5 41.5t-78 15.5q-50 0 -88.5 -19t-65.5 -51t-41.5 -74.5t-16.5 -89.5h369z" />
    <glyph glyph-name="i" unicode="i" horiz-adv-x="234" 
d="M65 645q0 40 40 40t40 -40t-40 -40t-40 40zM49 13q20 5 26 18.5t7 34.5v309q0 45 -2 79.5t-13 51.5l85 15v-455q1 -21 7 -34.5t26 -18.5l4 -13h-144z" />
    <glyph glyph-name="l" unicode="l" horiz-adv-x="234" 
d="M49 13q20 5 26 18.5t7 34.5v571q0 45 -2 79.5t-13 51.5l85 15v-717q1 -21 7 -34.5t26 -18.5l4 -13h-144z" />
    <glyph glyph-name="p" unicode="p" horiz-adv-x="691" 
d="M656 261q0 -61 -21.5 -114t-59.5 -91.5t-89.5 -60.5t-111.5 -22q-41 0 -75 9.5t-61.5 26t-49 39t-36.5 47.5v-279q1 -21 7 -34.5t26 -18.5l4 -13h-144l4 13q20 5 26 18.5t7 34.5v561q0 45 -2 79.5t-13 51.5l85 15v-96q15 25 36.5 47.5t49 39t61.5 26t75 9.5
q60 0 111.5 -22t89.5 -60.5t59.5 -91t21.5 -114.5zM374 11q54 0 92.5 21t63 56t35.5 80t11 93t-11 93t-35.5 80t-63 56t-92.5 21q-51 0 -92 -21t-70 -56t-44.5 -79.5t-15.5 -92.5t15.5 -93t44.5 -80t70 -56.5t92 -21.5z" />
    <glyph glyph-name="q" unicode="q" horiz-adv-x="691" 
d="M317 -27q-66 0 -118 21.5t-88.5 60.5t-56 93t-19.5 118q0 62 21.5 113.5t59.5 89.5t89.5 59t111.5 21q41 0 75 -9.5t61.5 -26t49 -38.5t36.5 -47q-1 27 -4 47.5t-11 32.5l85 15v-707q1 -21 7 -34.5t26 -18.5l4 -13h-144l4 13q20 5 26 18.5t7 34.5v279
q-15 -25 -36.5 -47.5t-49 -39t-61.5 -26t-75 -9.5zM317 11q51 0 92 21.5t70 56.5t44.5 80t15.5 93t-15.5 92.5t-44.5 79.5t-70 56t-92 21q-53 0 -91 -20.5t-63 -54.5t-36.5 -78.5t-11.5 -91.5q0 -46 12 -92t37 -82t63 -58.5t90 -22.5z" />
    <glyph glyph-name="u" unicode="u" horiz-adv-x="631" 
d="M479 100q-17 -31 -42 -54.5t-53 -39.5t-58 -24t-58 -8q-46 0 -84.5 15t-66 44.5t-42.5 74t-15 103.5v166q0 45 -2 79.5t-13 51.5l85 15v-339q0 -43 11.5 -75t32 -53t47.5 -31.5t57 -10.5q28 0 57 11t56 32t50 52.5t38 71.5v196q0 45 -2 79.5t-13 51.5l85 15v-457
q1 -21 7 -34.5t26 -18.5l4 -13h-107v100z" />
    <glyph glyph-name="c" unicode="c" horiz-adv-x="584" 
d="M327 -26q-62 0 -115.5 20.5t-92.5 58t-61.5 90.5t-22.5 118q0 64 22.5 117t62 91.5t93 59.5t116.5 21q33 0 64.5 -6t58.5 -15t49 -20t37 -22v-85q-18 21 -39 40.5t-46.5 34.5t-56 24t-67.5 9q-51 0 -91 -20t-67.5 -54t-41.5 -79t-14 -95q0 -49 16 -93.5t46 -79t72.5 -55
t95.5 -20.5q38 0 69.5 10t56.5 25.5t43 34.5t29 36l11 -7q-36 -68 -96.5 -103.5t-130.5 -35.5z" />
    <glyph glyph-name="f" unicode="f" horiz-adv-x="472" 
d="M85 13q20 5 26 18.5t7 34.5v419h-98v20l98 2v26q0 69 17 116.5t44.5 77.5t63 43t72.5 13q32 0 69.5 -6t67.5 -20v-68q-39 35 -71.5 45.5t-62.5 10.5q-27 0 -50.5 -10t-41 -32t-28 -57.5t-10.5 -85.5v-51l110 2q29 1 60.5 4t53.5 8l12 -40l-236 1v-418q1 -21 7 -34.5
t26 -18.5l4 -13h-144z" />
    <glyph glyph-name="g" unicode="g" horiz-adv-x="654" 
d="M327 -26q-12 0 -32 -0.5t-43 -2.5t-46.5 -6.5t-42.5 -13t-31 -21.5t-12 -32q0 -22 19 -31t48 -9q26 0 54 6q60 13 106 28.5t73 22.5q39 10 71 10q31 0 51.5 -9t33 -23.5t17.5 -33.5t4 -38q-1 -21 -9.5 -40.5t-18.5 -30.5h-28q20 31 13 62q-5 18 -19 28.5t-46 10.5
q-23 0 -56 -6q-30 -6 -60.5 -16t-61 -19t-61 -16t-61.5 -7q-23 0 -45 5t-39 16.5t-27.5 30.5t-10.5 48q0 50 40.5 79t103.5 31q-38 16 -70 41t-55.5 59t-37 75t-13.5 89q0 65 24.5 118.5t65 91t93 58t109.5 20.5q75 0 138 -33q21 33 33 60t19 56l59 -18l-80 -117
q55 -38 89 -98t34 -138q0 -65 -24 -118t-64.5 -90.5t-93.5 -58t-110 -20.5zM115 261q0 -49 13.5 -94.5t40 -79.5t66.5 -54.5t92 -20.5q53 0 92.5 20.5t66 54.5t40 79.5t13.5 94.5q0 50 -13.5 95t-40 79.5t-66 55t-92.5 20.5q-52 0 -92 -20.5t-66.5 -55t-40 -79.5t-13.5 -95z
" />
    <glyph glyph-name="r" unicode="r" horiz-adv-x="456" 
d="M49 13q20 5 26 18.5t7 34.5v229q0 130 56.5 192t152.5 62q35 0 70 -6t68 -20v-68q-29 24 -64.5 40t-73.5 16q-72 -1 -105.5 -47t-33.5 -134v-264q1 -21 7 -34.5t26 -18.5l4 -13h-144z" />
    <glyph glyph-name="t" unicode="t" horiz-adv-x="470" 
d="M162 652v-144l121 3q29 1 60.5 4t53.5 8l12 -40l-247 1v-326q0 -42 11.5 -70t30 -45t41 -24t44.5 -7q38 0 78 15.5t83 61.5v-75q-38 -20 -77 -30t-84 -10q-38 0 -73.5 12.5t-63 37.5t-44 63.5t-16.5 90.5v307h-87v20l87 2q0 45 -2 79t-13 51z" />
    <glyph glyph-name="j" unicode="j" horiz-adv-x="197" 
d="M66 645q0 40 40 40t40 -40t-40 -40t-40 40zM147 523v-569q0 -52 -16.5 -90.5t-44 -63.5t-63 -37.5t-73.5 -12.5q-45 0 -84 10t-77 30v75q43 -47 83 -62t78 -15q22 0 44.5 7t41 24t30 45t11.5 70v443q0 45 -2 79.5t-13 51.5z" />
    <glyph glyph-name="m" unicode="m" horiz-adv-x="1017" 
d="M725 509q-30 0 -59 -16t-53 -42.5t-40.5 -59.5t-21.5 -67l2 -258q1 -21 6.5 -34.5t26.5 -18.5l4 -13h-144l4 13q21 5 27 18.5t6 34.5l-2 273q0 44 -11.5 76t-30 53t-43.5 31t-54 10q-26 0 -53.5 -11t-53 -32.5t-47.5 -52.5t-36 -71v-276q1 -21 7 -34.5t26 -18.5l4 -13
h-144l4 13q20 5 26 18.5t7 34.5v311q0 45 -2 79.5t-13 51.5l85 15v-99q17 30 40.5 53.5t50 39.5t54.5 24t54 8q66 0 115.5 -34.5t70.5 -103.5q15 35 37.5 60.5t49 43t55 26t55.5 8.5q44 0 80.5 -15t63 -44.5t42 -74t15.5 -103.5l2 -246q1 -21 6.5 -34.5t26.5 -18.5l4 -13
h-144l3 13q21 5 27 18.5t7 34.5l-2 273q0 44 -11.5 76t-30.5 53t-44 31t-54 10z" />
    <glyph glyph-name="k" unicode="k" horiz-adv-x="533" 
d="M233 279l-81 -79v-134q1 -21 7 -34.5t26 -18.5l4 -13h-144l4 13q20 5 26 18.5t7 34.5v571q0 45 -2 79.5t-13 51.5l85 15v-538l166 164q32 32 48 61.5t23 52.5h93l-198 -194l187 -285q12 -17 22.5 -23t20.5 -8l4 -13h-105z" />
    <glyph glyph-name="v" unicode="v" horiz-adv-x="538" 
d="M312 91l101 255q11 27 16.5 53t7.5 49.5t1.5 42.5t-3.5 32h88l-210 -523h-41l-212 481q-11 16 -21 21.5t-20 7.5l-4 13h110z" />
    <glyph glyph-name="y" unicode="y" horiz-adv-x="543" 
d="M310 91l101 255q26 64 28 110t-7 67h96l-202 -503v-1q-18 -49 -42 -97t-57.5 -86.5t-77.5 -62t-102 -23.5q-39 0 -77 15.5t-60 35.5v84q20 -42 57 -69.5t80 -27.5q39 0 72 16t60.5 44.5t50.5 67t41 83.5l-211 482q-11 16 -21 21.5t-20 7.5l-4 13h110z" />
    <glyph glyph-name="W" unicode="W" horiz-adv-x="1138" 
d="M76 718q-8 27 -23 38.5t-34 13.5l-4 13h125l206 -658l168 453q25 68 32 110.5t0 77.5l81 17l207 -658l168 453q25 68 29.5 119t-0.5 86h92l-289 -783h-40l-208 650l-240 -650h-40z" />
    <glyph glyph-name="w" unicode="w" horiz-adv-x="816" 
d="M287 91l101 255q7 17 11 39.5t5 44t0 40.5t-5 29l54 24l162 -432l76 255q20 65 21.5 110.5t-7.5 66.5h96l-185 -523h-41l-141 364l-146 -364h-41l-185 479q-12 17 -22.5 23t-20.5 8l-4 13h110z" />
    <glyph glyph-name="x" unicode="x" horiz-adv-x="500" 
d="M220 246l-158 233q-12 17 -22.5 23t-20.5 8l-4 13h105l146 -220l74 90q21 26 34.5 45t20.5 33.5t9.5 26.5t2.5 24h76l-199 -246l154 -232q12 -17 22.5 -23t20.5 -8l4 -13h-99l-148 219l-68 -83q-22 -26 -34.5 -46t-19 -35.5t-8.5 -28.5t-3 -26h-86z" />
    <glyph glyph-name="z" unicode="z" horiz-adv-x="481" 
d="M30 22l307 461h-45q-51 0 -88.5 -2.5t-64.5 -7.5t-46.5 -12.5t-34.5 -16.5v80l341 -1h35v-22l-308 -461h89q51 0 88.5 2.5t64.5 7.5t46.5 12.5t34.5 16.5v-80l-367 1h-52v22z" />
    <glyph glyph-name="s" unicode="s" horiz-adv-x="535" 
d="M439 107q0 39 -29.5 60.5t-73.5 36t-96 26.5t-96 31.5t-73.5 51t-29.5 85.5q0 30 12 57.5t39 48t71 33t107 12.5q26 0 54 -3.5t54 -9.5t47.5 -12.5t34.5 -12.5v-72q-29 29 -78.5 50.5t-111.5 21.5q-164 0 -164 -94q0 -36 29.5 -57t74 -36t96 -28t96 -32.5t74 -50.5
t29.5 -81q0 -73 -61.5 -115.5t-181.5 -42.5q-23 0 -53.5 4t-62 10.5t-61 16t-50.5 20.5v75q21 -21 50 -37t60 -27.5t61.5 -17.5t55.5 -6q94 0 135.5 26t41.5 69z" />
    <glyph glyph-name="F" unicode="F" horiz-adv-x="553" 
d="M54 13q20 5 26 18.5t7 34.5v651q-1 21 -7 34.5t-26 18.5l-4 13h478v-82q-15 9 -34.5 16.5t-46.5 13t-64.5 8t-88.5 2.5h-132v-351l298 13v-59l-298 11v-289q1 -21 7 -34.5t26 -18.5l4 -13h-149z" />
    <glyph glyph-name="D" unicode="D" horiz-adv-x="787" 
d="M752 389q0 -81 -29.5 -152t-81.5 -123.5t-123.5 -83t-155.5 -30.5h-312l4 13q20 5 26 18.5t7 34.5v653q-1 21 -7 34.5t-26 18.5l-4 13h312q84 0 155.5 -31.5t123.5 -85.5t81.5 -126t29.5 -153zM357 40q75 0 132.5 28.5t97 76.5t60 111.5t20.5 132.5t-20.5 133.5t-60 114
t-97 79t-132.5 29.5h-195v-705h195z" />
    <glyph glyph-name="B" unicode="B" horiz-adv-x="696" 
d="M54 13q20 5 26 18.5t7 34.5v651q-1 21 -7 34.5t-26 18.5l-4 13h304q47 0 93.5 -9.5t84 -32.5t60.5 -61t23 -95q0 -32 -12 -60t-31 -50t-42.5 -37.5t-46.5 -23.5q37 -2 69.5 -17t56.5 -40.5t38 -60.5t14 -79q0 -64 -25 -105.5t-65.5 -66.5t-91 -35t-102.5 -10h-327z
M353 425q84 0 130.5 42.5t46.5 117.5q0 42 -14 72t-38 49t-56 28t-67 9h-193v-318h191zM390 40q37 0 71 9.5t59.5 30.5t40.5 54.5t15 81.5q0 47 -14 79t-39 52t-60.5 29t-79.5 9h-221v-345h228z" />
    <glyph glyph-name="A" unicode="A" horiz-adv-x="775" 
d="M696 65q11 -26 24.5 -38t32.5 -14l4 -13h-172l4 13q20 4 26 17.5t-2 33.5l-75 185h-364l-17 -39q-29 -66 -34 -120.5t0 -89.5h-105l305 690q18 41 37 65.5t48 32.5zM522 289l-156 396l-174 -396h330z" />
    <glyph glyph-name="R" unicode="R" horiz-adv-x="664" 
d="M621 564q0 -50 -17.5 -92.5t-51.5 -73.5t-82 -48.5t-110 -17.5q-14 0 -26.5 1t-24.5 3l290 -292q15 -16 24.5 -22t21.5 -9l4 -13h-115l-372 374v-308q1 -21 7 -34.5t26 -18.5l4 -13h-149l4 13q20 5 26 18.5t7 34.5v651q-1 21 -7 34.5t-26 18.5l-4 13h110l2 2v-82
q29 39 77 66.5t121 27.5q62 0 110 -17.5t82 -49t51.5 -74t17.5 -92.5zM162 564q0 -44 14.5 -79.5t41 -60.5t63 -38.5t79.5 -13.5q48 0 81.5 15t54.5 41.5t30.5 61.5t9.5 74t-9.5 74t-30.5 61.5t-54.5 42t-81.5 15.5q-45 0 -81.5 -13.5t-62.5 -38.5t-40 -61t-14 -80z" />
    <glyph glyph-name="P" unicode="P" horiz-adv-x="657" 
d="M622 545q0 -54 -17.5 -100t-51.5 -79.5t-82 -52.5t-110 -19q-73 0 -121.5 30t-77.5 73v-331q1 -21 7 -34.5t26 -18.5l4 -13h-149l4 13q20 5 26 18.5t7 34.5v571q0 45 -2 79.5t-13 51.5l90 15v-89q29 43 77 73t122 30q62 0 110 -19t82 -53t51.5 -80t17.5 -100zM361 757
q-46 0 -83 -16t-63 -44t-39.5 -66t-13.5 -82q0 -46 12.5 -85t37.5 -68t62.5 -45.5t86.5 -16.5q48 0 81.5 17t54.5 46t30.5 67t9.5 81q0 42 -9.5 80t-30.5 67.5t-54.5 47t-81.5 17.5z" />
    <glyph glyph-name="I" unicode="I" horiz-adv-x="249" 
d="M54 13q20 5 26 18.5t7 34.5v571q0 45 -2 79.5t-13 51.5l90 15v-717q1 -21 7 -34.5t26 -18.5l4 -13h-149z" />
    <glyph glyph-name="L" unicode="L" horiz-adv-x="506" 
d="M50 0l4 13q20 5 26 18.5t7 34.5v571q0 45 -2 79.5t-13 51.5l90 15v-741h95q51 0 88.5 2.5t64.5 8t46.5 13t34.5 16.5v-82h-441z" />
    <glyph glyph-name="E" unicode="E" horiz-adv-x="553" 
d="M54 13q20 5 26 18.5t7 34.5v651q-1 21 -7 34.5t-26 18.5l-4 13h478v-82q-15 9 -34.5 16.5t-46.5 13t-64.5 8t-88.5 2.5h-132v-335l317 15v-59l-317 9v-329h132q51 0 88.5 2.5t64.5 8t46.5 13t34.5 16.5v-83l-478 1z" />
    <glyph glyph-name="C" unicode="C" horiz-adv-x="779" 
d="M424 -22q-79 0 -150 31t-124 86t-84 131t-31 167t29 167t81 131t124 85.5t157 30.5q92 0 164 -28.5t126 -79.5l-1 -118q-14 29 -36.5 62t-57 60.5t-82.5 45.5t-113 18q-74 0 -131 -32.5t-96 -85t-59 -119.5t-20 -137t22.5 -137t64 -119.5t99.5 -85t128 -32.5
q59 0 108.5 17.5t88.5 43.5t66 56.5t40 56.5l17 -9q-18 -37 -47.5 -73.5t-70.5 -66t-93.5 -48t-118.5 -18.5z" />
    <glyph glyph-name="Q" unicode="Q" 
d="M424 -22q-75 0 -145 31t-124 86t-87 131t-33 167t33 167t87 131t124 85.5t145 30.5q86 0 158 -33t123.5 -89.5t80 -132t28.5 -159.5q0 -67 -18 -129t-52 -113.5t-82 -90.5t-107 -60q29 -37 62.5 -66.5t70.5 -43.5l-64 -81l-118 177q-20 -5 -40.5 -6.5t-41.5 -1.5z
M120 393q0 -70 20 -137t58.5 -119.5t95 -85t130.5 -32.5q15 0 29 1t28 4l-173 260l68 18q18 -37 34.5 -70.5t34.5 -65t38 -63t44 -65.5q49 20 87 56.5t63.5 84t38.5 102.5t13 112q0 70 -20 137t-58.5 119.5t-95.5 85t-131 32.5t-130.5 -32.5t-95 -85t-58.5 -119.5t-20 -137z
" />
    <glyph glyph-name="T" unicode="T" horiz-adv-x="588" 
d="M15 783l277 -1l281 1v-83q-15 9 -34.5 16.5t-46.5 13t-64.5 8t-88.5 2.5h-7v-676q1 -21 7 -34.5t26 -18.5l4 -13h-149l4 13q20 5 26 18.5t7 34.5v676h-8q-51 0 -88.5 -2.5t-64.5 -8t-46.5 -13t-34.5 -16.5v83z" />
    <glyph glyph-name="U" unicode="U" horiz-adv-x="660" 
d="M533 717q-1 21 -7 34.5t-26 18.5l-4 13h114l-4 -13q-20 -5 -26 -18.5t-7 -34.5v-418q0 -64 -11.5 -120.5t-39.5 -98t-74.5 -65.5t-116.5 -23q-73 1 -123.5 23.5t-82 62.5t-46 96.5t-14.5 124.5v338q0 45 -2 79.5t-13 51.5l90 15v-484q0 -74 12.5 -125t36.5 -82.5
t59.5 -45.5t82.5 -14q49 0 86.5 14.5t63 47t39 83t13.5 122.5v418z" />
    <glyph glyph-name="G" unicode="G" horiz-adv-x="822" 
d="M383 409h397v-409l-63 7q5 26 9 49t7 45.5t4.5 47t2.5 53.5q-22 -49 -55 -90t-74.5 -71t-92 -46.5t-107.5 -16.5q-82 0 -151.5 31.5t-119 87.5t-77.5 132t-28 164q0 91 32 167t87.5 131t130 85.5t159.5 30.5q92 0 170.5 -28.5t132.5 -79.5l-1 -118q-14 29 -38.5 62
t-61.5 60.5t-87 45.5t-115 18q-74 0 -134 -32.5t-102 -85t-65 -119.5t-23 -137q0 -69 21 -134.5t60 -117t94.5 -82.5t124.5 -31t126 28t98.5 75t66.5 108t29 127h-123q-51 0 -88.5 -2.5t-64.5 -8t-46.5 -13t-34.5 -16.5v83z" />
    <glyph glyph-name="J" unicode="J" horiz-adv-x="546" 
d="M421 637q0 45 -2 79.5t-13 51.5l90 15v-503q0 -70 -13.5 -126.5t-44 -96.5t-80 -62t-121.5 -22q-54 0 -110.5 17t-101.5 47v85q18 -21 39 -40.5t46.5 -34.5t56 -24t67.5 -9q61 0 98 21.5t56.5 58.5t26 85t6.5 101v357z" />
    <glyph glyph-name="K" unicode="K" horiz-adv-x="661" 
d="M241 348l-79 -104v-178q1 -21 7 -34.5t26 -18.5l4 -13h-149l4 13q20 5 26 18.5t7 34.5v571q0 45 -2 79.5t-13 51.5l90 15v-470l207 274q44 57 65 108t27 88h111l-283 -372l310 -367q14 -16 23.5 -22.5t19.5 -8.5l4 -13h-111z" />
    <glyph glyph-name="M" unicode="M" horiz-adv-x="933" 
d="M734 0l4 13q20 5 26 18.5t7 34.5v609l-306 -675h-42l-304 675v-610q1 -21 7 -34.5t26 -18.5l4 -13h-114l4 13q20 5 26 18.5t7 34.5v652q-1 21 -7 34.5t-26 18.5l-4 13h115l306 -684l308 684h112l-4 -13q-20 -5 -26 -18.5t-7 -34.5v-651q1 -21 7 -34.5t26 -18.5l4 -13
h-149z" />
    <glyph glyph-name="N" unicode="N" horiz-adv-x="632" 
d="M513 113v604q-1 21 -7 34.5t-26 18.5l-4 13h114l-4 -13q-20 -5 -26 -18.5t-7 -34.5v-717q-17 1 -32 5.5t-29.5 16t-29.5 31t-32 49.5l-311 573v-610q1 -21 7 -34.5t26 -18.5l4 -13h-114l4 13q20 5 26 18.5t7 34.5v652q-1 21 -7 34.5t-26 18.5l-4 13h109z" />
    <glyph glyph-name="V" unicode="V" horiz-adv-x="742" 
d="M76 718q-10 26 -24 38t-33 14l-4 13h125l251 -678l202 473q28 66 31 118t-2 87h105l-336 -783h-40z" />
    <glyph glyph-name="X" unicode="X" horiz-adv-x="699" 
d="M388 404l225 -338q17 -26 33 -34.5t30 -11.5l6 -20h-117l-228 340l-133 -172q-44 -56 -66.5 -94.5t-17.5 -73.5h-105l296 378l-225 339q-17 26 -33.5 34.5t-31.5 12.5l-6 19h122l226 -341l128 164q45 57 69 99.5t19 77.5h105z" />
    <glyph glyph-name="Y" unicode="Y" horiz-adv-x="659" 
d="M389 316v-250q1 -21 7 -34.5t26 -18.5l4 -13h-149l4 13q20 5 26 18.5t7 34.5v250l-228 401q-16 28 -33 35.5t-32 11.5l-6 19h130l225 -411l121 221q35 65 47.5 109.5t10.5 80.5h95z" />
    <glyph glyph-name="Z" unicode="Z" horiz-adv-x="604" 
d="M25 33l432 707h-160q-51 0 -88.5 -2.5t-64.5 -8t-46.5 -13t-34.5 -16.5v83h504v-33l-440 -707l218 -1q51 0 88.5 2.5t64.5 8t46.5 13t34.5 16.5v-83l-554 1v33z" />
    <glyph glyph-name="S" unicode="S" horiz-adv-x="628" 
d="M521 181q0 45 -20.5 74t-54.5 48.5t-77 33t-87.5 26.5t-87.5 29t-77 41t-54.5 62t-20.5 93q0 43 14.5 82.5t46.5 69.5t84.5 48t127.5 18q31 0 64.5 -5.5t64.5 -13.5t56.5 -17.5t41.5 -18.5v-90q-17 21 -40.5 40t-53 33t-63 22.5t-70.5 8.5q-49 0 -87 -11.5t-63 -31.5
t-38 -47.5t-13 -59.5q0 -45 20.5 -75t54.5 -50.5t77.5 -34.5t88.5 -27.5t88.5 -30t77.5 -41.5t54.5 -62t20.5 -92q0 -106 -73.5 -167t-216.5 -61q-27 0 -63.5 5.5t-74.5 15.5t-73 23.5t-60 29.5v90q25 -30 59.5 -53t71.5 -38.5t73.5 -24t66.5 -8.5q56 0 96.5 14.5t67 38
t39 53.5t12.5 61z" />
    <glyph glyph-name="uniE000" unicode="&#xe000;" horiz-adv-x="753" 
d="M85 709q45 44 116.5 71t155.5 27q83 0 141.5 -22t95.5 -65.5t54.5 -108.5t17.5 -150v-395q1 -33 7 -45.5t26 -7.5l4 -13q-16 -9 -36 -9q-29 0 -52.5 22t-23.5 73v32q-24 -32 -57 -58.5t-70.5 -45t-78.5 -29t-81 -10.5q-131 0 -196.5 58.5t-65.5 162.5q0 116 82.5 181
t239.5 65h227q-1 68 -10 127.5t-34.5 103.5t-71 69t-118.5 25q-59 0 -103.5 -16.5t-77.5 -42.5t-55 -57.5t-36 -60.5v119zM591 402l-226 1q-52 0 -96 -15t-75.5 -42t-49 -65t-17.5 -83q0 -39 14.5 -71t40.5 -54.5t61.5 -35t76.5 -12.5q37 0 77 12t76.5 33t67.5 51t50 66v215
z" />
    <glyph glyph-name="uniE001" unicode="&#xe001;" horiz-adv-x="830" 
d="M424 -22q-85 0 -156.5 31t-123.5 86t-80.5 131t-28.5 167t29 167t81 131t124 85.5t157 30.5q96 0 166 -31t116.5 -81.5t69 -113.5t22.5 -127q0 -49 -21.5 -67.5t-76.5 -18.5h-581q4 -66 28 -129t65 -112t97 -78.5t123 -29.5q59 0 110.5 17.5t92 43.5t69.5 56.5t42 56.5
l17 -9q-18 -37 -47.5 -73.5t-71.5 -66t-97.5 -48t-124.5 -18.5zM681 398q15 0 24.5 5.5t14.5 14.5t6 20.5t1 23.5q-1 29 -7.5 63t-20.5 68t-36 65t-55 55.5t-78 39t-104 14.5q-73 0 -129.5 -32t-95.5 -83.5t-59.5 -118t-21.5 -135.5h561z" />
    <glyph glyph-name="uniE002" unicode="&#xe002;" horiz-adv-x="494" 
d="M20 505l93 2v54q0 65 16.5 111.5t45.5 76.5t68.5 44t84.5 14q46 0 87.5 -12t73.5 -32v-80q-22 29 -45 45.5t-44.5 25t-39.5 11t-32 2.5q-33 0 -59 -10t-44 -33.5t-27.5 -63t-9.5 -99.5v-52l110 2q29 1 60.5 4t53.5 8l12 -40l-236 1v-418q1 -21 7 -34.5t26 -18.5l4 -13
h-149l4 13q20 5 26 18.5t7 34.5v419h-93v20z" />
    <glyph glyph-name="uniE003" unicode="&#xe003;" 
d="M424 -23q-75 0 -145 31t-124 86t-87 131t-33 167t33 167t87 131t124 85.5t145 30.5q86 0 158 -33t123.5 -89.5t80 -132t28.5 -159.5t-28.5 -159.5t-80 -132.5t-123.5 -90t-158 -33zM120 392q0 -70 20 -137t58.5 -119.5t95 -85t130.5 -32.5t131 32.5t95.5 85t58.5 119.5
t20 137t-20 137t-58.5 119.5t-95.5 85t-131 32.5t-130.5 -32.5t-95 -85t-58.5 -119.5t-20 -137zM383 392q0 19 11.5 30.5t30.5 11.5t30.5 -11.5t11.5 -30.5q0 -20 -11.5 -31.5t-30.5 -11.5t-30.5 11.5t-11.5 31.5z" />
    <glyph glyph-name="uniE004" unicode="&#xe004;" horiz-adv-x="651" 
d="M489 100q-17 -31 -42 -54.5t-53 -39.5t-58 -24t-58 -8q-46 0 -85 15t-67.5 44.5t-44.5 74t-16 103.5v426q0 45 -2 79.5t-13 51.5l90 15v-599q0 -43 11.5 -75t32 -53t47.5 -31.5t57 -10.5q28 0 57 11t56 32t50 52.5t38 71.5v456q0 45 -2 79.5t-13 51.5l90 15v-717
q1 -21 7 -34.5t26 -18.5l4 -13h-112v100z" />
    <glyph glyph-name="uniE005" unicode="&#xe005;" horiz-adv-x="1039" 
d="M735 769q-30 0 -58 -16t-51.5 -42.5t-39 -59.5t-20.5 -67l2 -518q1 -21 6.5 -34.5t26.5 -18.5l4 -13h-149l4 13q21 5 27 18.5t6 34.5l-2 533q0 44 -11 76t-30 53t-44 31t-54 10q-26 0 -53.5 -11t-53 -32.5t-47.5 -52.5t-36 -71v-536q1 -21 7 -34.5t26 -18.5l4 -13h-149
l4 13q20 5 26 18.5t7 34.5v571q0 45 -2 79.5t-13 51.5l90 15v-99q17 30 40.5 53.5t50 39.5t54.5 24t54 8q66 0 118 -34.5t73 -103.5q15 35 37 60.5t47.5 43t53 26t54.5 8.5q44 0 81 -15t65 -44.5t44 -74t16 -103.5l2 -506q1 -21 6.5 -34.5t26.5 -18.5l4 -13h-149l3 13
q21 5 27 18.5t7 34.5l-2 533q0 44 -11 76t-30.5 53t-44.5 31t-54 10z" />
    <glyph glyph-name="uniE006" unicode="&#xe006;" horiz-adv-x="673" 
d="M54 13q20 5 26 18.5t7 34.5v571q0 45 -2 79.5t-13 51.5l90 15v-99q17 31 42 54.5t53.5 39t58.5 23.5t57 8q46 0 85 -15t67.5 -44.5t44.5 -74t16 -103.5v-506q1 -21 7 -34.5t26 -18.5l4 -13h-149l4 13q20 5 26 18.5t7 34.5v533q0 44 -11.5 76t-32 53t-47.5 31t-57 10
q-28 0 -57 -11t-56 -32t-50 -52t-38 -72v-536q1 -21 7 -34.5t26 -18.5l4 -13h-149z" />
    <glyph glyph-name="uniE007" unicode="&#xe007;" horiz-adv-x="584" 
d="M569 663q-22 26 -49 45.5t-55.5 32.5t-56 19.5t-51.5 6.5q-57 0 -95 -22t-60 -60t-31 -90.5t-9 -114.5v-414q1 -21 7 -34.5t26 -18.5l4 -13h-149l4 13q20 5 26 18.5t7 34.5v444q0 72 20 127t55.5 93t85 57.5t109.5 19.5q65 0 119.5 -16.5t92.5 -42.5v-85z" />
    <glyph glyph-name="uniE008" unicode="&#xe008;" horiz-adv-x="489" 
d="M182 783v-115l116 3q29 1 60.5 4t53.5 8l12 -40l-242 1v-486q0 -42 11 -70t28.5 -45t39 -24t43.5 -7q38 0 78 15.5t83 61.5v-75q-38 -20 -77 -30t-84 -10q-38 0 -73.5 12.5t-63 37.5t-44 63.5t-16.5 90.5v467h-87v20l87 2q0 34 -3 60.5t-12 40.5z" />
    <glyph glyph-name="uniE009" unicode="&#xe009;" horiz-adv-x="633" 
d="M588 328q0 -57 -22.5 -98.5t-60 -69t-85 -40.5t-97.5 -13q-38 0 -77 -2.5t-70.5 -10.5t-51 -23t-19.5 -40q0 -23 21.5 -33.5t52.5 -10.5q11 0 23 1.5t24 3.5q60 13 106 24.5t73 18.5q39 10 72 10q32 0 55 -9t37.5 -23.5t21 -33.5t6.5 -38q0 -49 -29.5 -85t-76.5 -59.5
t-106 -35t-116 -11.5q-48 0 -87.5 8.5t-68 24.5t-44.5 39.5t-16 54.5q0 20 11 41t29 32q-20 13 -30.5 32t-10.5 46q0 42 35.5 69t91.5 32q-31 11 -57 29t-45.5 42.5t-30.5 56.5t-11 71q0 59 24 101t63 68.5t89 39t101 12.5q41 0 80 -7t74 -24q20 32 32 58.5t19 55.5l59 -18
l-78 -114q41 -27 65.5 -69.5t24.5 -102.5zM111 328q0 -98 53.5 -140.5t146.5 -42.5q94 0 147.5 42t53.5 141q0 98 -53.5 140.5t-146.5 42.5q-94 0 -147.5 -42t-53.5 -141zM141 -68q-16 -8 -26.5 -20t-10.5 -30t11 -34.5t31.5 -30t50.5 -21.5t69 -8q71 0 125 14.5t89 37
t50 50.5t9 55q-5 18 -19 28.5t-46 10.5q-23 0 -56 -6q-34 -7 -69 -16.5t-70 -17.5t-70 -12t-68 0z" />
    <glyph glyph-name="zero" unicode="0" horiz-adv-x="710" 
d="M355 -22q-66 0 -124 29t-101.5 83t-69 130.5t-25.5 170.5q0 95 25.5 171.5t69 130.5t101.5 83t124 29t124.5 -29t102 -83t68.5 -130t25 -171q0 -94 -25 -170.5t-68.5 -130.5t-102 -83.5t-124.5 -29.5zM355 18q56 0 98.5 26t71.5 75t44 118t15 154q0 86 -15 155t-44 117.5
t-71.5 75t-98.5 26.5q-55 0 -98 -26t-72 -75t-44 -117.5t-15 -154.5q0 -85 15 -154.5t44 -118t72 -75t98 -26.5z" />
    <glyph glyph-name="one" unicode="1" horiz-adv-x="260" 
d="M65 13q20 5 26 18.5t7 34.5v571q0 44 -14.5 65t-33.5 34l123 47v-717q1 -21 7 -34.5t26 -18.5l4 -13h-149z" />
    <glyph glyph-name="two" unicode="2" horiz-adv-x="556" 
d="M25 0v24q27 22 67.5 54t85.5 73t89.5 90t81 103.5t60.5 113.5t26 121q2 48 -9.5 82.5t-32 57t-48 33.5t-59.5 11q-30 0 -59 -12t-54.5 -31.5t-47 -44t-37.5 -48.5l-51 73q48 50 108.5 76.5t144.5 26.5q48 0 90 -13t73 -41t49 -70.5t18 -102.5q0 -54 -19.5 -106.5
t-51 -102t-72 -95.5t-83 -85.5t-84 -72.5t-74.5 -57l385 25v-82h-496z" />
    <glyph glyph-name="three" unicode="3" horiz-adv-x="517" 
d="M482 596q0 -39 -10.5 -70.5t-28.5 -55.5t-42.5 -41t-52.5 -27q66 -19 100 -70.5t34 -130.5q0 -48 -16.5 -88.5t-46.5 -70.5t-72.5 -47t-94.5 -17q-42 0 -74 3t-58.5 8.5t-49 12t-45.5 12.5l32 87q28 -33 76.5 -58t114.5 -25q42 0 70.5 16.5t46 43.5t25 62t7.5 73
q0 47 -13.5 80t-37 53.5t-55.5 29.5t-70 9h-51v40h51q36 0 68 11.5t56 33t38 52t14 69.5q0 32 -7.5 62.5t-25 55t-46 39.5t-70.5 15q-66 0 -114.5 -25t-76.5 -58l-32 87q23 6 45.5 12.5t49 12t58.5 8.5t74 3q52 0 94.5 -14.5t72.5 -41.5t46.5 -65t16.5 -86z" />
    <glyph glyph-name="four" unicode="4" horiz-adv-x="648" 
d="M25 244l413 539h45v-524h115v-40h-115v-153q1 -21 7 -34.5t26 -18.5l4 -13h-149l4 13q20 5 26 18.5t7 34.5v153h-383v25zM408 259v408l-313 -408h313z" />
    <glyph glyph-name="five" unicode="5" horiz-adv-x="518" 
d="M244 474q41 0 83.5 -11t77 -40t56.5 -78.5t22 -127.5q0 -48 -16.5 -91t-47 -76t-73 -52.5t-94.5 -19.5q-42 0 -74 3t-58.5 8.5t-49 12t-45.5 12.5l32 87q28 -33 76.5 -58t114.5 -25q42 0 70.5 20t46 50.5t25 66.5t7.5 67q0 39 -5.5 75t-23 64.5t-50.5 45.5t-88 17
q-21 0 -46 -6t-49 -15t-45 -20.5t-33 -22.5l-26 11l25 412h390v-72l-342 25l-32 -319q14 11 34 21t43.5 18t48 13t46.5 5z" />
    <glyph glyph-name="six" unicode="6" horiz-adv-x="576" 
d="M302 -22q-64 0 -114 21.5t-84 69.5t-51.5 124t-17.5 185q0 207 76 316t219 109q38 0 82.5 -11.5t77.5 -37.5l-38 -79q-13 17 -27 32.5t-30.5 27.5t-36.5 19.5t-46 7.5q-36 0 -69.5 -19.5t-60.5 -60.5t-43.5 -104t-18.5 -149q40 35 89 54.5t106 19.5q50 0 93 -18
t74.5 -51.5t50 -81t18.5 -106.5q0 -77 -24 -128.5t-61 -82.5t-81 -44t-83 -13zM305 18q76 -2 118.5 55t42.5 164q0 56 -12.5 98.5t-33.5 71t-48 42.5t-57 14q-34 0 -64 -8t-54.5 -21.5t-43.5 -31t-32 -35.5q-7 -164 36.5 -255.5t147.5 -93.5z" />
    <glyph glyph-name="seven" unicode="7" horiz-adv-x="495" 
d="M15 0l393 735l-389 -34v82h461v-22l-375 -761h-90z" />
    <glyph glyph-name="eight" unicode="8" horiz-adv-x="594" 
d="M69 596q0 52 19.5 91t51.5 64.5t73 38.5t85 13t85 -13.5t72.5 -40t50.5 -65t19 -88.5q0 -36 -11 -66.5t-28 -53t-38 -37t-41 -18.5q23 -6 49.5 -23t49 -44t38 -63.5t15.5 -81.5q0 -59 -20 -103t-55.5 -73.5t-83 -44t-103.5 -14.5q-55 0 -103 14.5t-83.5 44t-55.5 73.5
t-20 103q0 45 15.5 81.5t38 63.5t49.5 44t49 23q-20 4 -41 18.5t-38 37t-28 53t-11 66.5zM154 595q0 -69 32.5 -110t110.5 -41q79 0 111 41.5t32 109.5q0 30 -7.5 60t-24 54t-44 39t-66.5 15t-66.5 -12.5t-45 -35t-25 -53.5t-7.5 -67zM120 213q0 -43 12 -80t35 -63t55.5 -41
t74.5 -15t74.5 15t55.5 41t35 63t12 80q0 39 -12 73.5t-35 60.5t-56 41t-74 15q-42 0 -74.5 -14t-55.5 -39t-35 -60t-12 -77z" />
    <glyph glyph-name="nine" unicode="9" horiz-adv-x="547" 
d="M269 267q-58 0 -103.5 18.5t-76.5 53.5t-47.5 84.5t-16.5 111.5t16.5 111.5t47.5 84.5t76.5 53.5t103.5 18.5q67 0 113 -21t75 -59.5t42 -93.5t13 -124q0 -48 -1.5 -105.5t-9.5 -116.5t-25 -113.5t-48 -97.5t-78.5 -68.5t-116.5 -25.5q-19 0 -42.5 3t-47.5 9t-46 15
t-39 22l38 79q13 -17 27 -32.5t30.5 -27.5t37 -19.5t45.5 -7.5q33 0 65 16.5t59 51t45.5 87t22.5 125.5v13t0.5 21t0.5 21v13q-6 -20 -22.5 -38t-38.5 -32t-47.5 -22t-51.5 -8zM269 309q76 0 117.5 59.5t41.5 166.5q0 115 -36.5 170.5t-122.5 55.5t-122.5 -55.5
t-36.5 -170.5t36.5 -170.5t122.5 -55.5z" />
    <glyph glyph-name="uniE00A" unicode="&#xe00a;" horiz-adv-x="244" 
d="M70 765q0 40 40 40t40 -40t-40 -40t-40 40zM54 13q20 5 26 18.5t7 34.5v463q0 45 -2 79.5t-13 51.5l85 15v-609q1 -21 7 -34.5t26 -18.5l4 -13h-144z" />
    <glyph glyph-name="period" unicode="." horiz-adv-x="180" 
d="M50 36q0 18 11 29t29 11t29 -11t11 -29t-11 -29t-29 -11t-29 11t-11 29z" />
    <glyph glyph-name="comma" unicode="," horiz-adv-x="215" 
d="M58 -73l44 135h63l-84 -147z" />
    <glyph glyph-name="exclam" unicode="!" horiz-adv-x="200" 
d="M62 589v194h75v-194l-13 -459h-50zM60 36q0 18 11 29t29 11t29 -11t11 -29t-11 -29t-29 -11t-29 11t-11 29z" />
    <glyph glyph-name="question" unicode="?" horiz-adv-x="543" 
d="M198 135q-2 38 13 72t39 67.5t53.5 67.5t55 72t44 82t20.5 97q2 45 -9.5 77t-32 52.5t-48 30.5t-59.5 10q-30 0 -59 -12t-54.5 -31.5t-47 -44t-37.5 -48.5l-51 73q48 50 108.5 76.5t144.5 26.5q48 0 90 -11.5t73 -37t49 -65t18 -96.5q0 -53 -20 -97.5t-50.5 -84
t-65.5 -75t-65 -68.5t-50 -66t-19 -67h-40zM181 36q0 18 11 29t29 11t29 -11t11 -29t-11 -29t-29 -11t-29 11t-11 29z" />
    <glyph glyph-name="hyphen" unicode="-" horiz-adv-x="428" 
d="M50 290h328v-40h-328v40z" />
    <glyph glyph-name="equal" unicode="=" horiz-adv-x="441" 
d="M50 397h341v-40h-341v40zM50 208h341v-40h-341v40z" />
    <glyph glyph-name="plus" unicode="+" horiz-adv-x="430" 
d="M50 294h145v145h40v-145h145v-40h-145v-145h-40v145h-145v40z" />
    <glyph glyph-name="colon" unicode=":" horiz-adv-x="180" 
d="M50 413q0 18 11 29t29 11t29 -11t11 -29t-11 -29t-29 -11t-29 11t-11 29zM50 112q0 18 11 29t29 11t29 -11t11 -29t-11 -29t-29 -11t-29 11t-11 29z" />
    <glyph glyph-name="semicolon" unicode=";" horiz-adv-x="223" 
d="M74 413q0 18 11 29t29 11t29 -11t11 -29t-11 -29t-29 -11t-29 11t-11 29zM58 -73l44 135h63l-84 -147z" />
    <glyph glyph-name="uniE00B" unicode="&#xe00b;" horiz-adv-x="1395" 
d="M1316 65q11 -26 24.5 -38t32.5 -14l4 -13h-172l4 13q20 4 26 17.5t-2 33.5l-75 185h-364q-29 -60 -60 -110t-72.5 -85.5t-98.5 -55.5t-139 -20q-79 0 -150 31t-124 86t-84 131t-31 167t29 167t81 131t124 85.5t157 30.5q92 0 164 -28.5t126 -79.5l-1 -118
q-14 29 -36.5 62t-57 60.5t-82.5 45.5t-113 18q-74 0 -131 -32.5t-96 -85t-59 -119.5t-20 -137t22.5 -137t64 -119.5t99.5 -85t128 -32.5q78 0 132.5 25.5t93 65t64 88.5t44.5 96l175 396q18 41 37 65.5t48 32.5zM1142 289l-156 396l-174 -396h330z" />
    <glyph glyph-name="uniE00C" unicode="&#xe00c;" horiz-adv-x="779" 
d="M424 -22q-79 0 -150 31t-124 86t-84 131t-31 167t29 167t81 131t124 85.5t157 30.5q92 0 164 -28.5t126 -79.5l-1 -118q-14 29 -36.5 62t-57 60.5t-82.5 45.5t-113 18q-74 0 -131 -32.5t-96 -85t-59 -119.5t-20 -137t22.5 -137t64 -119.5t99.5 -85t128 -32.5
q59 0 108.5 17.5t88.5 43.5t66 56.5t40 56.5l17 -9q-18 -37 -47.5 -73.5t-70.5 -66t-93.5 -48t-118.5 -18.5zM452 149q-47 0 -91 18t-77.5 50t-54 77t-20.5 99t20.5 99.5t54 77.5t77.5 50t91 18t91 -18t78 -50t54 -77.5t20 -99.5t-20 -99t-54 -77t-78 -50t-91 -18zM289 393
q0 -41 9 -78.5t29 -66t51 -45.5t74 -17q44 0 74.5 17t50.5 45.5t29 66t9 78.5t-9 79t-29 66.5t-50.5 45.5t-74.5 17q-43 0 -74 -17t-51 -45.5t-29 -66.5t-9 -79z" />
    <glyph glyph-name="uniE00D" unicode="&#xe00d;" horiz-adv-x="1250" 
d="M424 -22q-79 0 -150 31t-124 86t-84 131t-31 167t29 167t81 131t124 85.5t157 30.5q63 0 115.5 -13.5t97.5 -38.5q43 25 90 38.5t96 13.5q86 0 158 -33t123.5 -89.5t80 -132t28.5 -159.5q0 -67 -18 -129t-52 -113.5t-82 -90.5t-107 -60q29 -37 62.5 -66.5t70.5 -43.5
l-64 -81l-118 177q-20 -5 -40.5 -6.5t-41.5 -1.5q-53 0 -103 15t-95 44q-40 -27 -90.5 -43t-112.5 -16zM596 59q-71 55 -115.5 141t-44.5 193q0 106 43.5 190.5t112.5 139.5q-32 20 -73 32t-93 12q-74 0 -131 -32.5t-96 -85t-59 -119.5t-20 -137t22.5 -137t64 -119.5
t99.5 -85t128 -32.5q47 0 87 11t75 29zM521 393q0 -88 31 -169.5t91 -135.5q34 25 57.5 53t36.5 52l17 -9q-15 -29 -36.5 -59t-50.5 -56q33 -23 72 -36.5t86 -13.5q15 0 29 1t28 4l-173 260l68 18q18 -37 34.5 -70.5t34.5 -65t38 -63t44 -65.5q49 20 87 56.5t63.5 84
t38.5 102.5t13 112q0 70 -20 137t-58.5 119.5t-95.5 85t-131 32.5q-42 0 -77 -10.5t-66 -29.5q18 -14 34 -28l-1 -118q-13 26 -32 55t-48 55q-56 -54 -85 -133.5t-29 -164.5z" />
    <glyph glyph-name="uniE00E" unicode="&#xe00e;" horiz-adv-x="1122" 
d="M752 389q0 -96 -39.5 -175.5t-108.5 -133.5q36 -29 79.5 -45t93.5 -16q59 0 108.5 17.5t88.5 43.5t66 56.5t40 56.5l17 -9q-18 -37 -47.5 -73.5t-70.5 -66t-93.5 -48t-118.5 -18.5q-60 0 -114.5 18t-101.5 50q-42 -22 -89 -34t-100 -12h-312l4 13q20 5 26 18.5t7 34.5
v653q-1 21 -7 34.5t-26 18.5l-4 13h312q51 0 97 -11.5t87 -33.5q47 32 103 49.5t120 17.5q92 0 164 -28.5t126 -79.5l-1 -118q-14 29 -36.5 62t-57 60.5t-82.5 45.5t-113 18q-51 0 -94 -15.5t-78 -43.5q72 -54 113.5 -137.5t41.5 -181.5zM357 40q45 0 82.5 10t69.5 29
q-60 56 -95.5 136t-35.5 178t33.5 178t93.5 136q-32 18 -68.5 28t-79.5 10h-195v-705h195zM563 120q51 49 77.5 119.5t26.5 149.5q0 82 -28 155t-82 124q-47 -54 -70.5 -126t-23.5 -149q0 -75 26 -147t74 -126z" />
    <glyph glyph-name="uniE00F" unicode="&#xe00f;" horiz-adv-x="1159" 
d="M54 13q20 5 26 18.5t7 34.5v653q-1 21 -7 34.5t-26 18.5l-4 13h312q52 0 99 -12t89 -35q50 33 108 51t123 18q92 0 170.5 -28.5t132.5 -79.5l-1 -118q-14 29 -38.5 62t-61.5 60.5t-87 45.5t-115 18q-53 0 -97.5 -16.5t-82.5 -45.5q67 -52 106.5 -128.5t44.5 -167.5h365
v-409l-63 7q5 26 9 49t7 45.5t4.5 47t2.5 53.5q-22 -49 -55 -90t-74.5 -71t-92 -46.5t-107.5 -16.5q-60 0 -111.5 16.5t-95.5 46.5q-40 -20 -84.5 -30.5t-94.5 -10.5h-312zM357 40q80 0 143 34q-60 57 -94 138.5t-34 180.5q0 97 36 177t99 136q-32 19 -69 29t-81 10h-195
v-705h195zM559 116q53 49 80.5 120.5t27.5 152.5t-27.5 153.5t-80.5 123.5q-49 -54 -75.5 -125.5t-26.5 -147.5q0 -78 26.5 -151t75.5 -126zM954 366q-80 0 -127.5 -6.5t-77.5 -18.5q-9 -81 -47.5 -148.5t-99.5 -114.5q33 -24 71.5 -37t83.5 -13q69 0 126 28t98.5 75
t66.5 108t29 127h-123z" />
    <glyph glyph-name="uniE010" unicode="&#xe010;" horiz-adv-x="1093" 
d="M54 13q20 5 26 18.5t7 34.5v653q-1 21 -7 34.5t-26 18.5l-4 13h312q83 0 154 -30.5t123 -83t82 -123t31 -150.5h179v239q0 45 -2 79.5t-13 51.5l90 15v-717q1 -21 7 -34.5t26 -18.5l4 -13h-149l4 13q20 5 26 18.5t7 34.5v292h-180q-6 -76 -37 -141.5t-82.5 -113.5
t-120.5 -75.5t-149 -27.5h-312zM357 40q71 0 126 25.5t94.5 69t62 101.5t26.5 122h-198v-163q1 -21 7 -34.5t26 -18.5l4 -13h-149l4 13q20 5 26 18.5t7 34.5v334q0 45 -2 79.5t-13 51.5l90 15v-277h199q-1 68 -22.5 131t-60.5 111t-96 76.5t-131 28.5h-195v-705h195z" />
    <glyph glyph-name="uniE011" unicode="&#xe011;" horiz-adv-x="1188" 
d="M763 -22q-57 0 -110 17.5t-101 50.5q-84 -46 -190 -46h-312l4 13q20 5 26 18.5t7 34.5v653q-1 21 -7 34.5t-26 18.5l-4 13h312q52 0 99 -12t89 -35q48 33 102 51t111 18q86 0 158 -33t123.5 -89.5t80 -132t28.5 -159.5t-28.5 -159.5t-80 -132.5t-123.5 -90t-158 -33z
M752 389q0 -98 -41.5 -179.5t-113.5 -134.5q34 -26 75 -41t91 -15q74 0 131 32.5t95.5 85t58.5 119.5t20 137t-20 137t-58.5 119.5t-95.5 85t-131 32.5q-51 0 -93 -15t-76 -42q73 -54 115.5 -138t42.5 -183zM357 40q45 0 83 10t70 29q-61 56 -98.5 136t-37.5 178
q0 97 37 176.5t98 135.5q-32 19 -70 29.5t-82 10.5h-195v-705h195zM459 393q0 -78 24.5 -152t72.5 -128q55 49 83 121.5t28 154.5q0 83 -28.5 157t-84.5 125q-47 -54 -71 -127t-24 -151z" />
    <glyph glyph-name="uniE012" unicode="&#xe012;" horiz-adv-x="1248" 
d="M54 13q20 5 26 18.5t7 34.5v651q-1 21 -7 34.5t-26 18.5l-4 13h478v-82q-15 9 -34.5 16.5t-46.5 13t-64.5 8t-88.5 2.5h-132v-335l317 15v-59l-317 9v-329h294q21 0 32 1t18 5t11 12t10 21l269 609q18 41 37 65.5t48 32.5l288 -723q11 -26 24.5 -38t32.5 -14l4 -13h-172
l4 13q20 4 26 17.5t-2 33.5l-75 185h-364l-17 -39q-29 -66 -34 -120.5t0 -89.5h-68v-1l-478 1zM995 289l-156 396l-174 -396h330z" />
    <glyph glyph-name="uniE013" unicode="&#xe013;" horiz-adv-x="1181" 
d="M54 13q20 5 26 18.5t7 34.5v651q-1 21 -7 34.5t-26 18.5l-4 13h478v-82q-15 9 -34.5 16.5t-46.5 13t-64.5 8t-88.5 2.5h-132v-335l317 15v-59l-317 9v-329h697q56 0 96.5 14t67 36.5t39 51t12.5 58.5q0 43 -20.5 71.5t-54.5 47t-77 31.5t-87.5 25.5t-87.5 28t-77 39.5
t-54.5 60t-20.5 90q0 42 14.5 80t46.5 67t84.5 46.5t127.5 17.5q31 0 64.5 -5t64.5 -13t56.5 -17.5t41.5 -17.5v-87q-34 41 -93.5 70.5t-133.5 29.5q-100 0 -150.5 -41t-50.5 -104q0 -44 20.5 -72.5t54.5 -48.5t77.5 -33.5t88.5 -26.5t88.5 -29t77.5 -40.5t54.5 -60
t20.5 -88.5q0 -102 -73.5 -162t-216.5 -60h-809z" />
    <glyph glyph-name="uniE251" unicode="&#xe251;" horiz-adv-x="1076" 
d="M54 13q20 5 26 18.5t7 34.5v651q-1 21 -7 34.5t-26 18.5l-4 13h1011v-83q-15 9 -34.5 16.5t-46.5 13t-64.5 8t-88.5 2.5h-7v-676q1 -21 7 -34.5t26 -18.5l4 -13h-149l4 13q20 5 26 18.5t7 34.5v676h-8l-575 1v-335l317 15v-59l-317 9v-329h132q51 0 88.5 2.5t64.5 8
t46.5 13t34.5 16.5v-83l-478 1z" />
    <glyph glyph-name="uniE014" unicode="&#xe014;" horiz-adv-x="1198" 
d="M54 13q20 5 26 18.5t7 34.5v651q-1 21 -7 34.5t-26 18.5l-4 13h628v-484q0 -74 12.5 -125t36.5 -82.5t59.5 -45.5t82.5 -14q49 0 86.5 14.5t63 47t39 83t13.5 122.5v418q-1 21 -7 34.5t-26 18.5l-4 13h114l-4 -13q-20 -5 -26 -18.5t-7 -34.5v-418q0 -64 -11.5 -120.5
t-39.5 -98t-74.5 -65.5t-116.5 -23q-73 1 -123.5 23.5t-82 62.5t-46 96.5t-14.5 124.5v338q0 42 -4.5 63.5t-20.5 30.5t-47.5 9.5t-86.5 0.5h-282v-335l317 15v-59l-317 9v-329h132q51 0 88.5 2.5t64.5 8t46.5 13t34.5 16.5v-83l-478 1z" />
    <glyph glyph-name="uniE015" unicode="&#xe015;" horiz-adv-x="1188" 
d="M54 13q20 5 26 18.5t7 34.5v651q-1 21 -7 34.5t-26 18.5l-4 13h536l251 -678l202 473q28 66 31 118t-2 87h105l-336 -783h-40l-249 648q-12 32 -18.5 50t-17.5 28t-30.5 12.5t-57.5 2.5h-262v-335l317 15v-59l-317 9v-329h132q51 0 88.5 2.5t64.5 8t46.5 13t34.5 16.5
v-83l-478 1z" />
    <glyph glyph-name="uniE016" unicode="&#xe016;" horiz-adv-x="1583" 
d="M54 13q20 5 26 18.5t7 34.5v651q-1 21 -7 34.5t-26 18.5l-4 13h535l206 -658l168 453q25 68 32 110.5t0 77.5l81 17l207 -658l168 453q25 68 29.5 119t-0.5 86h92l-289 -783h-40l-208 650l-240 -650h-40l-211 659q-10 30 -16.5 46.5t-18 24.5t-31 9.5t-55.5 1.5h-257
v-335l317 15v-59l-317 9v-329h132q51 0 88.5 2.5t64.5 8t46.5 13t34.5 16.5v-83l-478 1z" />
    <glyph glyph-name="uniE017" unicode="&#xe017;" horiz-adv-x="1127" 
d="M54 13q20 5 26 18.5t7 34.5v651q-1 21 -7 34.5t-26 18.5l-4 13h515l226 -341l128 164q45 57 69 99.5t19 77.5h105l-296 -379l225 -338q17 -26 33 -34.5t30 -11.5l6 -20h-117l-228 340l-133 -172q-44 -56 -66.5 -94.5t-17.5 -73.5h-498zM412 42q37 0 62 14t53 51l212 271
l-184 277q-16 24 -29 40.5t-28 26.5t-34 14.5t-46 4.5h-256v-335l317 15v-59l-317 9v-329h250z" />
    <glyph glyph-name="uniE018" unicode="&#xe018;" horiz-adv-x="1092" 
d="M54 13q20 5 26 18.5t7 34.5v651q-1 21 -7 34.5t-26 18.5l-4 13h528l225 -411l121 221q35 65 47.5 109.5t10.5 80.5h95l-255 -467v-250q1 -21 7 -34.5t26 -18.5l4 -13h-149l4 13q20 5 26 18.5t7 34.5v250l-189 333q-15 26 -25.5 43.5t-22.5 28t-28.5 15.5t-42.5 5h-277
v-335l317 15v-59l-317 9v-329h132q51 0 88.5 2.5t64.5 8t46.5 13t34.5 16.5v-83l-478 1z" />
    <glyph glyph-name="uniE019" unicode="&#xe019;" horiz-adv-x="1275" 
d="M54 13q20 5 26 18.5t7 34.5v651q-1 21 -7 34.5t-26 18.5l-4 13h600v-385h463v239q0 45 -2 79.5t-13 51.5l90 15v-717q1 -21 7 -34.5t26 -18.5l4 -13h-149l4 13q20 5 26 18.5t7 34.5v292h-463v-292q1 -21 7 -34.5t26 -18.5l4 -13h-149l4 13q20 5 26 18.5t7 34.5v571
q0 35 -1.5 55.5t-9.5 31.5t-26 14t-51 3h-325v-351l298 13v-59l-298 11v-289q1 -21 7 -34.5t26 -18.5l4 -13h-149z" />
    <glyph glyph-name="uniE01A" unicode="&#xe01a;" horiz-adv-x="737" 
d="M54 13q20 5 26 18.5t7 34.5v651q-1 21 -7 34.5t-26 18.5l-4 13h600v-717q1 -21 7 -34.5t26 -18.5l4 -13h-149l4 13q20 5 26 18.5t7 34.5v571q0 35 -1.5 55.5t-9.5 31.5t-26 14t-51 3h-325v-351l298 13v-59l-298 11v-289q1 -21 7 -34.5t26 -18.5l4 -13h-149z" />
    <glyph glyph-name="uniE01B" unicode="&#xe01b;" horiz-adv-x="803" 
d="M54 13q20 5 26 18.5t7 34.5v651q-1 21 -7 34.5t-26 18.5l-4 13h703v-503q0 -70 -13.5 -126.5t-44 -96.5t-80 -62t-121.5 -22q-54 0 -110.5 17t-101.5 47v85q18 -21 39 -40.5t46.5 -34.5t56 -24t67.5 -9q61 0 98 21.5t56.5 58.5t26 85t6.5 101v460l-195 1h-321v-351
l298 13v-59l-298 11v-289q1 -21 7 -34.5t26 -18.5l4 -13h-149z" />
    <glyph glyph-name="uniE01C" unicode="&#xe01c;" horiz-adv-x="1002" 
d="M54 13q20 5 26 18.5t7 34.5v651q-1 21 -7 34.5t-26 18.5l-4 13h608v-741h95q51 0 88.5 2.5t64.5 8t46.5 13t34.5 16.5v-82h-441l4 13q20 5 26 18.5t7 34.5v582q0 35 -3.5 54t-13 27.5t-27 10t-45.5 1.5h-332v-351l298 13v-59l-298 11v-289q1 -21 7 -34.5t26 -18.5l4 -13
h-149z" />
    <glyph glyph-name="uniE252" unicode="&#xe252;" horiz-adv-x="939" 
d="M54 13q20 5 26 18.5t7 34.5v651q-1 21 -7 34.5t-26 18.5l-4 13h874v-83q-15 9 -34.5 16.5t-46.5 13t-64.5 8t-88.5 2.5h-7v-676q1 -21 7 -34.5t26 -18.5l4 -13h-149l4 13q20 5 26 18.5t7 34.5v676h-8l-438 1v-351l298 13v-59l-298 11v-289q1 -21 7 -34.5t26 -18.5l4 -13
h-149z" />
    <glyph glyph-name="uniE01D" unicode="&#xe01d;" horiz-adv-x="1142" 
d="M54 13q20 5 26 18.5t7 34.5v651q-1 21 -7 34.5t-26 18.5l-4 13h572v-484q0 -74 12.5 -125t36.5 -82.5t59.5 -45.5t82.5 -14q49 0 86.5 14.5t63 47t39 83t13.5 122.5v418q-1 21 -7 34.5t-26 18.5l-4 13h114l-4 -13q-20 -5 -26 -18.5t-7 -34.5v-418q0 -64 -11.5 -120.5
t-39.5 -98t-74.5 -65.5t-116.5 -23q-73 1 -123.5 23.5t-82 62.5t-46 96.5t-14.5 124.5v338q0 47 0.5 69t-8.5 29.5t-32.5 6.5t-71.5 -1h-273v-351l298 13v-59l-298 11v-289q1 -21 7 -34.5t26 -18.5l4 -13h-149z" />
    <glyph glyph-name="uniE01E" unicode="&#xe01e;" horiz-adv-x="1186" 
d="M54 13q20 5 26 18.5t7 34.5v651q-1 21 -7 34.5t-26 18.5l-4 13h534l251 -678l202 473q28 66 31 118t-2 87h105l-336 -783h-40l-250 651q-7 19 -14 35.5t-19 28.5t-32 19t-55 7h-263v-351l298 13v-59l-298 11v-289q1 -21 7 -34.5t26 -18.5l4 -13h-149z" />
    <glyph glyph-name="uniE01F" unicode="&#xe01f;" horiz-adv-x="1085" 
d="M54 13q20 5 26 18.5t7 34.5v651q-1 21 -7 34.5t-26 18.5l-4 13h521l225 -411l121 221q35 65 47.5 109.5t10.5 80.5h95l-255 -467v-250q1 -21 7 -34.5t26 -18.5l4 -13h-149l4 13q20 5 26 18.5t7 34.5v250l-196 346q-10 18 -18 32.5t-17 25t-21.5 16t-31.5 5.5h-294v-351
l298 13v-59l-298 11v-289q1 -21 7 -34.5t26 -18.5l4 -13h-149z" />
    <glyph glyph-name="uniE020" unicode="&#xe020;" horiz-adv-x="1233" 
d="M591 13q20 5 26 18.5t7 34.5v320h-462v-320q1 -21 7 -34.5t26 -18.5l4 -13h-149l4 13q20 5 26 18.5t7 34.5v571q0 45 -2 79.5t-13 51.5l90 15v-357h462v276q-1 15 -2.5 27.5t-4.5 22.5q-8 14 -26 18l-4 13h304q47 0 93.5 -9.5t84 -32.5t60.5 -61t23 -95q0 -32 -12 -60
t-31 -50t-42.5 -37.5t-46.5 -23.5q37 -2 69.5 -17t56.5 -40.5t38 -60.5t14 -79q0 -64 -25 -105.5t-65.5 -66.5t-91 -35t-102.5 -10h-327zM914 426q73 6 113 48t40 111q0 42 -14 72t-38 49t-56 28t-67 9h-192v-317h214zM927 40q37 0 71 9.5t59.5 30.5t40.5 54.5t15 81.5
q0 47 -14 79t-39 52t-60.5 29t-79.5 9h-220v-319q0 -15 3 -26h224z" />
    <glyph glyph-name="uniE021" unicode="&#xe021;" horiz-adv-x="1110" 
d="M424 -22q-79 0 -150 31t-124 86t-84 131t-31 167t29 167t81 131t124 85.5t157 30.5q92 0 164 -28.5t126 -79.5l-1 -118q-14 29 -36.5 62t-57 60.5t-82.5 45.5t-113 18q-74 0 -131 -32.5t-96 -85t-59 -119.5t-20 -137t22.5 -137t64 -119.5t99.5 -85t128 -32.5
q59 0 108.5 17.5t88.5 43.5t66 56.5t40 56.5l17 -9q-18 -37 -47.5 -73.5t-70.5 -66t-93.5 -48t-118.5 -18.5zM377 146q20 5 26 18.5t7 34.5v331q0 45 -2 79.5t-13 51.5l90 15v-278h463v239q0 45 -2 79.5t-13 51.5l90 15v-717q1 -21 7 -34.5t26 -18.5l4 -13h-149l4 13
q20 5 26 18.5t7 34.5v292h-463v-159q1 -21 7 -34.5t26 -18.5l4 -13h-149z" />
    <glyph glyph-name="uniE022" unicode="&#xe022;" horiz-adv-x="1554" 
d="M821 13q20 5 26 18.5t7 34.5v292h-154v-292q1 -21 7 -34.5t26 -18.5l4 -13h-149l4 13q20 5 26 18.5t7 34.5v292h-463v-292q1 -21 7 -34.5t26 -18.5l4 -13h-149l4 13q20 5 26 18.5t7 34.5v571q0 45 -2 79.5t-13 51.5l90 15v-385h463v239q0 45 -2 79.5t-13 51.5l90 15v-385
h154v239q0 45 -2 79.5t-13 51.5l90 15v-385h463v239q0 45 -2 79.5t-13 51.5l90 15v-717q1 -21 7 -34.5t26 -18.5l4 -13h-149l4 13q20 5 26 18.5t7 34.5v292h-463v-292q1 -21 7 -34.5t26 -18.5l4 -13h-149z" />
    <glyph glyph-name="uniE023" unicode="&#xe023;" horiz-adv-x="779" 
d="M424 -23q-79 0 -150 31t-124 86t-84 131t-31 167t29 167t81 131t124 85.5t157 30.5q92 0 164 -28.5t126 -79.5l-1 -118q-14 29 -36.5 62t-57 60.5t-82.5 45.5t-113 18q-74 0 -131 -32.5t-96 -85t-59 -119.5t-20 -137t22.5 -137t64 -119.5t99.5 -85t128 -32.5
q59 0 108.5 17.5t88.5 43.5t66 56.5t40 56.5l17 -9q-18 -37 -47.5 -73.5t-70.5 -66t-93.5 -48t-118.5 -18.5zM457 119q-55 0 -102.5 19.5t-82.5 55t-55 86t-20 111.5t20 111.5t55 86.5t83 56t104 20q30 0 57.5 -5.5t51.5 -14.5t43.5 -19.5t32.5 -20.5v-80q-16 20 -34.5 38.5
t-41 32.5t-49.5 22.5t-60 8.5q-46 0 -81.5 -19t-60 -51t-37 -75t-12.5 -90q0 -46 14.5 -88.5t41 -75t64.5 -52t85 -19.5q34 0 62 9.5t50 24.5t38 32.5t26 33.5l10 -6q-32 -65 -85.5 -98.5t-116.5 -33.5z" />
    <glyph glyph-name="uniE024" unicode="&#xe024;" horiz-adv-x="1281" 
d="M1202 65q11 -26 24.5 -38t32.5 -14l4 -13h-172l4 13q20 4 26 17.5t-2 33.5l-75 185h-364l-17 -39q-29 -66 -34 -120.5t0 -89.5h-579l4 13q20 5 26 18.5t7 34.5v571q0 45 -2 79.5t-13 51.5l90 15v-741h276q41 0 64 4t36.5 12.5t20 21.5t14.5 31l256 579q18 41 37 65.5
t48 32.5zM1028 289l-156 396l-174 -396h330z" />
    <glyph glyph-name="uniE025" unicode="&#xe025;" horiz-adv-x="1018" 
d="M435 151q42 -59 102.5 -95.5t135.5 -36.5q59 0 108.5 17.5t88.5 43.5t66 56.5t40 56.5l17 -9q-18 -37 -47.5 -73.5t-70.5 -66t-93.5 -48t-118.5 -18.5q-99 0 -182 46t-137 127h-294l4 13q20 5 26 18.5t7 34.5v420q0 45 -2 79.5t-13 51.5l90 15v-590h158q-22 44 -34 94
t-12 106q0 91 29 167t81 131t124 85.5t157 30.5q92 0 164 -28.5t126 -79.5l-1 -118q-14 29 -36.5 62t-57 60.5t-82.5 45.5t-113 18q-74 0 -131 -32.5t-96 -85t-59 -119.5t-20 -137q0 -53 13 -104t37 -96h72q51 0 88.5 2.5t64.5 8t46.5 13t34.5 16.5v-82h-280z" />
    <glyph glyph-name="uniE026" unicode="&#xe026;" horiz-adv-x="796" 
d="M50 0l4 13q20 5 26 18.5t7 34.5v571q0 45 -2 79.5t-13 51.5l90 15v-741h385q51 0 88.5 2.5t64.5 8t46.5 13t34.5 16.5v-82h-731zM771 455q0 -67 -24 -126t-69.5 -102.5t-111.5 -68.5t-150 -25h-148l4 11q20 4 26 18.5t7 32.5v526q-1 18 -7 32.5t-26 18.5l-4 11h148
q84 0 150 -26t111.5 -70.5t69.5 -104t24 -127.5zM411 173q75 0 127 22.5t85 61t48 90t15 108.5q0 58 -15 110t-48 91.5t-85 63t-127 23.5h-31v-570h31z" />
    <glyph glyph-name="uniE027" unicode="&#xe027;" horiz-adv-x="753" 
d="M50 0l4 13q20 5 26 18.5t7 34.5v571q0 45 -2 79.5t-13 51.5l90 15v-741h342q51 0 88.5 2.5t64.5 8t46.5 13t34.5 16.5v-82h-688zM254 188q20 5 26 18.5t7 34.5v476q-1 21 -7 34.5t-26 18.5l-4 13h453v-82q-15 9 -34.5 16.5t-46.5 13t-64.5 8t-88.5 2.5h-107v-247l292 15
v-59l-292 9v-242h107q51 0 88.5 2.5t64.5 8t46.5 13t34.5 16.5v-83l-453 1z" />
    <glyph glyph-name="uniE028" unicode="&#xe028;" horiz-adv-x="506" 
d="M50 0l4 13q20 5 26 18.5t7 34.5v571q0 45 -2 79.5t-13 51.5l90 15v-741h95q51 0 88.5 2.5t64.5 8t46.5 13t34.5 16.5v-82h-441zM271 153q20 5 26 18.5t7 34.5v431q0 45 -2 79.5t-13 51.5l90 15v-577q1 -21 7 -34.5t26 -18.5l4 -13h-149z" />
    <glyph glyph-name="uniF6BF" unicode="&#xf6bf;" horiz-adv-x="738" 
d="M50 0l4 13q20 5 26 18.5t7 34.5v571q0 45 -2 79.5t-13 51.5l90 15v-741h327q51 0 88.5 2.5t64.5 8t46.5 13t34.5 16.5v-82h-673zM264 163l4 13q20 5 26 18.5t7 34.5v408q0 45 -2 79.5t-13 51.5l90 15v-578h62q51 0 88.5 2.5t64.5 8t46.5 13t34.5 16.5v-82h-408z" />
    <glyph glyph-name="uniE029" unicode="&#xe029;" horiz-adv-x="1127" 
d="M702 -22q-54 0 -105.5 16.5t-97.5 46.5t-83 72.5t-62 94.5h-304l4 13q20 5 26 18.5t7 34.5v363q0 45 -2 79.5t-13 51.5l90 15v-533h175q-11 33 -17.5 69t-6.5 74q0 91 33 167t87 131t124 85.5t145 30.5q86 0 158 -33t123.5 -89.5t80 -132t28.5 -159.5t-28.5 -159.5
t-80 -132.5t-123.5 -90t-158 -33zM435 208q18 -40 43.5 -75t59 -60t75 -39.5t89.5 -14.5q74 0 131 32.5t95.5 85t58.5 119.5t20 137t-20 137t-58.5 119.5t-95.5 85t-131 32.5t-130.5 -32.5t-95 -85t-58.5 -119.5t-20 -137q0 -37 5.5 -72.5t16.5 -70.5q48 0 83.5 3t61.5 8.5
t44.5 12.5t33.5 16v-82h-208z" />
    <glyph glyph-name="uniE02A" unicode="&#xe02a;" horiz-adv-x="1121" 
d="M696 -22q-54 0 -105.5 16.5t-97.5 46.5t-83 72.5t-62 94.5h-298l4 13q20 5 26 18.5t7 34.5v363q0 45 -2 79.5t-13 51.5l90 15v-533h169q-11 33 -17.5 69t-6.5 74q0 91 33 167t87 131t124 85.5t145 30.5q86 0 158 -33t123.5 -89.5t80 -132t28.5 -159.5q0 -67 -18 -129
t-52 -113.5t-82 -90.5t-107 -60q29 -37 62.5 -66.5t70.5 -43.5l-64 -81l-118 177q-20 -5 -40.5 -6.5t-41.5 -1.5zM392 393q0 -37 5.5 -72.5t16.5 -70.5q63 0 104.5 4.5t70.5 12.5l52 22l2 1l8 3q18 -37 34 -69t33.5 -62t37 -60t43.5 -64q49 20 87 56.5t63.5 84t38.5 102.5
t13 112q0 70 -20 137t-58.5 119.5t-95.5 85t-131 32.5t-130.5 -32.5t-95 -85t-58.5 -119.5t-20 -137zM429 208q18 -40 43.5 -75t59 -60t75 -39.5t89.5 -14.5q15 0 29 1t28 4l-124 184h-200z" />
    <glyph glyph-name="uniE02B" unicode="&#xe02b;" horiz-adv-x="858" 
d="M50 0l4 13q20 5 26 18.5t7 34.5v571q0 45 -2 79.5t-13 51.5l90 15v-741h447q51 0 88.5 2.5t64.5 8t46.5 13t34.5 16.5v-82h-793zM753 717q-1 21 -7 34.5t-26 18.5l-4 13h114l-4 -13q-20 -5 -26 -18.5t-7 -34.5v-292q0 -64 -11.5 -117t-39.5 -90t-74.5 -57t-116.5 -19
q-73 1 -123.5 19.5t-82 54.5t-46 88.5t-14.5 120.5v212q0 45 -2 79.5t-13 51.5l90 15v-358q0 -74 12.5 -121.5t36.5 -74.5t59.5 -37t82.5 -10q49 0 86.5 11t63 38.5t39 74.5t13.5 119v292z" />
    <glyph glyph-name="uniE02C" unicode="&#xe02c;" horiz-adv-x="1177" 
d="M424 -22q-75 0 -145 31t-124 86t-87 131t-33 167t33 167t87 131t124 85.5t145 30.5q56 0 105 -14t92 -40q89 54 203 54q92 0 164 -28.5t126 -79.5l-1 -118q-14 29 -36.5 62t-57 60.5t-82.5 45.5t-113 18q-45 0 -84.5 -12t-71.5 -35q69 -57 107.5 -142.5t38.5 -184.5
q0 -97 -37.5 -181t-103.5 -142q34 -24 74 -37.5t85 -13.5q59 0 108.5 17.5t88.5 43.5t66 56.5t40 56.5l17 -9q-18 -37 -47.5 -73.5t-70.5 -66t-93.5 -48t-118.5 -18.5q-54 0 -104 14.5t-94 41.5q-43 -26 -93 -41t-107 -15zM120 393q0 -70 20 -137t58.5 -119.5t95 -85
t130.5 -32.5q45 0 84 12t71 35q-66 56 -106 139.5t-40 187.5q0 105 38 189.5t105 139.5q-32 22 -69.5 33.5t-82.5 11.5q-74 0 -130.5 -32.5t-95 -85t-58.5 -119.5t-20 -137zM628 109q50 54 75.5 129t25.5 155q0 81 -26.5 157.5t-78.5 130.5q-52 -54 -79 -130.5t-27 -157.5
q0 -80 29 -155t81 -129z" />
    <glyph glyph-name="uniE02D" unicode="&#xe02d;" horiz-adv-x="1216" 
d="M424 -22q-75 0 -145 31t-124 86t-87 131t-33 167t33 167t87 131t124 85.5t145 30.5q57 0 107.5 -14.5t94.5 -41.5q47 27 100 41.5t112 14.5q92 0 170.5 -28.5t132.5 -79.5l-1 -118q-14 29 -38.5 62t-61.5 60.5t-87 45.5t-115 18q-48 0 -89 -13.5t-76 -37.5
q64 -55 101 -134.5t40 -172.5h360v-409l-63 7q5 26 9 49t7 45.5t4.5 47t2.5 53.5q-22 -49 -55 -90t-74.5 -71t-92 -46.5t-107.5 -16.5q-106 0 -189 51q-42 -24 -90 -37.5t-102 -13.5zM120 393q0 -70 20 -137t58.5 -119.5t95 -85t130.5 -32.5q43 0 79.5 11t67.5 31
q-67 57 -104.5 142.5t-37.5 189.5t41 187t110 139q-32 23 -71 35.5t-85 12.5q-74 0 -130.5 -32.5t-95 -85t-58.5 -119.5t-20 -137zM626 106q51 54 77 130t26 157q0 80 -25.5 155.5t-76.5 129.5q-54 -54 -83.5 -129.5t-29.5 -155.5q0 -82 29 -158t83 -129zM1011 366
q-77 0 -123.5 -6t-76.5 -17q-9 -82 -45 -152.5t-94 -121.5q31 -20 66.5 -30.5t75.5 -10.5q69 0 126 28t98.5 75t66.5 108t29 127h-123z" />
    <glyph glyph-name="uniE02E" unicode="&#xe02e;" horiz-adv-x="1248" 
d="M424 -22q-75 0 -145 31t-124 86t-87 131t-33 167t33 167t87 131t124 85.5t145 30.5q58 0 108.5 -15t94.5 -42q45 28 94.5 42.5t101.5 14.5q86 0 158 -33t123.5 -89.5t80 -132t28.5 -159.5t-28.5 -159.5t-80 -132.5t-123.5 -90t-158 -33q-52 0 -101.5 15t-94.5 43
q-44 -28 -94.5 -43t-108.5 -15zM120 393q0 -70 20 -137t58.5 -119.5t95 -85t130.5 -32.5q47 0 86 13t72 36q-66 56 -107 139t-41 186t41.5 185.5t107.5 138.5q-33 23 -72.5 36.5t-86.5 13.5q-74 0 -130.5 -32.5t-95 -85t-58.5 -119.5t-20 -137zM669 66q32 -22 70.5 -34.5
t83.5 -12.5q74 0 131 32.5t95.5 85t58.5 119.5t20 137t-20 137t-58.5 119.5t-95.5 85t-131 32.5q-45 0 -84 -12t-71 -35q69 -57 107.5 -142.5t38.5 -184.5t-38 -184t-107 -143zM519 393q0 -81 26.5 -158t78.5 -131q52 54 78.5 131t26.5 158t-26.5 158t-78.5 131
q-52 -54 -78.5 -131t-26.5 -158z" />
    <glyph glyph-name="uniE02F" unicode="&#xe02f;" horiz-adv-x="1249" 
d="M424 -22q-75 0 -145 31t-124 86t-87 131t-33 167t33 167t87 131t124 85.5t145 30.5q58 0 109 -15t95 -43q45 28 94.5 43t101.5 15q86 0 158 -33t123.5 -89.5t80 -132t28.5 -159.5q0 -67 -18 -129t-52 -113.5t-82 -90.5t-107 -60q29 -37 62.5 -66.5t70.5 -43.5l-64 -81
l-118 177q-20 -5 -40.5 -6.5t-41.5 -1.5q-52 0 -101.5 15t-94.5 43q-44 -28 -95 -43t-109 -15zM120 393q0 -70 20 -137t58.5 -119.5t95 -85t130.5 -32.5q47 0 86.5 13.5t72.5 36.5q-66 56 -107 138.5t-41 185.5t41 185.5t107 138.5q-33 23 -72.5 36.5t-86.5 13.5
q-74 0 -130.5 -32.5t-95 -85t-58.5 -119.5t-20 -137zM795 262q15 -30 29.5 -58t30.5 -55t33.5 -54t38.5 -57q49 20 87 56.5t63.5 84t38.5 102.5t13 112q0 70 -20 137t-58.5 119.5t-95.5 85t-131 32.5q-45 0 -84 -12.5t-71 -35.5q69 -57 107 -142t38 -184q0 -34 -5 -67
t-14 -64zM520 393q0 -81 26.5 -157.5t77.5 -130.5q32 34 54.5 77.5t35.5 92.5l-6 9l9 2q12 53 12 107q0 81 -26.5 157.5t-78.5 130.5q-51 -54 -77.5 -130.5t-26.5 -157.5zM768 194q-37 -75 -99 -128q32 -23 71 -35t84 -12q15 0 29 1t28 4z" />
    <glyph glyph-name="uniE030" unicode="&#xe030;" horiz-adv-x="1168" 
d="M424 -22q-75 0 -145 31t-124 86t-87 131t-33 167t33 167t87 131t124 85.5t145 30.5q54 0 102.5 -13.5t90.5 -37.5q43 25 92.5 38t105.5 13q92 0 164 -28.5t126 -79.5l-1 -118q-14 29 -36.5 62t-57 60.5t-82.5 45.5t-113 18q-44 0 -81.5 -11.5t-69.5 -32.5
q70 -57 110 -143.5t40 -186.5q0 -99 -38 -184t-106 -143q33 -23 71.5 -35t81.5 -12q59 0 108.5 17.5t88.5 43.5t66 56.5t40 56.5l17 -9q-18 -37 -47.5 -73.5t-70.5 -66t-93.5 -48t-118.5 -18.5q-53 0 -101.5 13.5t-91.5 39.5q-15 -9 -31.5 -17t-33.5 -14q29 -37 62.5 -66.5
t70.5 -43.5l-64 -81l-118 177q-20 -5 -40.5 -6.5t-41.5 -1.5zM120 393q0 -70 20 -137t58.5 -119.5t95 -85t130.5 -32.5q15 0 29 1t28 4l-173 260l68 18q18 -37 34.5 -70.5t34.5 -65t38 -63t44 -65.5q25 10 47 25q-69 56 -109.5 140t-40.5 190t39 191.5t108 140.5
q-31 20 -67.5 31t-79.5 11q-74 0 -130.5 -32.5t-95 -85t-58.5 -119.5t-20 -137zM624 104q52 54 78.5 131t26.5 158q0 83 -28 161t-82 132q-54 -54 -82 -132t-28 -161q0 -81 30.5 -158t84.5 -131z" />
    <glyph glyph-name="uniE031" unicode="&#xe031;" horiz-adv-x="1248" 
d="M424 -22q-75 0 -145 31t-124 86t-87 131t-33 167t33 167t87 131t124 85.5t145 30.5q58 0 108.5 -15t94.5 -42q45 28 94.5 42.5t101.5 14.5q86 0 158 -33t123.5 -89.5t80 -132t28.5 -159.5t-28.5 -159.5t-80 -132.5t-123.5 -90t-158 -33q-52 0 -101 14.5t-94 42.5
q-17 -11 -35 -19.5t-38 -15.5q29 -37 62.5 -66.5t70.5 -43.5l-64 -81l-118 177q-20 -5 -40.5 -6.5t-41.5 -1.5zM120 393q0 -70 20 -137t58.5 -119.5t95 -85t130.5 -32.5q15 0 29 1t28 4l-173 260l68 18q18 -37 34.5 -70.5t34.5 -65t38 -63t44 -65.5q31 12 56 30
q-66 56 -107.5 139t-41.5 186t41.5 185.5t107.5 138.5q-33 23 -72.5 36.5t-86.5 13.5q-74 0 -130.5 -32.5t-95 -85t-58.5 -119.5t-20 -137zM669 66q32 -22 70.5 -34.5t83.5 -12.5q74 0 131 32.5t95.5 85t58.5 119.5t20 137t-20 137t-58.5 119.5t-95.5 85t-131 32.5
q-45 0 -84 -12t-71 -35q69 -57 107.5 -142.5t38.5 -184.5t-38 -184t-107 -143zM519 393q0 -81 26.5 -158t78.5 -131q52 54 78.5 131t26.5 158t-26.5 158t-78.5 131q-52 -54 -78.5 -131t-26.5 -158z" />
    <glyph glyph-name="uniE253" unicode="&#xe253;" horiz-adv-x="1162" 
d="M521 181q0 45 -20.5 73.5t-54.5 47.5t-77 31.5t-87.5 24t-87.5 25.5t-77 37t-54.5 57.5t-20.5 87.5q0 43 14.5 82.5t46.5 69.5t84.5 48t127.5 18h832v-83q-15 9 -34.5 16.5t-46.5 13t-64.5 8t-88.5 2.5h-59v-676q1 -21 7 -34.5t26 -18.5l4 -13h-149l4 13q20 5 26 18.5
t7 34.5v676h-459q-101 0 -153.5 -41t-52.5 -107q0 -42 20.5 -69.5t54.5 -45.5t77.5 -30.5t88.5 -24.5t88.5 -27.5t77.5 -40t54.5 -61t20.5 -91.5q0 -106 -73.5 -167t-216.5 -61q-27 0 -63.5 5.5t-74.5 15.5t-73 23.5t-60 29.5v90q25 -30 59.5 -53t71.5 -38.5t73.5 -24
t66.5 -8.5q56 0 96.5 14.5t67 38t39 53.5t12.5 61z" />
    <glyph glyph-name="uniE032" unicode="&#xe032;" horiz-adv-x="1119" 
d="M521 181q0 45 -20.5 74t-54.5 48.5t-77 33t-87.5 26.5t-87.5 29t-77 41t-54.5 62t-20.5 93q0 43 14.5 82.5t46.5 69.5t84.5 48t127.5 18q31 0 64.5 -5.5t64.5 -13.5t56.5 -17.5t41.5 -18.5l40 -23q32 35 86.5 56.5t137.5 21.5q31 0 64.5 -5.5t64.5 -13.5t56.5 -17.5
t41.5 -18.5v-90q-17 21 -40.5 40t-53 33t-63 22.5t-70.5 8.5q-49 0 -87 -11.5t-63 -31.5t-38 -47.5t-13 -59.5q0 -45 20.5 -75t54.5 -50.5t77.5 -34.5t88.5 -27.5t88.5 -30t77.5 -41.5t54.5 -62t20.5 -92q0 -106 -73.5 -167t-216.5 -61q-27 0 -62 5.5t-71.5 14.5t-71 22
t-60.5 28q-37 -34 -93 -52t-133 -18q-27 0 -63.5 5.5t-74.5 15.5t-73 23.5t-60 29.5v90q25 -30 59.5 -53t71.5 -38.5t73.5 -24t66.5 -8.5q56 0 96.5 14.5t67 38t39 53.5t12.5 61zM1012 181q0 45 -20.5 74t-54.5 48.5t-77 33t-87.5 26.5t-87.5 29t-77 41t-54.5 62t-20.5 93
q0 18 2.5 36t7.5 35q-18 20 -42.5 39t-54 34t-63 24t-68.5 9q-49 0 -87 -11.5t-63 -31.5t-38 -47.5t-13 -59.5q0 -45 20.5 -75t54.5 -50.5t77.5 -34.5t88.5 -27.5t88.5 -30t77.5 -41.5t54.5 -62t20.5 -92q0 -60 -24 -107q26 -19 55.5 -34.5t59.5 -25.5t58 -15.5t52 -5.5
q56 0 96.5 14.5t67 38t39 53.5t12.5 61z" />
    <glyph glyph-name="uniE033" unicode="&#xe033;" horiz-adv-x="1113" 
d="M15 783h1083v-82q-15 9 -34.5 16.5t-46.5 13t-64.5 8t-88.5 2.5h-132v-335l317 15v-59l-317 9v-329h132q51 0 88.5 2.5t64.5 8t46.5 13t34.5 16.5v-83l-478 1l4 13q20 5 26 18.5t7 34.5v675h-325v-677q1 -21 7 -34.5t26 -18.5l4 -13h-149l4 13q20 5 26 18.5t7 34.5v677
h-8q-51 0 -88.5 -3t-64.5 -8t-46.5 -13t-34.5 -17v83z" />
    <glyph glyph-name="uniE034" unicode="&#xe034;" horiz-adv-x="1106" 
d="M15 783h1076v-82q-15 9 -34.5 16.5t-46.5 13t-64.5 8t-88.5 2.5h-132v-351l298 13v-59l-298 11v-289q1 -21 7 -34.5t26 -18.5l4 -13h-149l4 13q20 5 26 18.5t7 34.5v675h-318v-677q1 -21 7 -34.5t26 -18.5l4 -13h-149l4 13q20 5 26 18.5t7 34.5v677h-8q-51 0 -88.5 -3
t-64.5 -8t-46.5 -13t-34.5 -17v83z" />
    <glyph glyph-name="uniE035" unicode="&#xe035;" horiz-adv-x="1299" 
d="M15 783l277 -1l382 1v-385h463v239q0 45 -2 79.5t-13 51.5l90 15v-717q1 -21 7 -34.5t26 -18.5l4 -13h-149l4 13q20 5 26 18.5t7 34.5v292h-463v-292q1 -21 7 -34.5t26 -18.5l4 -13h-149l4 13q20 5 26 18.5t7 34.5v571q0 44 1 66t-4.5 30t-21.5 7.5t-50 -0.5h-192v-676
q1 -21 7 -34.5t26 -18.5l4 -13h-149l4 13q20 5 26 18.5t7 34.5v676h-8q-51 0 -88.5 -2.5t-64.5 -8t-46.5 -13t-34.5 -16.5v83z" />
    <glyph glyph-name="uniE036" unicode="&#xe036;" horiz-adv-x="1214" 
d="M1141 179q9 -22 20.5 -32t27.5 -12l3 -11h-158l3 11q17 3 22 14.5t-2 28.5l-63 156h-286l-14 -33q-23 -56 -28 -101.5t-1 -75.5h-95l257 581q15 35 31 56t40 27zM292 405l157 -209q30 -40 72.5 -89t93 -91t107.5 -70.5t117 -28.5q74 0 131.5 17t100.5 42t72.5 52.5
t46.5 47.5l9 -7q-13 -22 -43.5 -56t-76.5 -65t-106.5 -53.5t-133.5 -22.5q-90 0 -160.5 29.5t-129.5 78.5t-110.5 111.5t-102.5 129.5l-97 125l-77 -102v-178q1 -21 7 -34.5t26 -18.5l4 -13h-149l4 13q20 5 26 18.5t7 34.5v571q0 45 -2 79.5t-13 51.5l90 15v-470l207 274
q44 57 65 108t27 88h111zM981 368l-122 307l-135 -307h257z" />
    <glyph glyph-name="uniE037" unicode="&#xe037;" horiz-adv-x="1234" 
d="M292 405l157 -209q30 -40 72.5 -89t93 -91t107.5 -70.5t117 -28.5q74 0 131.5 17t100.5 42t72.5 52.5t46.5 47.5l9 -7q-13 -22 -43.5 -56t-76.5 -65t-106.5 -53.5t-133.5 -22.5q-90 0 -160.5 29.5t-129.5 78.5t-110.5 111.5t-102.5 129.5l-97 125l-77 -102v-178
q1 -21 7 -34.5t26 -18.5l4 -13h-149l4 13q20 5 26 18.5t7 34.5v571q0 45 -2 79.5t-13 51.5l90 15v-470l207 274q44 57 65 108t27 88h111zM1199 420q0 -75 -24 -140t-69.5 -113t-111.5 -75.5t-150 -27.5h-193l4 13q20 4 26 17.5t7 33.5v591q-1 20 -7 33.5t-26 17.5l-4 13h193
q84 0 150 -28.5t111.5 -78t69.5 -115.5t24 -141zM839 104q75 0 127 25.5t85 69t48 101t15 120.5q0 64 -15 122.5t-48 103t-85 71t-127 26.5h-76v-639h76z" />
    <glyph glyph-name="uniE038" unicode="&#xe038;" horiz-adv-x="1214" 
d="M642 121q20 5 26 18.5t7 34.5v543q-1 21 -7 34.5t-26 18.5l-4 13h478v-82q-15 9 -34.5 16.5t-46.5 13t-64.5 8t-88.5 2.5h-132v-277l317 15v-59l-317 9v-279h132q51 0 88.5 2.5t64.5 8t46.5 13t34.5 16.5v-83l-478 1zM292 405l157 -209q30 -40 72.5 -89t93 -91
t107.5 -70.5t117 -28.5q74 0 131.5 17t100.5 42t72.5 52.5t46.5 47.5l9 -7q-13 -22 -43.5 -56t-76.5 -65t-106.5 -53.5t-133.5 -22.5q-90 0 -160.5 29.5t-129.5 78.5t-110.5 111.5t-102.5 129.5l-97 125l-77 -102v-178q1 -21 7 -34.5t26 -18.5l4 -13h-149l4 13q20 5 26 18.5
t7 34.5v571q0 45 -2 79.5t-13 51.5l90 15v-470l207 274q44 57 65 108t27 88h111z" />
    <glyph glyph-name="uniE039" unicode="&#xe039;" horiz-adv-x="1265" 
d="M609 137q20 5 26 18.5t7 34.5v447q0 45 -2 79.5t-13 51.5l90 15v-325h386v179q0 45 -2 79.5t-13 51.5l90 15v-593q1 -21 7 -34.5t26 -18.5l4 -13h-149l4 13q20 5 26 18.5t7 34.5v228h-386v-228q1 -21 7 -34.5t26 -18.5l4 -13h-149zM292 405l157 -209q30 -40 72.5 -89
t93 -91t107.5 -70.5t117 -28.5q74 0 131.5 17t100.5 42t72.5 52.5t46.5 47.5l9 -7q-13 -22 -43.5 -56t-76.5 -65t-106.5 -53.5t-133.5 -22.5q-90 0 -160.5 29.5t-129.5 78.5t-110.5 111.5t-102.5 129.5l-97 125l-77 -102v-178q1 -21 7 -34.5t26 -18.5l4 -13h-149l4 13
q20 5 26 18.5t7 34.5v571q0 45 -2 79.5t-13 51.5l90 15v-470l207 274q44 57 65 108t27 88h111z" />
    <glyph glyph-name="uniE03A" unicode="&#xe03a;" horiz-adv-x="1104" 
d="M633 97l4 13q20 5 26 18.5t7 34.5v474q0 45 -2 79.5t-13 51.5l90 15v-644h95q51 0 88.5 2.5t64.5 8t46.5 13t34.5 16.5v-82h-441zM292 405l157 -209q30 -40 71 -89t88.5 -91t100 -70.5t105.5 -28.5q54 0 95.5 11t74 28t56 38t40.5 41l9 -7q-13 -22 -38.5 -49.5t-61 -51
t-80 -39.5t-95.5 -16q-80 0 -145.5 29.5t-122.5 78.5t-108 111.5t-102 129.5l-97 125l-77 -102v-178q1 -21 7 -34.5t26 -18.5l4 -13h-149l4 13q20 5 26 18.5t7 34.5v571q0 45 -2 79.5t-13 51.5l90 15v-470l207 274q44 57 65 108t27 88h111z" />
    <glyph glyph-name="uniE03B" unicode="&#xe03b;" horiz-adv-x="1266" 
d="M882 66q-67 0 -130 28t-111.5 77.5t-78 117.5t-29.5 149t29.5 149.5t78 117.5t111.5 76.5t130 27.5q77 0 141.5 -29.5t110.5 -80t71.5 -118t25.5 -143.5t-25.5 -143.5t-71.5 -118.5t-110.5 -80.5t-141.5 -29.5zM292 405l157 -209q30 -40 72.5 -89t93 -91t107.5 -70.5
t117 -28.5q74 0 131.5 17t100.5 42t72.5 52.5t46.5 47.5l9 -7q-13 -22 -43.5 -56t-76.5 -65t-106.5 -53.5t-133.5 -22.5q-90 0 -160.5 29.5t-129.5 78.5t-110.5 111.5t-102.5 129.5l-97 125l-77 -102v-178q1 -21 7 -34.5t26 -18.5l4 -13h-149l4 13q20 5 26 18.5t7 34.5v571
q0 45 -2 79.5t-13 51.5l90 15v-470l207 274q44 57 65 108t27 88h111zM615 438q0 -63 17 -122.5t50.5 -106t83.5 -75t116 -28.5t116 28.5t83.5 75t50.5 106t17 122.5q0 62 -17 121.5t-50.5 106t-83.5 75t-116 28.5t-116 -28.5t-83.5 -75t-50.5 -106t-17 -121.5z" />
    <glyph glyph-name="uniE03C" unicode="&#xe03c;" horiz-adv-x="1214" 
d="M1111 717q-1 21 -7 34.5t-26 18.5l-4 13h114l-4 -13q-20 -5 -26 -18.5t-7 -34.5v-360q0 -64 -11.5 -120.5t-39.5 -98t-74.5 -65.5t-116.5 -23q-73 1 -123.5 23.5t-82 62.5t-46 96.5t-14.5 124.5v280q0 45 -2 79.5t-13 51.5l90 15v-426q0 -74 12.5 -125t36.5 -82.5
t59.5 -45.5t82.5 -14q49 0 86.5 14.5t63 47t39 83t13.5 122.5v360zM292 405l157 -209q30 -40 72.5 -89t93 -91t107.5 -70.5t117 -28.5q74 0 131.5 17t100.5 42t72.5 52.5t46.5 47.5l9 -7q-13 -22 -43.5 -56t-76.5 -65t-106.5 -53.5t-133.5 -22.5q-90 0 -160.5 29.5
t-129.5 78.5t-110.5 111.5t-102.5 129.5l-97 125l-77 -102v-178q1 -21 7 -34.5t26 -18.5l4 -13h-149l4 13q20 5 26 18.5t7 34.5v571q0 45 -2 79.5t-13 51.5l90 15v-470l207 274q44 57 65 108t27 88h111z" />
    <glyph glyph-name="uniE03D" unicode="&#xe03d;" horiz-adv-x="1016" 
d="M50 0l4 13q20 5 26 18.5t7 34.5v571q0 45 -2 79.5t-13 51.5l90 15v-741h301q51 0 88.5 2.5t64.5 8t46.5 13t34.5 16.5v-82h-647zM283 152q20 5 26 18.5t7 34.5v432q0 45 -2 79.5t-13 51.5l90 15v-385h463v239q0 45 -2 79.5t-13 51.5l90 15v-717q1 -21 7 -34.5t26 -18.5
l4 -13h-149l4 13q20 5 26 18.5t7 34.5v292h-463v-153q1 -21 7 -34.5t26 -18.5l4 -13h-149z" />
    <glyph glyph-name="uniE222" unicode="&#xe222;" horiz-adv-x="1227" 
d="M625 13q20 5 26 18.5t7 34.5v571q0 45 -2 79.5t-13 51.5q27 5 40 18.5t15 33t-7.5 43.5t-27.5 48q-27 36 -71.5 55t-98.5 19q-44 0 -83.5 -18t-69 -49t-47 -73t-17.5 -89q0 -39 10.5 -74t29.5 -63.5t46 -49t60 -31.5q30 -8 60 -21t56 -30v-85q-18 21 -39 40.5t-46.5 34.5
t-56 24t-67.5 9q-51 0 -91 -20t-67.5 -54t-41.5 -79t-14 -95q0 -49 16 -93.5t46 -79t72.5 -55t95.5 -20.5q38 0 69.5 10t56.5 25.5t43 34.5t29 36l11 -7q-36 -68 -96.5 -103.5t-130.5 -35.5q-62 0 -115.5 20.5t-92.5 58t-61.5 90.5t-22.5 118t22.5 118.5t62.5 91.5t95 58.5
t119 20.5l12 -1h5q-43 32 -69 84.5t-26 122.5q0 61 21.5 107.5t55.5 78t76.5 47.5t83.5 16q49 0 92 -15t74.5 -43.5t50 -69.5t18.5 -94v-361q17 31 41.5 54.5t53 39.5t58.5 24.5t58 8.5q46 0 84.5 -15t66 -44.5t42.5 -74t15 -103.5v-246q1 -21 7 -34.5t26 -18.5l4 -13h-144
l4 13q20 5 26 18.5t7 34.5v273q0 44 -11.5 76t-32 53t-47.5 31t-57 10q-28 0 -57 -11t-56 -32t-50 -52t-38 -72v-276q1 -21 7 -34.5t26 -18.5l4 -13h-144z" />
    <glyph glyph-name="uniE03E" unicode="&#xe03e;" horiz-adv-x="810" 
d="M625 13q20 5 26 18.5t7 34.5v571q0 45 -2 79.5t-13 51.5q27 5 40 18.5t15 33t-7.5 43.5t-27.5 48q-27 36 -71.5 55t-98.5 19q-44 0 -83.5 -18t-69 -49t-47 -73t-17.5 -89q0 -78 39 -138t107 -80q28 -8 60.5 -21.5t55.5 -29.5v-85q-18 21 -39 40.5t-46.5 34.5t-56 24
t-67.5 9q-51 0 -91 -20t-67.5 -54t-41.5 -79t-14 -95q0 -49 16 -93.5t46 -79t72.5 -55t95.5 -20.5q38 0 69.5 10t56.5 25.5t43 34.5t29 36l11 -7q-36 -68 -96.5 -103.5t-130.5 -35.5q-62 0 -115.5 20.5t-92.5 58t-61.5 90.5t-22.5 118t22.5 118.5t62.5 91.5t95 58.5
t119 20.5l12 -1h5q-43 32 -69 84.5t-26 122.5q0 61 21.5 107.5t55.5 78t76.5 47.5t83.5 16q49 0 92 -15t74.5 -43.5t50 -69.5t18.5 -94v-717q1 -21 7 -34.5t26 -18.5l4 -13h-144z" />
    <glyph glyph-name="uniE220" unicode="&#xe220;" horiz-adv-x="1049" 
d="M327 -26q-62 0 -115.5 20.5t-92.5 58t-61.5 90.5t-22.5 118q0 64 22.5 117t62 91.5t93 59.5t116.5 21q16 0 31.5 -1.5t29.5 -3.5q-56 51 -56 138q0 42 14.5 77t40.5 59.5t63.5 38t82.5 13.5q101 0 153.5 -59.5t52.5 -159.5v-144l121 3q29 1 60.5 4t53.5 8l12 -40l-247 1
v-326q0 -42 11.5 -70t30 -45t41 -24t44.5 -7q38 0 78 15.5t83 61.5v-75q-38 -20 -77 -30t-84 -10q-38 0 -73.5 12.5t-63 37.5t-44 63.5t-16.5 90.5v307h-87v20l87 2q0 45 -2 79t-13 51q31 5 45.5 22t12.5 42q-3 35 -17 62.5t-37 47t-55 30t-70 10.5q-83 0 -131.5 -45.5
t-48.5 -122.5q0 -56 25.5 -95.5t70.5 -58.5q27 -9 49 -20t38 -22v-85q-18 21 -39 40.5t-46.5 34.5t-56 24t-67.5 9q-51 0 -91 -20t-67.5 -54t-41.5 -79t-14 -95q0 -49 16 -93.5t46 -79t72.5 -55t95.5 -20.5q38 0 69.5 10t56.5 25.5t43 34.5t29 36l11 -7
q-36 -68 -96.5 -103.5t-130.5 -35.5z" />
    <glyph glyph-name="uniE03F" unicode="&#xe03f;" horiz-adv-x="1250" 
d="M337 14q35 0 70 10.5t65.5 30t54.5 48t37 65.5l10 -4q-13 -43 -39.5 -78.5t-60.5 -60.5t-72.5 -38t-75.5 -13q-61 1 -114 21t-92.5 57.5t-62 90t-22.5 118.5q0 65 24.5 118.5t65 91t93 58t109.5 20.5q8 0 15.5 -0.5t15.5 -1.5q-37 32 -59 81.5t-22 114.5q0 61 22 109.5
t56.5 82.5t77 52t83.5 18q49 0 92 -15t74.5 -43.5t50 -69.5t18.5 -94v-361q17 31 41.5 54.5t53 39.5t58.5 24.5t58 8.5q46 0 84.5 -15t66 -44.5t42.5 -74t15 -103.5v-246q1 -21 7 -34.5t26 -18.5l4 -13h-144l4 13q20 5 26 18.5t7 34.5v273q0 44 -11.5 76t-32 53t-47.5 31
t-57 10q-28 0 -57 -11t-56 -32t-50 -52t-38 -72v-276q1 -21 7 -34.5t26 -18.5l4 -13h-144l4 13q20 5 26 18.5t7 34.5v571q0 45 -2 79.5t-13 51.5q27 5 40 18.5t15 33t-7.5 43.5t-27.5 48q-27 36 -71.5 55t-98.5 19q-44 0 -84 -20t-70 -53.5t-47.5 -77.5t-17.5 -91
q0 -69 32 -125t88 -83q4 -2 17 -6.5t15 -5.5q58 -26 97.5 -78.5t50.5 -124.5q5 -35 -10 -54t-62 -19h-410q2 -44 19.5 -86t47.5 -74.5t69.5 -52.5t85.5 -20zM484 277q14 0 21 5.5t10 13t3 15.5t-1 14q-4 36 -17.5 69.5t-37 59.5t-57.5 41.5t-78 15.5q-50 0 -88.5 -19
t-65.5 -51t-41.5 -74.5t-16.5 -89.5h369z" />
    <glyph glyph-name="uniE040" unicode="&#xe040;" horiz-adv-x="841" 
d="M337 14q35 0 70 10.5t65.5 30t54.5 48t37 65.5l10 -4q-13 -43 -39.5 -78.5t-60.5 -60.5t-72.5 -38t-75.5 -13q-61 1 -114 21t-92.5 57.5t-62 90t-22.5 118.5q0 65 24.5 118.5t65 91t93 58t109.5 20.5q9 0 17.5 -0.5t17.5 -1.5q-35 32 -55 80t-20 110q0 61 21.5 110.5
t55.5 84.5t76.5 54t83.5 19q49 0 92 -15t74.5 -43.5t50 -69.5t18.5 -94v-717q1 -21 7 -34.5t26 -18.5l4 -13h-144l4 13q20 5 26 18.5t7 34.5v571q0 45 -2 79.5t-13 51.5q27 5 40 18.5t15 33t-7.5 43.5t-27.5 48q-27 36 -71.5 55t-98.5 19q-44 0 -83.5 -21t-69 -55.5
t-47 -79.5t-17.5 -92q0 -66 28.5 -119t78.5 -82q71 -22 121 -77.5t62 -138.5q5 -35 -10 -54t-62 -19h-410q2 -44 19.5 -86t47.5 -74.5t69.5 -52.5t85.5 -20zM484 277q14 0 21 5.5t10 13t3 15.5t-1 14q-4 36 -17.5 69.5t-37 59.5t-57.5 41.5t-78 15.5q-50 0 -88.5 -19
t-65.5 -51t-41.5 -74.5t-16.5 -89.5h369z" />
    <glyph glyph-name="uniE041" unicode="&#xe041;" horiz-adv-x="1094" 
d="M337 14q35 0 70 10.5t65.5 30t54.5 48t37 65.5l10 -4q-13 -43 -39.5 -78.5t-60.5 -60.5t-72.5 -38t-75.5 -13q-61 1 -114 21t-92.5 57.5t-62 90t-22.5 118.5q0 65 24.5 118.5t65 91t93 58t109.5 20.5q50 0 93 -15q-20 28 -30.5 62t-10.5 71q0 42 14.5 79.5t40.5 65
t63.5 43.5t82.5 16q101 0 153.5 -59.5t52.5 -159.5v-144l121 3q29 1 60.5 4t53.5 8l12 -40l-247 1v-326q0 -42 11.5 -70t30 -45t41 -24t44.5 -7q38 0 78 15.5t83 61.5v-75q-38 -20 -77 -30t-84 -10q-38 0 -73.5 12.5t-63 37.5t-44 63.5t-16.5 90.5v307h-87v20l87 2
q0 45 -2 79t-13 51q31 5 45.5 22t12.5 42q-3 35 -17 62.5t-37 47t-55 30t-70 10.5q-41 0 -74.5 -14.5t-57 -39.5t-36 -58.5t-12.5 -71.5q0 -48 19 -90t53 -67q49 -29 82 -77t43 -113q5 -35 -10 -54t-62 -19h-410q2 -44 19.5 -86t47.5 -74.5t69.5 -52.5t85.5 -20zM484 277
q14 0 21 5.5t10 13t3 15.5t-1 14q-4 36 -17.5 69.5t-37 59.5t-57.5 41.5t-78 15.5q-50 0 -88.5 -19t-65.5 -51t-41.5 -74.5t-16.5 -89.5h369z" />
    <glyph glyph-name="uniE042" unicode="&#xe042;" horiz-adv-x="1027" 
d="M85 13q20 5 26 18.5t7 34.5v419h-98v20l98 2v26q0 69 17 116.5t44.5 77.5t63 43t72.5 13q32 0 69.5 -6t67.5 -20v-68q-39 35 -71.5 45.5t-62.5 10.5q-27 0 -50.5 -10t-41 -32t-28 -57.5t-10.5 -85.5v-51l110 2q13 0 43 1t64 2.5t65.5 3.5t47.5 4l8 1v-339q0 -43 11.5 -75
t32 -53t47.5 -31.5t57 -10.5q28 0 57 11t56 32t50 52.5t38 71.5v196q0 45 -2 79.5t-13 51.5l85 15v-457q1 -21 7 -34.5t26 -18.5l4 -13h-107v100q-17 -31 -42 -54.5t-53 -39.5t-58 -24t-58 -8q-46 0 -84.5 15t-66 44.5t-42.5 74t-15 103.5v166q0 32 -0.5 59t-5.5 47l-262 1
v-418q1 -21 7 -34.5t26 -18.5l4 -13h-144z" />
    <glyph glyph-name="uniE043" unicode="&#xe043;" horiz-adv-x="898" 
d="M85 13q20 5 26 18.5t7 34.5v419h-98v20l98 2v26q0 69 17 116.5t44.5 77.5t63 43t72.5 13q32 0 69.5 -6t67.5 -20v-68q-39 35 -71.5 45.5t-62.5 10.5q-27 0 -50.5 -10t-41 -32t-28 -57.5t-10.5 -85.5v-51l110 2q47 1 97 4.5t90 7.5l187 -432l101 255q11 27 16.5 53
t7.5 49.5t1.5 42.5t-3.5 32h88l-210 -523h-41l-212 481l-2 2l-230 1v-418q1 -21 7 -34.5t26 -18.5l4 -13h-144z" />
    <glyph glyph-name="uniE044" unicode="&#xe044;" horiz-adv-x="1178" 
d="M85 13q20 5 26 18.5t7 34.5v419h-98v20l98 2v26q0 69 17 116.5t44.5 77.5t63 43t72.5 13q32 0 69.5 -6t67.5 -20v-68q-39 35 -71.5 45.5t-62.5 10.5q-27 0 -50.5 -10t-41 -32t-28 -57.5t-10.5 -85.5v-51l110 2q48 1 96.5 4t92.5 8l162 -432l101 255q7 17 11 39.5t5 44
t0 40.5t-5 29l54 24l162 -432l76 255q20 65 21.5 110.5t-7.5 66.5h96l-185 -523h-41l-141 364l-146 -364h-41l-185 479q0 1 -1 1l-1 2l-1 1l-233 1v-418q1 -21 7 -34.5t26 -18.5l4 -13h-144z" />
    <glyph glyph-name="uniE231" unicode="&#xe231;" horiz-adv-x="904" 
d="M85 13q20 5 26 18.5t7 34.5v419h-98v20l98 2v26q0 69 17 116.5t44.5 77.5t63 43t72.5 13q32 0 69.5 -6t67.5 -20v-68q-39 35 -71.5 45.5t-62.5 10.5q-27 0 -50.5 -10t-41 -32t-28 -57.5t-10.5 -85.5v-51l110 2q48 1 97.5 4t90.5 8l185 -432l101 255q26 64 28 110t-7 67
h96l-202 -503v-1q-18 -49 -42 -97t-57.5 -86.5t-77.5 -62t-102 -23.5q-39 0 -77 15.5t-60 35.5v84q20 -42 57 -69.5t80 -27.5q39 0 72 16t60.5 44.5t50.5 67t41 83.5l-211 482l-2 2l-231 1v-418q1 -21 7 -34.5t26 -18.5l4 -13h-144z" />
    <glyph glyph-name="uniE045" unicode="&#xe045;" horiz-adv-x="1158" 
d="M327 -26q-12 0 -32 -1.5t-43 -5.5t-46.5 -11.5t-42.5 -18.5t-31 -27t-12 -38q0 -16 5 -31t18.5 -27t36 -19t58.5 -7h424q39 0 72 16t60.5 44.5t50.5 67t41 83.5l-211 482q-11 16 -21 21.5t-20 7.5l-4 13h110l185 -432l101 255q26 64 28 110t-7 67h96l-202 -503v-1
q-18 -49 -42 -97t-57.5 -86.5t-77.5 -62t-102 -23.5h-445q-32 0 -59.5 8t-47.5 23.5t-31.5 38t-11.5 51.5q0 25 11 47t30 39.5t45.5 28t57.5 11.5q-38 16 -70 41t-55.5 59t-37 75t-13.5 89q0 65 24.5 118.5t65 91t93 58t109.5 20.5q75 0 138 -33q21 33 33 60t19 56l59 -18
l-80 -117q55 -38 89 -98t34 -138q0 -65 -24 -118t-64.5 -90.5t-93.5 -58t-110 -20.5zM115 261q0 -49 13.5 -94.5t40 -79.5t66.5 -54.5t92 -20.5q53 0 92.5 20.5t66 54.5t40 79.5t13.5 94.5q0 50 -13.5 95t-40 79.5t-66 55t-92.5 20.5q-52 0 -92 -20.5t-66.5 -55t-40 -79.5
t-13.5 -95z" />
    <glyph glyph-name="uniE046" unicode="&#xe046;" horiz-adv-x="663" 
d="M49 13q20 5 26 18.5t7 34.5v309q0 44 -3 84t-14 57h244v35q0 69 17 114t44.5 71t63 36.5t72.5 10.5q32 0 69.5 -6t67.5 -20v-68q-39 35 -71.5 45.5t-62.5 10.5q-27 0 -50.5 -7t-41 -26t-28 -51.5t-10.5 -82.5v-62l110 2q29 1 60.5 4t53.5 8l12 -40l-236 1v-425
q1 -21 7 -34.5t26 -18.5l4 -13h-144l4 13q20 5 26 18.5t7 34.5v426l-157 -1v-425q1 -21 7 -34.5t26 -18.5l4 -13h-144zM65 645q0 40 40 40t40 -40t-40 -40t-40 40z" />
    <glyph glyph-name="uniE23C" unicode="&#xe23c;" horiz-adv-x="698" 
d="M46 13q20 5 26 18.5t7 34.5v326q0 45 -2 79.5t-13 51.5q-41 24 -63 65t-22 95q0 42 15 77t42 59.5t65 38t83 13.5q101 0 153.5 -59.5t52.5 -159.5v-144l121 3q29 1 60.5 4t53.5 8l12 -40l-247 1v-326q0 -42 11.5 -70t30 -45t41 -24t44.5 -7q38 0 78 15.5t83 61.5v-75
q-38 -20 -77 -30t-84 -10q-38 0 -73.5 12.5t-63 37.5t-44 63.5t-16.5 90.5v307h-87v20l87 2q0 45 -2 79t-13 51q31 5 45.5 22t12.5 42q-3 35 -17 62.5t-37 47t-55 30t-70 10.5q-41 0 -75 -12t-58 -34t-37.5 -53t-13.5 -69q0 -60 29.5 -101t80.5 -58l5 -1h34v-457
q1 -21 7 -34.5t26 -18.5l4 -13h-144zM64 645q0 40 40 40t40 -40t-40 -40t-40 40z" />
    <glyph glyph-name="uniE047" unicode="&#xe047;" horiz-adv-x="1297" 
d="M327 -26q-57 0 -109.5 20.5t-93 58t-65 90.5t-24.5 118t24.5 118.5t65 91t93 58t109.5 20.5q13 0 25 -1t24 -3q-34 33 -54.5 82.5t-20.5 116.5q0 66 23.5 115t60 81.5t81.5 48.5t87 16q49 0 93.5 -15t78 -43.5t53.5 -69.5t20 -94v-361q17 31 41.5 54.5t53 39.5t58.5 24.5
t58 8.5q46 0 84.5 -15t66 -44.5t42.5 -74t15 -103.5v-246q1 -21 7 -34.5t26 -18.5l4 -13h-144l4 13q20 5 26 18.5t7 34.5v273q0 44 -11.5 76t-32 53t-47.5 31t-57 10q-28 0 -57 -11t-56 -32t-50 -52t-38 -72v-276q1 -21 7 -34.5t26 -18.5l4 -13h-144l4 13q20 5 26 18.5
t7 34.5v571q0 45 -2 79.5t-13 51.5q27 5 40 18.5t15 33t-7.5 43.5t-27.5 48q-27 36 -76.5 55t-103.5 19q-48 0 -90 -19t-73.5 -52t-50 -77t-18.5 -93q0 -75 31.5 -132t85.5 -84q37 -19 70 -44.5t57.5 -59t39 -74t14.5 -89.5q0 -65 -24 -118t-64.5 -90.5t-93.5 -58
t-110 -20.5zM115 261q0 -49 13.5 -94.5t40 -79.5t66.5 -54.5t92 -20.5q53 0 92.5 20.5t66 54.5t40 79.5t13.5 94.5q0 50 -13.5 95t-40 79.5t-66 55t-92.5 20.5q-52 0 -92 -20.5t-66.5 -55t-40 -79.5t-13.5 -95z" />
    <glyph glyph-name="uniE048" unicode="&#xe048;" horiz-adv-x="880" 
d="M327 -26q-57 0 -109.5 20.5t-93 58t-65 90.5t-24.5 118t24.5 118.5t65 91t93 58t109.5 20.5q13 0 23 -0.5t22 -2.5q-34 33 -52.5 82t-18.5 116q0 66 23.5 115t60 81.5t81.5 48.5t87 16q49 0 93.5 -15t78 -43.5t53.5 -69.5t20 -94v-717q1 -21 7 -34.5t26 -18.5l4 -13h-144
l4 13q20 5 26 18.5t7 34.5v571q0 45 -2 79.5t-13 51.5q27 5 40 18.5t15 33t-7.5 43.5t-27.5 48q-27 36 -76.5 55t-103.5 19q-48 0 -90 -19t-73.5 -52t-50 -77t-18.5 -93q0 -75 31 -133t86 -83q38 -17 71 -42.5t57.5 -59t38.5 -75t14 -90.5q0 -65 -24 -118t-64.5 -90.5
t-93.5 -58t-110 -20.5zM115 261q0 -49 13.5 -94.5t40 -79.5t66.5 -54.5t92 -20.5q53 0 92.5 20.5t66 54.5t40 79.5t13.5 94.5q0 50 -13.5 95t-40 79.5t-66 55t-92.5 20.5q-52 0 -92 -20.5t-66.5 -55t-40 -79.5t-13.5 -95z" />
    <glyph glyph-name="uni1029" unicode="&#x1029;" horiz-adv-x="1663" 
d="M327 -26q-57 0 -109.5 20.5t-93 58t-65 90.5t-24.5 118t24.5 118.5t65 91t93 58t109.5 20.5q69 0 130 -29q-16 38 -13 83t23.5 83.5t58 64t91.5 25.5q46 0 80 -15t56.5 -41.5t33.5 -61.5t11 -75v-159q17 30 40.5 53.5t50 39.5t54.5 24t54 8q66 0 115.5 -34.5t70.5 -103.5
q15 35 37.5 60.5t49 43t55 26t55.5 8.5q44 0 80.5 -15t63 -44.5t42 -74t15.5 -103.5l2 -246q1 -21 6.5 -34.5t26.5 -18.5l4 -13h-144l3 13q21 5 27 18.5t7 34.5l-2 273q0 44 -11.5 76t-30.5 53t-44 31t-54 10q-30 0 -59 -16t-53 -42.5t-40.5 -59.5t-21.5 -67l2 -258
q1 -21 6.5 -34.5t26.5 -18.5l4 -13h-144l4 13q21 5 27 18.5t6 34.5l-2 273q0 44 -11.5 76t-30 53t-43.5 31t-54 10q-26 0 -53.5 -11t-53 -32.5t-47.5 -52.5t-36 -71v-276q1 -21 7 -34.5t26 -18.5l4 -13h-144l4 13q20 5 26 18.5t7 34.5v311q0 43 -1.5 77t-12.5 52
q24 6 39 18.5t17 30.5q6 44 -1.5 81t-27 63.5t-51 41.5t-73.5 15q-52 0 -86 -28t-50 -68t-13 -84t25 -76q57 -37 91.5 -98t34.5 -141q0 -65 -24 -118t-64.5 -90.5t-93.5 -58t-110 -20.5zM115 261q0 -49 13.5 -94.5t40 -79.5t66.5 -54.5t92 -20.5q53 0 92.5 20.5t66 54.5
t40 79.5t13.5 94.5q0 50 -13.5 95t-40 79.5t-66 55t-92.5 20.5q-52 0 -92 -20.5t-66.5 -55t-40 -79.5t-13.5 -95z" />
    <glyph glyph-name="uniE049" unicode="&#xe049;" horiz-adv-x="1297" 
d="M695 13q20 5 26 18.5t7 34.5v311q0 35 -1 64.5t-7 49.5q-2 5 -3 8.5t-3 6.5q24 6 39 18.5t17 30.5q6 44 -1.5 81t-27 63.5t-51 41.5t-73.5 15q-52 0 -86 -28t-50 -68t-13 -84t25 -76q57 -37 91.5 -98t34.5 -141q0 -65 -24 -118t-64.5 -90.5t-93.5 -58t-110 -20.5
t-109.5 20.5t-93 58t-65 90.5t-24.5 118t24.5 118.5t65 91t93 58t109.5 20.5q69 0 130 -29q-16 38 -13 83t23.5 83.5t58 64t91.5 25.5q46 0 80 -15t56.5 -41.5t33.5 -61.5t11 -75v-159q17 31 42 54.5t53.5 39t58.5 23.5t57 8q46 0 84.5 -15t66 -44.5t42.5 -74t15 -103.5
v-246q1 -21 7 -34.5t26 -18.5l4 -13h-144l4 13q20 5 26 18.5t7 34.5v273q0 44 -11.5 76t-32 53t-47.5 31t-57 10q-28 0 -57 -11t-56 -32t-50 -52t-38 -72v-276q1 -21 7 -34.5t26 -18.5l4 -13h-144zM115 261q0 -49 13.5 -94.5t40 -79.5t66.5 -54.5t92 -20.5q53 0 92.5 20.5
t66 54.5t40 79.5t13.5 94.5q0 50 -13.5 95t-40 79.5t-66 55t-92.5 20.5q-52 0 -92 -20.5t-66.5 -55t-40 -79.5t-13.5 -95z" />
    <glyph glyph-name="uniE04A" unicode="&#xe04a;" horiz-adv-x="1111" 
d="M327 -26q-57 0 -109.5 20.5t-93 58t-65 90.5t-24.5 118t24.5 118.5t65 91t93 58t109.5 20.5q53 0 105 -19q-46 61 -46 143q0 42 16 78.5t44 63t67 41.5t84 15q101 0 153.5 -59.5t52.5 -159.5v-144l121 3q29 1 60.5 4t53.5 8l12 -40l-247 1v-326q0 -42 11.5 -70t30 -45
t41 -24t44.5 -7q38 0 78 15.5t83 61.5v-75q-38 -20 -77 -30t-84 -10q-38 0 -73.5 12.5t-63 37.5t-44 63.5t-16.5 90.5v307h-87v20l87 2q0 45 -2 79t-13 51q31 5 45.5 22t12.5 42q-3 35 -17 62.5t-37 47t-55 30t-70 10.5q-41 0 -76 -13.5t-60.5 -37.5t-39.5 -56.5t-14 -70.5
q0 -51 24.5 -97t60.5 -76q57 -37 92 -98t35 -141q0 -65 -24 -118t-64.5 -90.5t-93.5 -58t-110 -20.5zM115 261q0 -49 13.5 -94.5t40 -79.5t66.5 -54.5t92 -20.5q53 0 92.5 20.5t66 54.5t40 79.5t13.5 94.5q0 50 -13.5 95t-40 79.5t-66 55t-92.5 20.5q-52 0 -92 -20.5
t-66.5 -55t-40 -79.5t-13.5 -95z" />
    <glyph glyph-name="uniE04B" unicode="&#xe04b;" horiz-adv-x="970" 
d="M327 -26q-57 0 -109.5 20.5t-93 58t-65 90.5t-24.5 118t24.5 118.5t65 91t93 58t109.5 20.5q43 0 83 -11.5t75 -33.5q35 22 75 33.5t83 11.5q57 0 110 -20.5t93.5 -58t64.5 -91t24 -118.5t-24 -118t-64.5 -90.5t-93.5 -58t-110 -20.5q-87 0 -158 44q-71 -44 -158 -44z
M115 261q0 -49 13.5 -94.5t40 -79.5t66.5 -54.5t92 -20.5q68 0 118 36q-43 38 -68.5 92t-25.5 121q0 68 25.5 122t68.5 92q-50 36 -118 36q-52 0 -92 -20.5t-66.5 -55t-40 -79.5t-13.5 -95zM525 48q50 -36 118 -36q53 0 92.5 20.5t66 54.5t40 79.5t13.5 94.5q0 50 -13.5 95
t-40 79.5t-66 55t-92.5 20.5q-68 0 -118 -36q43 -38 68.5 -92t25.5 -122q0 -67 -25.5 -121t-68.5 -92zM431 261q0 -50 13.5 -95t40.5 -80q27 35 40.5 80t13.5 95t-13.5 95t-40.5 80q-27 -35 -40.5 -80t-13.5 -95z" />
    <glyph glyph-name="uniE04C" unicode="&#xe04c;" horiz-adv-x="979" 
d="M439 107q0 39 -29.5 60.5t-73.5 36t-96 26.5t-96 31.5t-73.5 51t-29.5 85.5q0 30 12 56.5t39 46t71 31t107 11.5h355v21q0 69 17 112t44.5 66.5t63 32t72.5 8.5q32 0 69.5 -6t67.5 -20v-68q-39 35 -71.5 45.5t-62.5 10.5q-27 0 -50.5 -5t-41 -21.5t-28 -47t-10.5 -80.5
v-47h111q29 0 60.5 3.5t51.5 9.5l14 -46h-237v-445q1 -21 7 -34.5t26 -18.5l4 -13h-144l4 13q20 5 26 18.5t7 34.5v445h-355q-164 0 -164 -94q0 -36 29.5 -57t74 -36t96 -28t96 -32.5t74 -50.5t29.5 -81q0 -73 -61.5 -115.5t-181.5 -42.5q-23 0 -53.5 4t-62 10.5t-61 16
t-50.5 20.5v75q21 -21 50 -37t60 -27.5t61.5 -17.5t55.5 -6q94 0 135.5 26t41.5 69z" />
    <glyph glyph-name="uniE25B" unicode="&#xe25b;" horiz-adv-x="1180" 
d="M439 107q0 39 -29.5 60.5t-73.5 36t-96 26.5t-96 31.5t-73.5 51t-29.5 85.5q0 30 12 57.5t39 48t71 33t107 12.5q9 0 18 -0.5t19 -1.5q-44 32 -71 84.5t-27 124.5q0 61 21.5 107.5t55.5 78t76.5 47.5t83.5 16q49 0 92 -15t74.5 -43.5t50 -69.5t18.5 -94v-361
q17 31 41.5 54.5t53 39.5t58.5 24.5t58 8.5q46 0 84.5 -15t66 -44.5t42.5 -74t15 -103.5v-246q1 -21 7 -34.5t26 -18.5l4 -13h-144l4 13q20 5 26 18.5t7 34.5v273q0 44 -11.5 76t-32 53t-47.5 31t-57 10q-28 0 -57 -11t-56 -32t-50 -52t-38 -72v-276q1 -21 7 -34.5t26 -18.5
l4 -13h-144l4 13q20 5 26 18.5t7 34.5v571q0 45 -2 79.5t-13 51.5q27 5 40 18.5t15 33t-7.5 43.5t-27.5 48q-27 36 -71.5 55t-98.5 19q-44 0 -83.5 -18t-69 -49t-47 -73t-17.5 -89q0 -39 10.5 -75t30.5 -65.5t48 -50t63 -29.5q5 -1 16 -4.5t23.5 -7t24 -7.5t15.5 -6v-72
q-29 29 -78.5 50.5t-111.5 21.5q-164 0 -164 -94q0 -36 29.5 -57t74 -36t96 -28t96 -32.5t74 -50.5t29.5 -81q0 -73 -61.5 -115.5t-181.5 -42.5q-23 0 -53.5 4t-62 10.5t-61 16t-50.5 20.5v75q21 -21 50 -37t60 -27.5t61.5 -17.5t55.5 -6q94 0 135.5 26t41.5 69z" />
    <glyph glyph-name="uniE04D" unicode="&#xe04d;" horiz-adv-x="763" 
d="M439 107q0 39 -29.5 60.5t-73.5 36t-96 26.5t-96 31.5t-73.5 51t-29.5 85.5q0 30 12 57.5t39 48t71 33t107 12.5q9 0 18 -0.5t19 -1.5q-44 32 -71 84.5t-27 124.5q0 61 21.5 107.5t55.5 78t76.5 47.5t83.5 16q49 0 92 -15t74.5 -43.5t50 -69.5t18.5 -94v-717
q1 -21 7 -34.5t26 -18.5l4 -13h-144l4 13q20 5 26 18.5t7 34.5v571q0 45 -2 79.5t-13 51.5q27 5 40 18.5t15 33t-7.5 43.5t-27.5 48q-27 36 -71.5 55t-98.5 19q-44 0 -83.5 -18t-69 -49t-47 -73t-17.5 -89q0 -39 11.5 -75t32 -65t48 -49.5t60.5 -30.5q5 -1 16 -4.5t23.5 -7
t24 -7.5t15.5 -6v-72q-29 29 -78.5 50.5t-111.5 21.5q-164 0 -164 -94q0 -36 29.5 -57t74 -36t96 -28t96 -32.5t74 -50.5t29.5 -81q0 -73 -61.5 -115.5t-181.5 -42.5q-23 0 -53.5 4t-62 10.5t-61 16t-50.5 20.5v75q21 -21 50 -37t60 -27.5t61.5 -17.5t55.5 -6q94 0 135.5 26
t41.5 69z" />
    <glyph glyph-name="uniE04E" unicode="&#xe04e;" horiz-adv-x="1168" 
d="M841 -26q-57 0 -109.5 20.5t-93 58t-65 90.5t-24.5 118q0 89 43.5 154.5t110.5 100.5q60 49 60 141q0 41 -13 74.5t-37.5 57.5t-58.5 37t-76 13t-76 -13t-58 -37t-37 -57.5t-13 -74.5q0 -53 27.5 -99.5t65.5 -75.5l-27 -43q-29 29 -78.5 50.5t-111.5 21.5
q-164 0 -164 -94q0 -36 29.5 -57t74 -36t96 -28t96 -32.5t74 -50.5t29.5 -81q0 -73 -61.5 -115.5t-181.5 -42.5q-23 0 -53.5 4t-62 10.5t-61 16t-50.5 20.5v75q21 -21 50 -37t60 -27.5t61.5 -17.5t55.5 -6q94 0 135.5 26t41.5 69q0 39 -29.5 60.5t-73.5 36t-96 26.5
t-96 31.5t-73.5 51t-29.5 85.5q0 30 12 57.5t39 48t71 33t107 12.5q37 0 76 -7t71 -16q-43 52 -43 131q0 95 53.5 148.5t150.5 53.5t151 -53.5t54 -148.5q0 -74 -35 -123q45 15 93 15q57 0 110 -20.5t93.5 -58t64.5 -91t24 -118.5t-24 -118t-64.5 -90.5t-93.5 -58
t-110 -20.5zM629 261q0 -49 13.5 -94.5t40 -79.5t66.5 -54.5t92 -20.5q53 0 92.5 20.5t66 54.5t40 79.5t13.5 94.5q0 50 -13.5 95t-40 79.5t-66 55t-92.5 20.5q-52 0 -92 -20.5t-66.5 -55t-40 -79.5t-13.5 -95z" />
    <glyph glyph-name="uniE04F" unicode="&#xe04f;" horiz-adv-x="948" 
d="M439 107q0 39 -29.5 60.5t-73.5 36t-96 26.5t-96 31.5t-73.5 51t-29.5 85.5q0 30 12 57.5t39 48t71 33t107 12.5q61 0 117.5 -15t107.5 -39q26 24 72 39t116 15q26 0 54 -3.5t54 -9.5t47.5 -12.5t34.5 -12.5v-72q-29 29 -78.5 50.5t-111.5 21.5q-164 0 -164 -94
q0 -36 29.5 -57t74 -36t96 -28t96 -32.5t74 -50.5t29.5 -81q0 -73 -61.5 -115.5t-181.5 -42.5q-22 0 -52 3.5t-61 10.5t-60 16t-50 19q-31 -23 -78.5 -36t-111.5 -13q-23 0 -53.5 4t-62 10.5t-61 16t-50.5 20.5v75q21 -21 50 -37t60 -27.5t61.5 -17.5t55.5 -6q94 0 135.5 26
t41.5 69zM852 107q0 39 -29.5 60.5t-73.5 36t-96 26.5t-96 31.5t-73.5 51t-29.5 85.5q0 22 6 41q-29 29 -78.5 50.5t-111.5 21.5q-164 0 -164 -94q0 -36 29.5 -57t74 -36t96 -28t96 -32.5t74 -50.5t29.5 -81q0 -35 -15 -64q21 -13 45.5 -23.5t49 -17.5t48 -11t42.5 -4
q94 0 135.5 26t41.5 69z" />
    <glyph glyph-name="s_t" unicode="&#xfb06;" horiz-adv-x="1002" 
d="M439 107q0 39 -29.5 60.5t-73.5 36t-96 26.5t-96 31.5t-73.5 51t-29.5 85.5q0 30 12 57.5t39 48t71 33t107 12.5q18 0 37.5 -2t38.5 -5q-28 25 -43.5 61t-15.5 80q0 42 14.5 77t40.5 59.5t63.5 38t82.5 13.5q101 0 153.5 -59.5t52.5 -159.5v-144l121 3q29 1 60.5 4
t53.5 8l12 -40l-247 1v-326q0 -42 11.5 -70t30 -45t41 -24t44.5 -7q38 0 78 15.5t83 61.5v-75q-38 -20 -77 -30t-84 -10q-38 0 -73.5 12.5t-63 37.5t-44 63.5t-16.5 90.5v307h-87v20l87 2q0 45 -2 79t-13 51q31 5 45.5 22t12.5 42q-3 35 -17 62.5t-37 47t-55 30t-70 10.5
q-83 0 -131.5 -45.5t-48.5 -122.5q0 -54 24.5 -93.5t68.5 -59.5q37 -9 59 -19v-72q-29 29 -78.5 50.5t-111.5 21.5q-164 0 -164 -94q0 -36 29.5 -57t74 -36t96 -28t96 -32.5t74 -50.5t29.5 -81q0 -73 -61.5 -115.5t-181.5 -42.5q-23 0 -53.5 4t-62 10.5t-61 16t-50.5 20.5
v75q21 -21 50 -37t60 -27.5t61.5 -17.5t55.5 -6q94 0 135.5 26t41.5 69z" />
    <glyph glyph-name="uniE050" unicode="&#xe050;" horiz-adv-x="1158" 
d="M439 107q0 39 -29.5 60.5t-73.5 36t-96 26.5t-96 31.5t-73.5 51t-29.5 85.5q0 30 12 57.5t39 48t71 33t107 12.5q36 0 79 -8q-21 31 -22.5 72.5t15.5 79t53 64t89 26.5q46 0 78.5 -16t53.5 -43.5t31 -64t10 -76.5v-399q0 -43 11.5 -75t32 -53t47.5 -31.5t57 -10.5
q28 0 57 11t56 32t50 52.5t38 71.5v196q0 45 -2 79.5t-13 51.5l85 15v-457q1 -21 7 -34.5t26 -18.5l4 -13h-107v100q-17 -31 -42 -54.5t-53 -39.5t-58 -24t-58 -8q-46 0 -84.5 15t-66 44.5t-42.5 74t-15 103.5v177q0 39 -2 70t-12 48q24 6 39 18.5t17 30.5q6 44 -0.5 82
t-24.5 66t-48 44t-72 16q-34 0 -59.5 -12.5t-42.5 -32.5t-25.5 -45.5t-9 -50.5t8 -48t24.5 -38q26 -5 46.5 -12t33.5 -13v-72q-29 29 -78.5 50.5t-111.5 21.5q-164 0 -164 -94q0 -36 29.5 -57t74 -36t96 -28t96 -32.5t74 -50.5t29.5 -81q0 -73 -61.5 -115.5t-181.5 -42.5
q-23 0 -53.5 4t-62 10.5t-61 16t-50.5 20.5v75q21 -21 50 -37t60 -27.5t61.5 -17.5t55.5 -6q94 0 135.5 26t41.5 69z" />
    <glyph glyph-name="uniE051" unicode="&#xe051;" horiz-adv-x="969" 
d="M439 107q0 39 -29.5 60.5t-73.5 36t-96 26.5t-96 31.5t-73.5 51t-29.5 85.5q0 30 12 57.5t39 48t71 33t107 12.5q60 0 110 -2.5t90.5 -14.5t70.5 -36t48 -67l147 -338l101 255q26 64 28 110t-7 67h96l-202 -503v-1q-18 -49 -42 -97t-57.5 -86.5t-77.5 -62t-102 -23.5
q-39 0 -77 15.5t-60 35.5v84q20 -42 57 -69.5t80 -27.5q39 0 72 16t60.5 44.5t50.5 67t41 83.5l-178 406q-17 40 -40.5 61.5t-54 31.5t-69 11.5t-85.5 1.5q-164 0 -164 -94q0 -36 29.5 -57t74 -36t96 -28t96 -32.5t74 -50.5t29.5 -81q0 -73 -61.5 -115.5t-181.5 -42.5
q-23 0 -53.5 4t-62 10.5t-61 16t-50.5 20.5v75q21 -21 50 -37t60 -27.5t61.5 -17.5t55.5 -6q94 0 135.5 26t41.5 69z" />
    <glyph glyph-name="uniE052" unicode="&#xe052;" horiz-adv-x="879" 
d="M162 652v-144h363v25q0 69 17 116.5t44.5 77.5t63 43t72.5 13q32 0 69.5 -6t67.5 -20v-68q-39 35 -71.5 45.5t-62.5 10.5q-27 0 -50.5 -10t-41 -32t-28 -57.5t-10.5 -85.5v-51l110 2q29 1 60.5 4t53.5 8l12 -40l-236 1v-418q1 -21 7 -34.5t26 -18.5l4 -13h-144l4 13
q20 5 26 18.5t7 34.5v417l-363 1v-326q0 -42 11.5 -70t30 -45t41 -24t44.5 -7q38 0 78 15.5t83 61.5v-75q-38 -20 -77 -30t-84 -10q-38 0 -73.5 12.5t-63 37.5t-44 63.5t-16.5 90.5v307h-87v20l87 2q0 45 -2 79t-13 51z" />
    <glyph glyph-name="uniE23B" unicode="&#xe23b;" horiz-adv-x="674" 
d="M515 645q0 40 40 40t40 -40t-40 -40t-40 40zM162 652v-144l304 3q65 0 126 12v-457q1 -21 7 -34.5t26 -18.5l4 -13h-144l4 13q20 5 26 18.5t7 34.5v309q0 33 -0.5 60.5t-5.5 47.5l-354 1v-326q0 -42 11.5 -70t30 -45t41 -24t44.5 -7q38 0 78 15.5t83 61.5v-75
q-38 -20 -77 -30t-84 -10q-38 0 -73.5 12.5t-63 37.5t-44 63.5t-16.5 90.5v307h-87v20l87 2q0 45 -2 79t-13 51z" />
    <glyph glyph-name="uniE053" unicode="&#xe053;" horiz-adv-x="626" 
d="M500 645q0 40 40 40t40 -40t-40 -40t-40 40zM162 652v-144l294 3q32 0 63 3.5t62 8.5v-569q0 -52 -16.5 -90.5t-44 -63.5t-63 -37.5t-73.5 -12.5q-45 0 -84 10t-77 30v75q22 -23 42.5 -38t40.5 -23.5t39.5 -12t38.5 -3.5q22 0 44.5 7t41 24t30 45t11.5 70v443
q0 32 -0.5 59t-5.5 47l-343 1v-326q0 -42 11.5 -70t30 -45t41 -24t44.5 -7q38 0 78 15.5t83 61.5v-75q-38 -20 -77 -30t-84 -10q-38 0 -73.5 12.5t-63 37.5t-44 63.5t-16.5 90.5v307h-87v20l87 2q0 45 -2 79t-13 51z" />
    <glyph glyph-name="uniE054" unicode="&#xe054;" horiz-adv-x="1125" 
d="M162 652v-144l310 3q18 0 37.5 1.5t37.5 3.5l39 7v-96q15 25 36.5 47.5t49 39t61.5 26t75 9.5q60 0 111.5 -22t89.5 -60.5t59.5 -91t21.5 -114.5q0 -61 -21.5 -114t-59.5 -91.5t-89.5 -60.5t-111.5 -22q-41 0 -75 9.5t-61.5 26t-49 39t-36.5 47.5v-279q1 -21 7 -34.5
t26 -18.5l4 -13h-144l4 13q20 5 26 18.5t7 34.5v561q0 32 -0.5 59t-5.5 47l-348 1v-326q0 -42 11.5 -70t30 -45t41 -24t44.5 -7q38 0 78 15.5t83 61.5v-75q-38 -20 -77 -30t-84 -10q-38 0 -73.5 12.5t-63 37.5t-44 63.5t-16.5 90.5v307h-87v20l87 2q0 45 -2 79t-13 51z
M808 11q54 0 92.5 21t63 56t35.5 80t11 93t-11 93t-35.5 80t-63 56t-92.5 21q-51 0 -92 -21t-70 -56t-44.5 -79.5t-15.5 -92.5t15.5 -93t44.5 -80t70 -56.5t92 -21.5z" />
    <glyph glyph-name="uniE055" unicode="&#xe055;" horiz-adv-x="926" 
d="M162 652v-144l121 3q29 1 60.5 4t53.5 8l12 -40l-247 1v-326q0 -42 11.5 -70t30 -45t41 -24t44.5 -7h364q94 0 135.5 26t41.5 69q0 39 -29.5 60.5t-73.5 36t-96 26.5t-96 31.5t-73.5 51t-29.5 85.5q0 30 12 57.5t39 48t71 33t107 12.5q26 0 54 -3.5t54 -9.5t47.5 -12.5
t34.5 -12.5v-72q-29 29 -78.5 50.5t-111.5 21.5q-164 0 -164 -94q0 -36 29.5 -57t74 -36t96 -28t96 -32.5t74 -50.5t29.5 -81q0 -72 -58.5 -115t-173.5 -43h-375q-38 0 -73.5 12.5t-63 37.5t-44 63.5t-16.5 90.5v307h-87v20l87 2q0 45 -2 79t-13 51z" />
    <glyph glyph-name="uniE225" unicode="&#xe225;" horiz-adv-x="856" 
d="M77 637q9 2 20.5 3.5t21 6t16 13t6.5 23.5q0 42 14.5 77t40.5 59.5t63.5 38t82.5 13.5q101 0 153.5 -59.5t52.5 -159.5v-144l121 3q29 1 60.5 4t53.5 8l12 -40l-247 1v-326q0 -42 11.5 -70t30 -45t41 -24t44.5 -7q38 0 78 15.5t83 61.5v-75q-38 -20 -77 -30t-84 -10
q-38 0 -73.5 12.5t-63 37.5t-44 63.5t-16.5 90.5v305l-316 1v-326q0 -42 11.5 -70t30 -45t41 -24t44.5 -7q38 0 78 15.5t83 61.5v-75q-38 -20 -77 -30t-84 -10q-38 0 -73.5 12.5t-63 37.5t-44 63.5t-16.5 90.5v307h-87v20l87 2q0 45 -2 79t-13 51zM478 508q0 45 -2 78.5
t-13 50.5q31 5 45.5 22t12.5 42q-3 35 -17 62.5t-37 47t-55 30t-70 10.5q-83 0 -131.5 -45.5t-48.5 -122.5v-175h316z" />
    <glyph glyph-name="uniE056" unicode="&#xe056;" horiz-adv-x="1059" 
d="M874 13q20 5 26 18.5t7 34.5v309q0 33 -0.5 60.5t-5.5 47.5l-353 1v-326q0 -42 11.5 -70t30 -45t41 -24t44.5 -7q38 0 78 15.5t83 61.5v-75q-38 -20 -77 -30t-84 -10q-38 0 -73.5 12.5t-63 37.5t-44 63.5t-16.5 90.5v305l-316 1v-326q0 -42 11.5 -70t30 -45t41 -24
t44.5 -7q38 0 78 15.5t83 61.5v-75q-38 -20 -77 -30t-84 -10q-38 0 -73.5 12.5t-63 37.5t-44 63.5t-16.5 90.5v307h-87v20l87 2q0 45 -2 79t-13 51q9 2 20.5 3.5t21 6t16 13t6.5 23.5q0 42 14.5 77t40.5 59.5t63.5 38t82.5 13.5q101 0 153.5 -59.5t52.5 -159.5v-144l315 3
q29 0 60.5 3.5t53.5 8.5v-457q1 -21 7 -34.5t26 -18.5l4 -13h-144zM478 508q0 45 -2 78.5t-13 50.5q31 5 45.5 22t12.5 42q-3 35 -17 62.5t-37 47t-55 30t-70 10.5q-83 0 -131.5 -45.5t-48.5 -122.5v-175h316zM890 645q0 40 40 40t40 -40t-40 -40t-40 40z" />
    <glyph glyph-name="uniE057" unicode="&#xe057;" horiz-adv-x="1062" 
d="M49 13q20 5 26 18.5t7 34.5v309v44.5t-1.5 43t-4.5 36t-9 24.5h231q0 45 -2 71t-13 43q9 2 20.5 3.5t21 6t16 13t6.5 23.5q0 42 14.5 77t40.5 59.5t63.5 38t82.5 13.5q101 0 153.5 -59.5t52.5 -159.5v-129l121 3q29 1 60.5 4t53.5 8l12 -40l-247 1v-341q0 -42 11.5 -70
t30 -45t41 -24t44.5 -7q38 0 78 15.5t83 61.5v-75q-38 -20 -77 -30t-84 -10q-38 0 -73.5 12.5t-63 37.5t-44 63.5t-16.5 90.5v320l-316 1v-341q0 -42 11.5 -70t30 -45t41 -24t44.5 -7q38 0 78 15.5t83 61.5v-75q-38 -20 -77 -30t-84 -10q-38 0 -73.5 12.5t-63 37.5t-44 63.5
t-16.5 90.5v324h-146v-436q1 -21 7 -34.5t26 -18.5l4 -13h-144zM684 523q0 45 -2 71t-13 43q31 5 45.5 22t12.5 42q-3 35 -17 62.5t-37 47t-55 30t-70 10.5q-83 0 -131.5 -45.5t-48.5 -122.5v-160h316zM65 645q0 40 40 40t40 -40t-40 -40t-40 40z" />
    <glyph glyph-name="uniE058" unicode="&#xe058;" horiz-adv-x="1078" 
d="M162 652v-144l325 3q14 0 23 0.5t17.5 2t19.5 4t30 5.5v-339q0 -43 11.5 -75t32 -53t47.5 -31.5t57 -10.5q28 0 57 11t56 32t50 52.5t38 71.5v196q0 45 -2 79.5t-13 51.5l85 15v-457q1 -21 7 -34.5t26 -18.5l4 -13h-107v100q-17 -31 -42 -54.5t-53 -39.5t-58 -24t-58 -8
q-46 0 -84.5 15t-66 44.5t-42.5 74t-15 103.5v166q0 32 -0.5 59t-5.5 47l-339 1v-326q0 -42 11.5 -70t30 -45t41 -24t44.5 -7q38 0 78 15.5t83 61.5v-75q-38 -20 -77 -30t-84 -10q-38 0 -73.5 12.5t-63 37.5t-44 63.5t-16.5 90.5v307h-87v20l87 2q0 45 -2 79t-13 51z" />
    <glyph glyph-name="uniE239" unicode="&#xe239;" horiz-adv-x="895" 
d="M162 652v-144l201 3q29 1 60.5 4t53.5 8l185 -432l101 255q26 64 28 110t-7 67h96l-202 -503v-1q-18 -49 -42 -97t-57.5 -86.5t-77.5 -62t-102 -23.5q-39 0 -77 15.5t-60 35.5v84q20 -42 57 -69.5t80 -27.5q39 0 72 16t60.5 44.5t50.5 67t41 83.5l-211 482l-2 2l-248 1
v-326q0 -42 11.5 -70t30 -45t41 -24t44.5 -7q38 0 78 15.5t83 61.5v-75q-38 -20 -77 -30t-84 -10q-38 0 -73.5 12.5t-63 37.5t-44 63.5t-16.5 90.5v307h-87v20l87 2q0 45 -2 79t-13 51z" />
    <glyph glyph-name="uniE059" unicode="&#xe059;" horiz-adv-x="1048" 
d="M49 13q20 5 26 18.5t7 34.5v309v44.5t-1.5 43t-4.5 36t-9 24.5h84l214 2v26q0 69 17 114t44.5 71t63 36.5t72.5 10.5q32 0 69.5 -6t67.5 -20v-68q-39 35 -71.5 45.5t-62.5 10.5q-27 0 -50.5 -7t-41 -26t-28 -51.5t-10.5 -82.5v-51l259 1v23q0 69 17 114t44.5 71t63 36.5
t72.5 10.5q32 0 69.5 -6t67.5 -20v-68q-39 35 -71.5 45.5t-62.5 10.5q-27 0 -50.5 -7t-41 -26t-28 -51.5t-10.5 -82.5v-51l110 2q29 1 60.5 4t53.5 8l12 -40l-236 1v-436q1 -21 7 -34.5t26 -18.5l4 -13h-144l4 13q20 5 26 18.5t7 34.5v437l-259 -1v-436q1 -21 7 -34.5
t26 -18.5l4 -13h-144l4 13q20 5 26 18.5t7 34.5v437h-213v-437q1 -21 7 -34.5t26 -18.5l4 -13h-144zM71 645q0 40 40 40t40 -40t-40 -40t-40 40z" />
    <glyph glyph-name="slash" unicode="/" horiz-adv-x="466" 
d="M411 896h45l-401 -1026h-45z" />
    <glyph glyph-name="numbersign" unicode="#" horiz-adv-x="910" 
d="M201 212h-183v40h199l102 271h-206v40h222l83 220h55l-83 -220h281l83 220h55l-83 -220h166v-40h-182l-102 -271h189v-40h-205l-80 -212h-55l80 212h-281l-80 -212h-55zM553 252l102 271h-281l-102 -271h281z" />
    <glyph glyph-name="percent" unicode="%" horiz-adv-x="670" 
d="M176 0q9 24 27.5 76.5t43 122t53 150t56 160t52.5 151t44 123.5h40l-276 -783h-40zM171 741q26 0 50.5 -11.5t43.5 -33t30.5 -52t11.5 -68.5t-11.5 -68.5t-30.5 -52t-43.5 -33t-50.5 -11.5t-50.5 11.5t-43.5 33t-30.5 52t-11.5 68.5t11.5 68.5t30.5 52t43.5 33t50.5 11.5
zM171 710q-15 0 -27.5 -11t-21 -29.5t-13 -43t-4.5 -51.5q0 -26 4.5 -50t13 -42.5t21 -29.5t27.5 -11t27.5 11t21 29.5t13 42.5t4.5 50q0 27 -4.5 51.5t-13 43t-21 29.5t-27.5 11zM499 366q26 0 50.5 -11.5t43.5 -33t30.5 -52t11.5 -68.5t-11.5 -68.5t-30.5 -52t-43.5 -33
t-50.5 -11.5t-50.5 11.5t-43.5 33t-30.5 52t-11.5 68.5t11.5 68.5t30.5 52t43.5 33t50.5 11.5zM499 335q-15 0 -27.5 -11t-21 -29.5t-13 -43t-4.5 -51.5q0 -26 4.5 -50t13 -42.5t21 -29.5t27.5 -11t27.5 11t21 29.5t13 42.5t4.5 50q0 27 -4.5 51.5t-13 43t-21 29.5t-27.5 11
z" />
    <glyph glyph-name="bar" unicode="|" horiz-adv-x="155" 
d="M50 653q0 35 -5 66t-12 54l72 10v-783h-55v653z" />
    <glyph glyph-name="dollar" unicode="$" horiz-adv-x="628" 
d="M521 200q0 41 -20.5 68t-54.5 45t-77 30t-87.5 24t-87.5 26.5t-77 37.5t-54.5 57.5t-20.5 85.5q0 38 13 72.5t42 61.5t76 44.5t114 20.5v97h55v-97q29 -2 58.5 -7t56 -12t49 -15t36.5 -15v-83q-34 39 -93.5 67.5t-133.5 28.5q-49 0 -87 -10.5t-63 -29t-38 -43.5t-13 -55
q0 -55 35.5 -86.5t89.5 -51t116 -35t116 -39t89.5 -62.5t35.5 -106q0 -91 -64 -146t-190 -63v-97h-55v97q-28 2 -62.5 7.5t-69 14.5t-66 21t-54.5 25v83q25 -27 59.5 -48.5t71.5 -36t73.5 -22t66.5 -7.5q56 0 96.5 13.5t67 35t39 49t12.5 55.5z" />
    <glyph glyph-name="at" unicode="@" horiz-adv-x="956" 
d="M35 299q0 101 32.5 184t91.5 142t142 91.5t184 32.5t182 -29.5t137.5 -83.5t86.5 -129t30 -166q0 -61 -11 -116.5t-32 -98t-52.5 -68t-73.5 -25.5q-48 0 -78.5 31t-37.5 82q-16 -22 -37.5 -40.5t-46.5 -31.5t-52.5 -20t-54.5 -7q-87 0 -130 39t-43 110q0 78 51.5 121
t160.5 43h150v26q0 82 -36.5 121t-94.5 39q-66 0 -113.5 -27.5t-85.5 -73.5v80q13 10 33 20.5t45 19t54.5 14t61.5 5.5q45 0 82 -14.5t64 -43t42 -70t15 -96.5v-199q1 -38 14.5 -63t36.5 -25q26 0 43.5 23.5t27.5 61.5t14 86t4 96q0 78 -22 145.5t-66 117t-111 78t-157 28.5
t-159 -30.5t-116 -85t-71 -129.5t-24 -165t24 -165.5t71 -129.5t116 -84.5t159 -30.5q57 0 111 18.5t98 41.5l24 -45q-101 -55 -233 -55q-101 0 -184 32.5t-142 91.5t-91.5 142t-32.5 184zM634 322l-149 1q-69 1 -103 -32t-34 -93q0 -54 26 -83.5t81 -29.5q25 0 52 8.5
t51 23.5t44 36.5t32 46.5v122z" />
    <glyph glyph-name="parenleft" unicode="(" horiz-adv-x="318" 
d="M35 383q0 100 22 180.5t59 142t84 103.5t97 64l11 -27q-86 -55 -137 -173t-51 -290q0 -174 50.5 -293.5t137.5 -174.5l-11 -27q-46 19 -93 60.5t-84.5 104.5t-61 146t-23.5 184z" />
    <glyph glyph-name="parenright" unicode=")" horiz-adv-x="318" 
d="M283 383q0 -101 -23.5 -184t-61 -146t-84 -104.5t-93.5 -60.5l-11 27q87 55 137.5 174.5t50.5 293.5q0 172 -51 290t-137 173l11 27q50 -22 97 -64t84 -103.5t59 -142t22 -180.5z" />
    <glyph glyph-name="grave" unicode="`" horiz-adv-x="281" 
d="M202 638l-29 -12l-93 127l43 30z" />
    <glyph glyph-name="acute" unicode="&#xb4;" horiz-adv-x="281" 
d="M80 638l79 145l43 -30l-93 -127z" />
    <glyph glyph-name="ring" unicode="&#x2da;" horiz-adv-x="285" 
d="M143 721q31 0 51.5 -20.5t20.5 -51.5q0 -32 -20 -52.5t-52 -20.5t-52.5 20.5t-20.5 52.5q0 31 20.5 51.5t52.5 20.5zM144 693q-20 0 -32.5 -12t-12.5 -31q0 -20 12.5 -32.5t32.5 -12.5t31.5 12.5t11.5 32.5q0 19 -12 31t-31 12z" />
    <glyph glyph-name="cedilla" unicode="&#xb8;" horiz-adv-x="216" 
d="M82 -63l24 63h31l-21 -43q29 -3 47 -22t18 -48q0 -11 -5 -23t-15.5 -21.5t-26.5 -15.5t-37 -6q-43 0 -62 28l27 29q3 -17 10.5 -25t24.5 -8q18 0 27.5 9.5t9.5 32.5t-7.5 36.5t-28.5 13.5h-16z" />
    <glyph glyph-name="tilde" unicode="&#x2dc;" horiz-adv-x="447" 
d="M90 458q15 29 34 40t41 11q17 0 34 -4.5t33.5 -9.5t32.5 -9.5t30 -4.5q26 0 41 19l13 -6q-16 -30 -36 -41t-42 -11q-17 0 -34.5 4.5t-34.5 10t-33 10t-30 4.5q-11 0 -20 -4t-16 -14z" />
    <glyph glyph-name="dieresis" unicode="&#xa8;" horiz-adv-x="395" 
d="M100 715q0 18 11 29t30 11q17 0 28 -11t11 -29t-11 -29t-28 -11q-19 0 -30 11t-11 29zM215 715q0 18 11 29t30 11q17 0 28 -11t11 -29t-11 -29t-28 -11q-19 0 -30 11t-11 29z" />
    <glyph glyph-name="Agrave" unicode="&#xc0;" horiz-adv-x="775" 
d="M373 860l-93 127l43 30l79 -145zM696 65q11 -26 24.5 -38t32.5 -14l4 -13h-172l4 13q20 4 26 17.5t-2 33.5l-75 185h-364l-17 -39q-29 -66 -34 -120.5t0 -89.5h-105l305 690q18 41 37 65.5t48 32.5zM522 289l-156 396l-174 -396h330z" />
    <glyph glyph-name="Aacute" unicode="&#xc1;" horiz-adv-x="775" 
d="M438 1019l43 -30l-93 -127l-29 12zM696 65q11 -26 24.5 -38t32.5 -14l4 -13h-172l4 13q20 4 26 17.5t-2 33.5l-75 185h-364l-17 -39q-29 -66 -34 -120.5t0 -89.5h-105l305 690q18 41 37 65.5t48 32.5zM522 289l-156 396l-174 -396h330z" />
    <glyph glyph-name="circumflex" unicode="&#x2c6;" horiz-adv-x="287" 
d="M237 571l-22 -13l-71 67l-72 -67l-22 13l85 103h16z" />
    <glyph glyph-name="Acircumflex" unicode="&#xc2;" horiz-adv-x="775" 
d="M459 874l-71 67l-72 -67l-22 13l85 103h16l86 -103zM696 65q11 -26 24.5 -38t32.5 -14l4 -13h-172l4 13q20 4 26 17.5t-2 33.5l-75 185h-364l-17 -39q-29 -66 -34 -120.5t0 -89.5h-105l305 690q18 41 37 65.5t48 32.5zM522 289l-156 396l-174 -396h330z" />
    <glyph glyph-name="Atilde" unicode="&#xc3;" horiz-adv-x="775" 
d="M254 903q15 29 34 40t41 11q17 0 34 -4.5t33.5 -9.5t32.5 -9.5t30 -4.5q26 0 41 19l13 -6q-16 -30 -36 -41t-42 -11q-17 0 -34.5 4.5t-34.5 10t-33 10t-30 4.5q-11 0 -20 -4t-16 -14zM696 65q11 -26 24.5 -38t32.5 -14l4 -13h-172l4 13q20 4 26 17.5t-2 33.5l-75 185
h-364l-17 -39q-29 -66 -34 -120.5t0 -89.5h-105l305 690q18 41 37 65.5t48 32.5zM522 289l-156 396l-174 -396h330z" />
    <glyph glyph-name="Adieresis" unicode="&#xc4;" horiz-adv-x="775" 
d="M280 926q0 18 11 29t30 11q17 0 28 -11t11 -29t-11 -29t-28 -11q-19 0 -30 11t-11 29zM395 926q0 18 11 29t30 11q17 0 28 -11t11 -29t-11 -29t-28 -11q-19 0 -30 11t-11 29zM696 65q11 -26 24.5 -38t32.5 -14l4 -13h-172l4 13q20 4 26 17.5t-2 33.5l-75 185h-364
l-17 -39q-29 -66 -34 -120.5t0 -89.5h-105l305 690q18 41 37 65.5t48 32.5zM522 289l-156 396l-174 -396h330z" />
    <glyph glyph-name="Aring" unicode="&#xc5;" horiz-adv-x="775" 
d="M388 923q31 0 51.5 -20.5t20.5 -51.5q0 -26 -13 -44.5t-36 -25.5l285 -716q11 -26 24.5 -38t32.5 -14l4 -13h-172l4 13q20 4 26 17.5t-2 33.5l-75 185h-364l-17 -39q-29 -66 -34 -120.5t0 -89.5h-105l305 690q14 32 28.5 54t33.5 34q-31 1 -50.5 21t-19.5 52
q0 31 20.5 51.5t52.5 20.5zM389 895q-20 0 -32.5 -12t-12.5 -31q0 -20 12.5 -32.5t32.5 -12.5t31.5 12.5t11.5 32.5q0 19 -12 31t-31 12zM522 289l-156 396l-174 -396h330z" />
    <glyph glyph-name="AE" unicode="&#xc6;" horiz-adv-x="963" 
d="M454 13q20 5 26 18.5t7 34.5v183h-313l-17 -39q-29 -66 -34 -120.5t0 -89.5h-105l305 690q18 41 39 67t53 26h513v-82q-15 9 -34.5 16.5t-46.5 13t-64.5 8t-88.5 2.5h-132v-335l317 15v-59l-317 9v-329h132q51 0 88.5 2.5t64.5 8t46.5 13t34.5 16.5v-83l-478 1zM487 289
v428q0 14 -3 24h-61q-20 0 -31.5 -11.5t-20.5 -31.5l-179 -409h295z" />
    <glyph glyph-name="Ccedilla" unicode="&#xc7;" horiz-adv-x="779" 
d="M424 -22h-16l-10 -21q29 -3 47 -22t18 -48q0 -11 -5 -23t-15.5 -21.5t-26.5 -15.5t-37 -6q-43 0 -62 28l27 29q3 -17 10.5 -25t24.5 -8q18 0 27.5 9.5t9.5 32.5t-7.5 36.5t-28.5 13.5h-16l17 43q-72 8 -135 42t-110 88.5t-74 126.5t-27 156q0 91 29 167t81 131t124 85.5
t157 30.5q92 0 164 -28.5t126 -79.5l-1 -118q-14 29 -36.5 62t-57 60.5t-82.5 45.5t-113 18q-74 0 -131 -32.5t-96 -85t-59 -119.5t-20 -137t22.5 -137t64 -119.5t99.5 -85t128 -32.5q59 0 108.5 17.5t88.5 43.5t66 56.5t40 56.5l17 -9q-18 -37 -47.5 -73.5t-70.5 -66
t-93.5 -48t-118.5 -18.5z" />
    <glyph glyph-name="Eth" unicode="&#xd0;" horiz-adv-x="802" 
d="M767 389q0 -81 -29.5 -152t-81.5 -123.5t-123.5 -83t-155.5 -30.5h-312l4 13q20 5 26 18.5t7 34.5v307h-87v40h87v306q-1 21 -7 34.5t-26 18.5l-4 13h312q84 0 155.5 -31.5t123.5 -85.5t81.5 -126t29.5 -153zM372 40q75 0 132.5 28.5t97 76.5t60 111.5t20.5 132.5
t-20.5 133.5t-60 114t-97 79t-132.5 29.5h-195v-332h166v-40h-166v-333h195z" />
    <glyph glyph-name="Dcroat" unicode="&#x110;" horiz-adv-x="787" 
d="M767 389q0 -81 -29.5 -152t-81.5 -123.5t-123.5 -83t-155.5 -30.5h-312l4 13q20 5 26 18.5t7 34.5v307h-87v40h87v306q-1 21 -7 34.5t-26 18.5l-4 13h312q84 0 155.5 -31.5t123.5 -85.5t81.5 -126t29.5 -153zM372 40q75 0 132.5 28.5t97 76.5t60 111.5t20.5 132.5
t-20.5 133.5t-60 114t-97 79t-132.5 29.5h-195v-332h166v-40h-166v-333h195z" />
    <glyph glyph-name="Egrave" unicode="&#xc8;" horiz-adv-x="563" 
d="M305 862l-93 127l43 30l79 -145zM54 13q20 5 26 18.5t7 34.5v651q-1 21 -7 34.5t-26 18.5l-4 13h478v-82q-15 9 -34.5 16.5t-46.5 13t-64.5 8t-88.5 2.5h-132v-335l317 15v-59l-317 9v-329h132q51 0 88.5 2.5t64.5 8t46.5 13t34.5 16.5v-83l-478 1z" />
    <glyph glyph-name="Eacute" unicode="&#xc9;" horiz-adv-x="563" 
d="M322 1016l43 -30l-93 -127l-29 12zM54 13q20 5 26 18.5t7 34.5v651q-1 21 -7 34.5t-26 18.5l-4 13h478v-82q-15 9 -34.5 16.5t-46.5 13t-64.5 8t-88.5 2.5h-132v-335l317 15v-59l-317 9v-329h132q51 0 88.5 2.5t64.5 8t46.5 13t34.5 16.5v-83l-478 1z" />
    <glyph glyph-name="Ecircumflex" unicode="&#xca;" horiz-adv-x="563" 
d="M365 861l-71 67l-72 -67l-22 13l85 103h16l86 -103zM54 13q20 5 26 18.5t7 34.5v651q-1 21 -7 34.5t-26 18.5l-4 13h478v-82q-15 9 -34.5 16.5t-46.5 13t-64.5 8t-88.5 2.5h-132v-335l317 15v-59l-317 9v-329h132q51 0 88.5 2.5t64.5 8t46.5 13t34.5 16.5v-83l-478 1z
" />
    <glyph glyph-name="Edieresis" unicode="&#xcb;" horiz-adv-x="563" 
d="M194 926q0 18 11 29t30 11q17 0 28 -11t11 -29t-11 -29t-28 -11q-19 0 -30 11t-11 29zM309 926q0 18 11 29t30 11q17 0 28 -11t11 -29t-11 -29t-28 -11q-19 0 -30 11t-11 29zM54 13q20 5 26 18.5t7 34.5v651q-1 21 -7 34.5t-26 18.5l-4 13h478v-82q-15 9 -34.5 16.5
t-46.5 13t-64.5 8t-88.5 2.5h-132v-335l317 15v-59l-317 9v-329h132q51 0 88.5 2.5t64.5 8t46.5 13t34.5 16.5v-83l-478 1z" />
    <glyph glyph-name="Igrave" unicode="&#xcc;" horiz-adv-x="249" 
d="M108 854l-93 127l43 30l79 -145zM54 13q20 5 26 18.5t7 34.5v571q0 45 -2 79.5t-13 51.5l90 15v-717q1 -21 7 -34.5t26 -18.5l4 -13h-149z" />
    <glyph glyph-name="Iacute" unicode="&#xcd;" horiz-adv-x="249" 
d="M171 1010l43 -30l-93 -127l-29 12zM54 13q20 5 26 18.5t7 34.5v571q0 45 -2 79.5t-13 51.5l90 15v-717q1 -21 7 -34.5t26 -18.5l4 -13h-149z" />
    <glyph glyph-name="Icircumflex" unicode="&#xce;" horiz-adv-x="249" 
d="M190 849l-71 67l-72 -67l-22 13l85 103h16l86 -103zM54 13q20 5 26 18.5t7 34.5v571q0 45 -2 79.5t-13 51.5l90 15v-717q1 -21 7 -34.5t26 -18.5l4 -13h-149z" />
    <glyph glyph-name="Idieresis" unicode="&#xcf;" horiz-adv-x="249" 
d="M27 905q0 18 11 29t30 11q17 0 28 -11t11 -29t-11 -29t-28 -11q-19 0 -30 11t-11 29zM142 905q0 18 11 29t30 11q17 0 28 -11t11 -29t-11 -29t-28 -11q-19 0 -30 11t-11 29zM54 13q20 5 26 18.5t7 34.5v571q0 45 -2 79.5t-13 51.5l90 15v-717q1 -21 7 -34.5t26 -18.5
l4 -13h-149z" />
    <glyph glyph-name="Lslash" unicode="&#x141;" horiz-adv-x="565" 
d="M109 0l4 13q20 5 26 18.5t7 34.5v196l-82 -103h-54l136 169v309q0 45 -2 79.5t-13 51.5l90 15v-362l82 102h50l-132 -166v-315h95q51 0 88.5 2.5t64.5 8t46.5 13t34.5 16.5v-82h-441z" />
    <glyph glyph-name="Ntilde" unicode="&#xd1;" horiz-adv-x="632" 
d="M195 882q15 29 34 40t41 11q17 0 34 -4.5t33.5 -9.5t32.5 -9.5t30 -4.5q26 0 41 19l13 -6q-16 -30 -36 -41t-42 -11q-17 0 -34.5 4.5t-34.5 10t-33 10t-30 4.5q-11 0 -20 -4t-16 -14zM513 113v604q-1 21 -7 34.5t-26 18.5l-4 13h114l-4 -13q-20 -5 -26 -18.5t-7 -34.5
v-717q-17 1 -32 5.5t-29.5 16t-29.5 31t-32 49.5l-311 573v-610q1 -21 7 -34.5t26 -18.5l4 -13h-114l4 13q20 5 26 18.5t7 34.5v652q-1 21 -7 34.5t-26 18.5l-4 13h109z" />
    <glyph glyph-name="Ograve" unicode="&#xd2;" 
d="M414 869l-93 127l43 30l79 -145zM424 -22q-75 0 -145 31t-124 86t-87 131t-33 167t33 167t87 131t124 85.5t145 30.5q86 0 158 -33t123.5 -89.5t80 -132t28.5 -159.5t-28.5 -159.5t-80 -132.5t-123.5 -90t-158 -33zM120 393q0 -70 20 -137t58.5 -119.5t95 -85
t130.5 -32.5t131 32.5t95.5 85t58.5 119.5t20 137t-20 137t-58.5 119.5t-95.5 85t-131 32.5t-130.5 -32.5t-95 -85t-58.5 -119.5t-20 -137z" />
    <glyph glyph-name="Oacute" unicode="&#xd3;" 
d="M453 1025l43 -30l-93 -127l-29 12zM424 -22q-75 0 -145 31t-124 86t-87 131t-33 167t33 167t87 131t124 85.5t145 30.5q86 0 158 -33t123.5 -89.5t80 -132t28.5 -159.5t-28.5 -159.5t-80 -132.5t-123.5 -90t-158 -33zM120 393q0 -70 20 -137t58.5 -119.5t95 -85
t130.5 -32.5t131 32.5t95.5 85t58.5 119.5t20 137t-20 137t-58.5 119.5t-95.5 85t-131 32.5t-130.5 -32.5t-95 -85t-58.5 -119.5t-20 -137z" />
    <glyph glyph-name="Ocircumflex" unicode="&#xd4;" 
d="M495 867l-71 67l-72 -67l-22 13l85 103h16l86 -103zM424 -22q-75 0 -145 31t-124 86t-87 131t-33 167t33 167t87 131t124 85.5t145 30.5q86 0 158 -33t123.5 -89.5t80 -132t28.5 -159.5t-28.5 -159.5t-80 -132.5t-123.5 -90t-158 -33zM120 393q0 -70 20 -137t58.5 -119.5
t95 -85t130.5 -32.5t131 32.5t95.5 85t58.5 119.5t20 137t-20 137t-58.5 119.5t-95.5 85t-131 32.5t-130.5 -32.5t-95 -85t-58.5 -119.5t-20 -137z" />
    <glyph glyph-name="Otilde" unicode="&#xd5;" 
d="M303 890q15 29 34 40t41 11q17 0 34 -4.5t33.5 -9.5t32.5 -9.5t30 -4.5q26 0 41 19l13 -6q-16 -30 -36 -41t-42 -11q-17 0 -34.5 4.5t-34.5 10t-33 10t-30 4.5q-11 0 -20 -4t-16 -14zM424 -22q-75 0 -145 31t-124 86t-87 131t-33 167t33 167t87 131t124 85.5t145 30.5
q86 0 158 -33t123.5 -89.5t80 -132t28.5 -159.5t-28.5 -159.5t-80 -132.5t-123.5 -90t-158 -33zM120 393q0 -70 20 -137t58.5 -119.5t95 -85t130.5 -32.5t131 32.5t95.5 85t58.5 119.5t20 137t-20 137t-58.5 119.5t-95.5 85t-131 32.5t-130.5 -32.5t-95 -85t-58.5 -119.5
t-20 -137z" />
    <glyph glyph-name="Odieresis" unicode="&#xd6;" 
d="M322 924q0 18 11 29t30 11q17 0 28 -11t11 -29t-11 -29t-28 -11q-19 0 -30 11t-11 29zM437 924q0 18 11 29t30 11q17 0 28 -11t11 -29t-11 -29t-28 -11q-19 0 -30 11t-11 29zM424 -22q-75 0 -145 31t-124 86t-87 131t-33 167t33 167t87 131t124 85.5t145 30.5
q86 0 158 -33t123.5 -89.5t80 -132t28.5 -159.5t-28.5 -159.5t-80 -132.5t-123.5 -90t-158 -33zM120 393q0 -70 20 -137t58.5 -119.5t95 -85t130.5 -32.5t131 32.5t95.5 85t58.5 119.5t20 137t-20 137t-58.5 119.5t-95.5 85t-131 32.5t-130.5 -32.5t-95 -85t-58.5 -119.5
t-20 -137z" />
    <glyph glyph-name="Oslash" unicode="&#xd8;" 
d="M424 -22q-65 0 -126 23l-51 -131h-45l58 148q-48 24 -89 61.5t-71.5 85.5t-47.5 105.5t-17 122.5q0 91 33 167t87 131t124 85.5t145 30.5q36 0 70 -6.5t65 -17.5l44 113h45l-51 -129q50 -25 90 -63.5t68.5 -87.5t43.5 -105.5t15 -117.5q0 -84 -28.5 -159.5t-80 -132.5
t-123.5 -90t-158 -33zM120 393q0 -49 10 -98t30 -92.5t49.5 -80t67.5 -61.5l265 680q-54 26 -118 26q-74 0 -130.5 -32.5t-95 -85t-58.5 -119.5t-20 -137zM314 41q25 -11 52 -16.5t58 -5.5q74 0 131 32.5t95.5 85t58.5 119.5t20 137q0 48 -9.5 96t-28.5 91t-47 79t-65 61z
" />
    <glyph glyph-name="OE" unicode="&#x152;" horiz-adv-x="1215" 
d="M424 -22q-75 0 -145 31t-124 86t-87 131t-33 167t33 167t87 131t124 85.5t145 30.5q102 0 182.5 -45t132.5 -120v75q-1 21 -7 34.5t-26 18.5l-4 13h478v-82q-15 9 -34.5 16.5t-46.5 13t-64.5 8t-88.5 2.5h-132v-335l317 15v-59l-317 9v-329h132q51 0 88.5 2.5t64.5 8
t46.5 13t34.5 16.5v-83l-478 1l4 13q20 5 26 18.5t7 34.5v78q-52 -75 -132.5 -120.5t-182.5 -45.5zM120 393q0 -70 20 -137t58.5 -119.5t95 -85t130.5 -32.5t131 32.5t95.5 85t58.5 119.5t20 137t-20 137t-58.5 119.5t-95.5 85t-131 32.5t-130.5 -32.5t-95 -85t-58.5 -119.5
t-20 -137z" />
    <glyph glyph-name="Ugrave" unicode="&#xd9;" horiz-adv-x="660" 
d="M314 855l-93 127l43 30l79 -145zM533 717q-1 21 -7 34.5t-26 18.5l-4 13h114l-4 -13q-20 -5 -26 -18.5t-7 -34.5v-418q0 -64 -11.5 -120.5t-39.5 -98t-74.5 -65.5t-116.5 -23q-73 1 -123.5 23.5t-82 62.5t-46 96.5t-14.5 124.5v338q0 45 -2 79.5t-13 51.5l90 15v-484
q0 -74 12.5 -125t36.5 -82.5t59.5 -45.5t82.5 -14q49 0 86.5 14.5t63 47t39 83t13.5 122.5v418z" />
    <glyph glyph-name="Uacute" unicode="&#xda;" horiz-adv-x="660" 
d="M367 1014l43 -30l-93 -127l-29 12zM533 717q-1 21 -7 34.5t-26 18.5l-4 13h114l-4 -13q-20 -5 -26 -18.5t-7 -34.5v-418q0 -64 -11.5 -120.5t-39.5 -98t-74.5 -65.5t-116.5 -23q-73 1 -123.5 23.5t-82 62.5t-46 96.5t-14.5 124.5v338q0 45 -2 79.5t-13 51.5l90 15v-484
q0 -74 12.5 -125t36.5 -82.5t59.5 -45.5t82.5 -14q49 0 86.5 14.5t63 47t39 83t13.5 122.5v418z" />
    <glyph glyph-name="Ucircumflex" unicode="&#xdb;" horiz-adv-x="660" 
d="M397 860l-71 67l-72 -67l-22 13l85 103h16l86 -103zM533 717q-1 21 -7 34.5t-26 18.5l-4 13h114l-4 -13q-20 -5 -26 -18.5t-7 -34.5v-418q0 -64 -11.5 -120.5t-39.5 -98t-74.5 -65.5t-116.5 -23q-73 1 -123.5 23.5t-82 62.5t-46 96.5t-14.5 124.5v338q0 45 -2 79.5
t-13 51.5l90 15v-484q0 -74 12.5 -125t36.5 -82.5t59.5 -45.5t82.5 -14q49 0 86.5 14.5t63 47t39 83t13.5 122.5v418z" />
    <glyph glyph-name="Udieresis" unicode="&#xdc;" horiz-adv-x="660" 
d="M223 922q0 18 11 29t30 11q17 0 28 -11t11 -29t-11 -29t-28 -11q-19 0 -30 11t-11 29zM338 922q0 18 11 29t30 11q17 0 28 -11t11 -29t-11 -29t-28 -11q-19 0 -30 11t-11 29zM533 717q-1 21 -7 34.5t-26 18.5l-4 13h114l-4 -13q-20 -5 -26 -18.5t-7 -34.5v-418
q0 -64 -11.5 -120.5t-39.5 -98t-74.5 -65.5t-116.5 -23q-73 1 -123.5 23.5t-82 62.5t-46 96.5t-14.5 124.5v338q0 45 -2 79.5t-13 51.5l90 15v-484q0 -74 12.5 -125t36.5 -82.5t59.5 -45.5t82.5 -14q49 0 86.5 14.5t63 47t39 83t13.5 122.5v418z" />
    <glyph glyph-name="Ydieresis" unicode="&#x178;" horiz-adv-x="659" 
d="M250 926q0 18 11 29t30 11q17 0 28 -11t11 -29t-11 -29t-28 -11q-19 0 -30 11t-11 29zM365 926q0 18 11 29t30 11q17 0 28 -11t11 -29t-11 -29t-28 -11q-19 0 -30 11t-11 29zM389 316v-250q1 -21 7 -34.5t26 -18.5l4 -13h-149l4 13q20 5 26 18.5t7 34.5v250l-228 401
q-16 28 -33 35.5t-32 11.5l-6 19h130l225 -411l121 221q35 65 47.5 109.5t10.5 80.5h95z" />
    <glyph glyph-name="Yacute" unicode="&#xdd;" horiz-adv-x="659" 
d="M401 1011l43 -30l-93 -127l-29 12zM389 316v-250q1 -21 7 -34.5t26 -18.5l4 -13h-149l4 13q20 5 26 18.5t7 34.5v250l-228 401q-16 28 -33 35.5t-32 11.5l-6 19h130l225 -411l121 221q35 65 47.5 109.5t10.5 80.5h95z" />
    <glyph glyph-name="agrave" unicode="&#xe0;" horiz-adv-x="556" 
d="M257 626l-93 127l43 30l79 -145zM272 509q-69 0 -119 -29t-89 -78v85q14 11 34.5 22t47 20t57.5 15t64 6q47 0 85.5 -15.5t67 -45.5t44 -74.5t15.5 -102.5v-246q1 -33 7 -45.5t26 -7.5l4 -13q-16 -9 -35 -9q-27 0 -49 21t-23 70q-16 -23 -39 -42t-49 -32.5t-54 -21
t-56 -7.5q-91 0 -136 41.5t-45 116.5q0 83 54 129t168 46h157v27q0 87 -38 128.5t-99 41.5zM409 271l-156 1q-72 1 -107.5 -34t-35.5 -99q0 -57 27.5 -88.5t84.5 -31.5q26 0 53.5 9t53 25t46.5 38t34 49v131z" />
    <glyph glyph-name="aacute" unicode="&#xe1;" horiz-adv-x="556" 
d="M289 783l43 -30l-93 -127l-29 12zM272 509q-69 0 -119 -29t-89 -78v85q14 11 34.5 22t47 20t57.5 15t64 6q47 0 85.5 -15.5t67 -45.5t44 -74.5t15.5 -102.5v-246q1 -33 7 -45.5t26 -7.5l4 -13q-16 -9 -35 -9q-27 0 -49 21t-23 70q-16 -23 -39 -42t-49 -32.5t-54 -21
t-56 -7.5q-91 0 -136 41.5t-45 116.5q0 83 54 129t168 46h157v27q0 87 -38 128.5t-99 41.5zM409 271l-156 1q-72 1 -107.5 -34t-35.5 -99q0 -57 27.5 -88.5t84.5 -31.5q26 0 53.5 9t53 25t46.5 38t34 49v131z" />
    <glyph glyph-name="acircumflex" unicode="&#xe2;" horiz-adv-x="556" 
d="M333 623l-71 67l-72 -67l-22 13l85 103h16l86 -103zM272 509q-69 0 -119 -29t-89 -78v85q14 11 34.5 22t47 20t57.5 15t64 6q47 0 85.5 -15.5t67 -45.5t44 -74.5t15.5 -102.5v-246q1 -33 7 -45.5t26 -7.5l4 -13q-16 -9 -35 -9q-27 0 -49 21t-23 70q-16 -23 -39 -42
t-49 -32.5t-54 -21t-56 -7.5q-91 0 -136 41.5t-45 116.5q0 83 54 129t168 46h157v27q0 87 -38 128.5t-99 41.5zM409 271l-156 1q-72 1 -107.5 -34t-35.5 -99q0 -57 27.5 -88.5t84.5 -31.5q26 0 53.5 9t53 25t46.5 38t34 49v131z" />
    <glyph glyph-name="atilde" unicode="&#xe3;" horiz-adv-x="556" 
d="M126 649q15 29 34 40t41 11q17 0 34 -4.5t33.5 -9.5t32.5 -9.5t30 -4.5q26 0 41 19l13 -6q-16 -30 -36 -41t-42 -11q-17 0 -34.5 4.5t-34.5 10t-33 10t-30 4.5q-11 0 -20 -4t-16 -14zM272 509q-69 0 -119 -29t-89 -78v85q14 11 34.5 22t47 20t57.5 15t64 6
q47 0 85.5 -15.5t67 -45.5t44 -74.5t15.5 -102.5v-246q1 -33 7 -45.5t26 -7.5l4 -13q-16 -9 -35 -9q-27 0 -49 21t-23 70q-16 -23 -39 -42t-49 -32.5t-54 -21t-56 -7.5q-91 0 -136 41.5t-45 116.5q0 83 54 129t168 46h157v27q0 87 -38 128.5t-99 41.5zM409 271l-156 1
q-72 1 -107.5 -34t-35.5 -99q0 -57 27.5 -88.5t84.5 -31.5q26 0 53.5 9t53 25t46.5 38t34 49v131z" />
    <glyph glyph-name="adieresis" unicode="&#xe4;" horiz-adv-x="556" 
d="M154 658q0 18 11 29t30 11q17 0 28 -11t11 -29t-11 -29t-28 -11q-19 0 -30 11t-11 29zM269 658q0 18 11 29t30 11q17 0 28 -11t11 -29t-11 -29t-28 -11q-19 0 -30 11t-11 29zM272 509q-69 0 -119 -29t-89 -78v85q14 11 34.5 22t47 20t57.5 15t64 6q47 0 85.5 -15.5
t67 -45.5t44 -74.5t15.5 -102.5v-246q1 -33 7 -45.5t26 -7.5l4 -13q-16 -9 -35 -9q-27 0 -49 21t-23 70q-16 -23 -39 -42t-49 -32.5t-54 -21t-56 -7.5q-91 0 -136 41.5t-45 116.5q0 83 54 129t168 46h157v27q0 87 -38 128.5t-99 41.5zM409 271l-156 1q-72 1 -107.5 -34
t-35.5 -99q0 -57 27.5 -88.5t84.5 -31.5q26 0 53.5 9t53 25t46.5 38t34 49v131z" />
    <glyph glyph-name="aring" unicode="&#xe5;" horiz-adv-x="556" 
d="M272 509q-69 0 -119 -29t-89 -78v85q23 18 63.5 35.5t92.5 24.5q-32 19 -32 62q0 31 20.5 51.5t52.5 20.5q31 0 51.5 -20.5t20.5 -51.5q0 -20 -8.5 -35.5t-22.5 -25.5q79 -11 128 -70.5t49 -165.5v-246q1 -33 7 -45.5t26 -7.5l4 -13q-16 -9 -35 -9q-27 0 -49 21t-23 70
q-16 -23 -39 -42t-49 -32.5t-54 -21t-56 -7.5q-91 0 -136 41.5t-45 116.5q0 83 54 129t168 46h157v27q0 87 -38 128.5t-99 41.5zM262 653q-20 0 -32.5 -12t-12.5 -31q0 -20 12.5 -32.5t32.5 -12.5t31.5 12.5t11.5 32.5q0 19 -12 31t-31 12zM409 271l-156 1q-72 1 -107.5 -34
t-35.5 -99q0 -57 27.5 -88.5t84.5 -31.5q26 0 53.5 9t53 25t46.5 38t34 49v131z" />
    <glyph glyph-name="ae" unicode="&#xe6;" horiz-adv-x="1008" 
d="M272 509q-69 0 -119 -29t-89 -78v85q14 11 34.5 22t47 20t57.5 15t64 6q66 0 116.5 -31t75.5 -92q40 63 106 97.5t141 34.5q50 0 95.5 -16t81.5 -45.5t60.5 -72t32.5 -95.5q5 -35 -10 -54t-62 -19h-410q2 -44 19.5 -86t47.5 -74.5t69.5 -52.5t85.5 -20q35 0 70 10.5
t65.5 30t54.5 48t37 65.5l10 -4q-13 -43 -39.5 -78.5t-60.5 -60.5t-72.5 -38t-75.5 -13q-69 1 -127.5 26t-98.5 73v-17q1 -33 7 -45.5t26 -7.5l4 -13q-16 -9 -35 -9q-27 0 -49 21t-23 70q-16 -23 -39 -42t-49 -32.5t-54 -21t-56 -7.5q-91 0 -136 41.5t-45 116.5q0 83 54 129
t168 46h157v27q0 87 -38 128.5t-99 41.5zM863 287q14 0 21 5.5t10 13t3 15.5t-1 14q-4 36 -17.5 69.5t-37 59.5t-57.5 41.5t-78 15.5q-50 0 -88.5 -19t-65.5 -51t-41.5 -74.5t-16.5 -89.5h369zM409 271l-156 1q-72 1 -107.5 -34t-35.5 -99q0 -57 27.5 -88.5t84.5 -31.5
q26 0 53.5 9t53 25t46.5 38t34 49v131z" />
    <glyph glyph-name="ccedilla" unicode="&#xe7;" horiz-adv-x="584" 
d="M327 -26h-17l-15 -31q29 -3 47 -22t18 -48q0 -11 -5 -23t-15.5 -21.5t-26.5 -15.5t-37 -6q-43 0 -62 28l27 29q3 -17 10.5 -25t24.5 -8q18 0 27.5 9.5t9.5 32.5t-7.5 36.5t-28.5 13.5h-16l21 54q-53 7 -98.5 30.5t-78.5 60t-51.5 85.5t-18.5 108q0 64 22.5 117t62 91.5
t93 59.5t116.5 21q33 0 64.5 -6t58.5 -15t49 -20t37 -22v-85q-18 21 -39 40.5t-46.5 34.5t-56 24t-67.5 9q-51 0 -91 -20t-67.5 -54t-41.5 -79t-14 -95q0 -49 16 -93.5t46 -79t72.5 -55t95.5 -20.5q38 0 69.5 10t56.5 25.5t43 34.5t29 36l11 -7q-36 -68 -96.5 -103.5
t-130.5 -35.5z" />
    <glyph glyph-name="dcroat" unicode="&#x111;" horiz-adv-x="749" 
d="M30 259q0 62 21.5 115t59.5 92t89.5 61t111.5 22q41 0 75 -9.5t61.5 -26t49 -39t36.5 -47.5v200h-151v50h151q-1 31 -4 54t-11 37l85 15v-106h107v-50h-107v-561q1 -21 7 -34.5t26 -18.5l4 -13h-144l4 13q20 5 26 18.5t7 34.5v29q-15 -25 -36.5 -47.5t-49 -39t-61.5 -26
t-75 -9.5q-60 0 -111.5 21.5t-89.5 60t-59.5 91t-21.5 113.5zM110 259q0 -47 11 -91.5t35.5 -79.5t63 -56t92.5 -21q51 0 92 21.5t70 56.5t44.5 80t15.5 93t-15.5 92.5t-44.5 79.5t-70 56t-92 21q-55 0 -93.5 -21.5t-62.5 -56.5t-35 -80.5t-11 -93.5z" />
    <glyph glyph-name="egrave" unicode="&#xe8;" horiz-adv-x="629" 
d="M306 626l-93 127l43 30l79 -145zM337 14q35 0 70 10.5t65.5 30t54.5 48t37 65.5l10 -4q-13 -43 -39.5 -78.5t-60.5 -60.5t-72.5 -38t-75.5 -13q-61 1 -114 21t-92.5 57.5t-62 90t-22.5 118.5q0 65 24.5 118.5t65 91t93 58t109.5 20.5q50 0 95.5 -16t81.5 -45.5t60.5 -72
t32.5 -95.5q5 -35 -10 -54t-62 -19h-410q2 -44 19.5 -86t47.5 -74.5t69.5 -52.5t85.5 -20zM484 277q14 0 21 5.5t10 13t3 15.5t-1 14q-4 36 -17.5 69.5t-37 59.5t-57.5 41.5t-78 15.5q-50 0 -88.5 -19t-65.5 -51t-41.5 -74.5t-16.5 -89.5h369z" />
    <glyph glyph-name="eacute" unicode="&#xe9;" horiz-adv-x="629" 
d="M356 783l43 -30l-93 -127l-29 12zM337 14q35 0 70 10.5t65.5 30t54.5 48t37 65.5l10 -4q-13 -43 -39.5 -78.5t-60.5 -60.5t-72.5 -38t-75.5 -13q-61 1 -114 21t-92.5 57.5t-62 90t-22.5 118.5q0 65 24.5 118.5t65 91t93 58t109.5 20.5q50 0 95.5 -16t81.5 -45.5t60.5 -72
t32.5 -95.5q5 -35 -10 -54t-62 -19h-410q2 -44 19.5 -86t47.5 -74.5t69.5 -52.5t85.5 -20zM484 277q14 0 21 5.5t10 13t3 15.5t-1 14q-4 36 -17.5 69.5t-37 59.5t-57.5 41.5t-78 15.5q-50 0 -88.5 -19t-65.5 -51t-41.5 -74.5t-16.5 -89.5h369z" />
    <glyph glyph-name="ecircumflex" unicode="&#xea;" horiz-adv-x="629" 
d="M393 623l-71 67l-72 -67l-22 13l85 103h16l86 -103zM337 14q35 0 70 10.5t65.5 30t54.5 48t37 65.5l10 -4q-13 -43 -39.5 -78.5t-60.5 -60.5t-72.5 -38t-75.5 -13q-61 1 -114 21t-92.5 57.5t-62 90t-22.5 118.5q0 65 24.5 118.5t65 91t93 58t109.5 20.5q50 0 95.5 -16
t81.5 -45.5t60.5 -72t32.5 -95.5q5 -35 -10 -54t-62 -19h-410q2 -44 19.5 -86t47.5 -74.5t69.5 -52.5t85.5 -20zM484 277q14 0 21 5.5t10 13t3 15.5t-1 14q-4 36 -17.5 69.5t-37 59.5t-57.5 41.5t-78 15.5q-50 0 -88.5 -19t-65.5 -51t-41.5 -74.5t-16.5 -89.5h369z" />
    <glyph glyph-name="edieresis" unicode="&#xeb;" horiz-adv-x="629" 
d="M218 650q0 18 11 29t30 11q17 0 28 -11t11 -29t-11 -29t-28 -11q-19 0 -30 11t-11 29zM333 650q0 18 11 29t30 11q17 0 28 -11t11 -29t-11 -29t-28 -11q-19 0 -30 11t-11 29zM337 14q35 0 70 10.5t65.5 30t54.5 48t37 65.5l10 -4q-13 -43 -39.5 -78.5t-60.5 -60.5
t-72.5 -38t-75.5 -13q-61 1 -114 21t-92.5 57.5t-62 90t-22.5 118.5q0 65 24.5 118.5t65 91t93 58t109.5 20.5q50 0 95.5 -16t81.5 -45.5t60.5 -72t32.5 -95.5q5 -35 -10 -54t-62 -19h-410q2 -44 19.5 -86t47.5 -74.5t69.5 -52.5t85.5 -20zM484 277q14 0 21 5.5t10 13
t3 15.5t-1 14q-4 36 -17.5 69.5t-37 59.5t-57.5 41.5t-78 15.5q-50 0 -88.5 -19t-65.5 -51t-41.5 -74.5t-16.5 -89.5h369z" />
    <glyph glyph-name="igrave" unicode="&#xec;" horiz-adv-x="234" 
d="M105 608l-93 127l43 30l79 -145zM49 13q20 5 26 18.5t7 34.5v309q0 45 -2 79.5t-13 51.5l85 15v-455q1 -21 7 -34.5t26 -18.5l4 -13h-144z" />
    <glyph glyph-name="iacute" unicode="&#xed;" horiz-adv-x="236" 
d="M148 766l43 -30l-93 -127l-29 12zM49 13q20 5 26 18.5t7 34.5v309q0 45 -2 79.5t-13 51.5l85 15v-455q1 -21 7 -34.5t26 -18.5l4 -13h-144z" />
    <glyph glyph-name="icircumflex" unicode="&#xee;" horiz-adv-x="234" 
d="M179 596l-71 67l-72 -67l-22 13l85 103h16l86 -103zM49 13q20 5 26 18.5t7 34.5v309q0 45 -2 79.5t-13 51.5l85 15v-455q1 -21 7 -34.5t26 -18.5l4 -13h-144z" />
    <glyph glyph-name="idieresis" unicode="&#xef;" horiz-adv-x="234" 
d="M9 645q0 18 11 29t30 11q17 0 28 -11t11 -29t-11 -29t-28 -11q-19 0 -30 11t-11 29zM124 645q0 18 11 29t30 11q17 0 28 -11t11 -29t-11 -29t-28 -11q-19 0 -30 11t-11 29zM49 13q20 5 26 18.5t7 34.5v309q0 45 -2 79.5t-13 51.5l85 15v-455q1 -21 7 -34.5t26 -18.5
l4 -13h-144z" />
    <glyph glyph-name="lslash" unicode="&#x142;" horiz-adv-x="357" 
d="M107 13q20 5 26 18.5t7 34.5v143l-67 -69h-58l125 127v370q0 45 -2 79.5t-13 51.5l85 15v-445l77 78h55l-132 -135v-215q1 -21 7 -34.5t26 -18.5l4 -13h-144z" />
    <glyph glyph-name="ntilde" unicode="&#xf1;" horiz-adv-x="651" 
d="M212 652q15 29 34 40t41 11q17 0 34 -4.5t33.5 -9.5t32.5 -9.5t30 -4.5q26 0 41 19l13 -6q-16 -30 -36 -41t-42 -11q-17 0 -34.5 4.5t-34.5 10t-33 10t-30 4.5q-11 0 -20 -4t-16 -14zM49 13q20 5 26 18.5t7 34.5v311q0 45 -2 79.5t-13 51.5l85 15v-99q17 31 42 54.5
t53.5 39t58.5 23.5t57 8q46 0 84.5 -15t66 -44.5t42.5 -74t15 -103.5v-246q1 -21 7 -34.5t26 -18.5l4 -13h-144l4 13q20 5 26 18.5t7 34.5v273q0 44 -11.5 76t-32 53t-47.5 31t-57 10q-28 0 -57 -11t-56 -32t-50 -52t-38 -72v-276q1 -21 7 -34.5t26 -18.5l4 -13h-144z" />
    <glyph glyph-name="ograve" unicode="&#xf2;" horiz-adv-x="654" 
d="M341 626l-93 127l43 30l79 -145zM327 -26q-57 0 -109.5 20.5t-93 58t-65 90.5t-24.5 118t24.5 118.5t65 91t93 58t109.5 20.5t110 -20.5t93.5 -58t64.5 -91t24 -118.5t-24 -118t-64.5 -90.5t-93.5 -58t-110 -20.5zM115 261q0 -49 13.5 -94.5t40 -79.5t66.5 -54.5
t92 -20.5q53 0 92.5 20.5t66 54.5t40 79.5t13.5 94.5q0 50 -13.5 95t-40 79.5t-66 55t-92.5 20.5q-52 0 -92 -20.5t-66.5 -55t-40 -79.5t-13.5 -95z" />
    <glyph glyph-name="oacute" unicode="&#xf3;" horiz-adv-x="654" 
d="M358 783l43 -30l-93 -127l-29 12zM327 -26q-57 0 -109.5 20.5t-93 58t-65 90.5t-24.5 118t24.5 118.5t65 91t93 58t109.5 20.5t110 -20.5t93.5 -58t64.5 -91t24 -118.5t-24 -118t-64.5 -90.5t-93.5 -58t-110 -20.5zM115 261q0 -49 13.5 -94.5t40 -79.5t66.5 -54.5
t92 -20.5q53 0 92.5 20.5t66 54.5t40 79.5t13.5 94.5q0 50 -13.5 95t-40 79.5t-66 55t-92.5 20.5q-52 0 -92 -20.5t-66.5 -55t-40 -79.5t-13.5 -95z" />
    <glyph glyph-name="ocircumflex" unicode="&#xf4;" horiz-adv-x="654" 
d="M390 624l-71 67l-72 -67l-22 13l85 103h16l86 -103zM327 -26q-57 0 -109.5 20.5t-93 58t-65 90.5t-24.5 118t24.5 118.5t65 91t93 58t109.5 20.5t110 -20.5t93.5 -58t64.5 -91t24 -118.5t-24 -118t-64.5 -90.5t-93.5 -58t-110 -20.5zM115 261q0 -49 13.5 -94.5t40 -79.5
t66.5 -54.5t92 -20.5q53 0 92.5 20.5t66 54.5t40 79.5t13.5 94.5q0 50 -13.5 95t-40 79.5t-66 55t-92.5 20.5q-52 0 -92 -20.5t-66.5 -55t-40 -79.5t-13.5 -95z" />
    <glyph glyph-name="otilde" unicode="&#xf5;" horiz-adv-x="654" 
d="M193 659q15 29 34 40t41 11q17 0 34 -4.5t33.5 -9.5t32.5 -9.5t30 -4.5q26 0 41 19l13 -6q-16 -30 -36 -41t-42 -11q-17 0 -34.5 4.5t-34.5 10t-33 10t-30 4.5q-11 0 -20 -4t-16 -14zM327 -26q-57 0 -109.5 20.5t-93 58t-65 90.5t-24.5 118t24.5 118.5t65 91t93 58
t109.5 20.5t110 -20.5t93.5 -58t64.5 -91t24 -118.5t-24 -118t-64.5 -90.5t-93.5 -58t-110 -20.5zM115 261q0 -49 13.5 -94.5t40 -79.5t66.5 -54.5t92 -20.5q53 0 92.5 20.5t66 54.5t40 79.5t13.5 94.5q0 50 -13.5 95t-40 79.5t-66 55t-92.5 20.5q-52 0 -92 -20.5t-66.5 -55
t-40 -79.5t-13.5 -95z" />
    <glyph glyph-name="odieresis" unicode="&#xf6;" horiz-adv-x="654" 
d="M225 658q0 18 11 29t30 11q17 0 28 -11t11 -29t-11 -29t-28 -11q-19 0 -30 11t-11 29zM340 658q0 18 11 29t30 11q17 0 28 -11t11 -29t-11 -29t-28 -11q-19 0 -30 11t-11 29zM327 -26q-57 0 -109.5 20.5t-93 58t-65 90.5t-24.5 118t24.5 118.5t65 91t93 58t109.5 20.5
t110 -20.5t93.5 -58t64.5 -91t24 -118.5t-24 -118t-64.5 -90.5t-93.5 -58t-110 -20.5zM115 261q0 -49 13.5 -94.5t40 -79.5t66.5 -54.5t92 -20.5q53 0 92.5 20.5t66 54.5t40 79.5t13.5 94.5q0 50 -13.5 95t-40 79.5t-66 55t-92.5 20.5q-52 0 -92 -20.5t-66.5 -55t-40 -79.5
t-13.5 -95z" />
    <glyph glyph-name="oslash" unicode="&#xf8;" horiz-adv-x="644" 
d="M322 -26q-23 0 -45 3.5t-43 9.5l-44 -117h-45l50 132q-36 17 -66 42t-52 58t-34.5 73t-12.5 86q0 65 24.5 118.5t65 91t93 58t109.5 20.5q20 0 39 -2.5t38 -7.5l51 136h45l-57 -149q38 -16 70 -41t55.5 -59t37 -75.5t13.5 -89.5q0 -65 -24 -118t-64.5 -90.5t-93.5 -58
t-110 -20.5zM110 261q0 -68 25.5 -127t75.5 -91l174 459q-28 9 -63 9q-52 0 -92 -20.5t-66.5 -55t-40 -79.5t-13.5 -95zM248 24q33 -12 74 -12q53 0 92.5 20.5t66 54.5t40 79.5t13.5 94.5q0 72 -28 132.5t-83 92.5z" />
    <glyph glyph-name="oe" unicode="&#x153;" horiz-adv-x="1133" 
d="M327 -26q-57 0 -109.5 20.5t-93 58t-65 90.5t-24.5 118t24.5 118.5t65 91t93 58t109.5 20.5q78 0 145.5 -36.5t106.5 -102.5q39 66 106.5 102.5t145.5 36.5q50 0 95.5 -16t81.5 -45.5t60.5 -72t32.5 -95.5q5 -35 -10 -54t-62 -19h-410q2 -44 19.5 -86t47.5 -74.5
t69.5 -52.5t85.5 -20q35 0 70 10.5t65.5 30t54.5 48t37 65.5l10 -4q-13 -43 -39.5 -78.5t-60.5 -60.5t-72.5 -38t-75.5 -13q-82 1 -148 37t-104 100q-40 -65 -107 -101t-144 -36zM115 261q0 -49 13.5 -94.5t40 -79.5t66.5 -54.5t92 -20.5q53 0 92.5 20.5t66 54.5t40 79.5
t13.5 94.5q0 50 -13.5 95t-40 79.5t-66 55t-92.5 20.5q-52 0 -92 -20.5t-66.5 -55t-40 -79.5t-13.5 -95zM988 277q14 0 21 5.5t10 13t3 15.5t-1 14q-4 36 -17.5 69.5t-37 59.5t-57.5 41.5t-78 15.5q-50 0 -88.5 -19t-65.5 -51t-41.5 -74.5t-16.5 -89.5h369z" />
    <glyph glyph-name="ugrave" unicode="&#xf9;" horiz-adv-x="631" 
d="M298 626l-93 127l43 30l79 -145zM479 100q-17 -31 -42 -54.5t-53 -39.5t-58 -24t-58 -8q-46 0 -84.5 15t-66 44.5t-42.5 74t-15 103.5v166q0 45 -2 79.5t-13 51.5l85 15v-339q0 -43 11.5 -75t32 -53t47.5 -31.5t57 -10.5q28 0 57 11t56 32t50 52.5t38 71.5v196
q0 45 -2 79.5t-13 51.5l85 15v-457q1 -21 7 -34.5t26 -18.5l4 -13h-107v100z" />
    <glyph glyph-name="uacute" unicode="&#xfa;" horiz-adv-x="631" 
d="M329 783l43 -30l-93 -127l-29 12zM479 100q-17 -31 -42 -54.5t-53 -39.5t-58 -24t-58 -8q-46 0 -84.5 15t-66 44.5t-42.5 74t-15 103.5v166q0 45 -2 79.5t-13 51.5l85 15v-339q0 -43 11.5 -75t32 -53t47.5 -31.5t57 -10.5q28 0 57 11t56 32t50 52.5t38 71.5v196
q0 45 -2 79.5t-13 51.5l85 15v-457q1 -21 7 -34.5t26 -18.5l4 -13h-107v100z" />
    <glyph glyph-name="ucircumflex" unicode="&#xfb;" horiz-adv-x="631" 
d="M356 623l-71 67l-72 -67l-22 13l85 103h16l86 -103zM479 100q-17 -31 -42 -54.5t-53 -39.5t-58 -24t-58 -8q-46 0 -84.5 15t-66 44.5t-42.5 74t-15 103.5v166q0 45 -2 79.5t-13 51.5l85 15v-339q0 -43 11.5 -75t32 -53t47.5 -31.5t57 -10.5q28 0 57 11t56 32t50 52.5
t38 71.5v196q0 45 -2 79.5t-13 51.5l85 15v-457q1 -21 7 -34.5t26 -18.5l4 -13h-107v100z" />
    <glyph glyph-name="udieresis" unicode="&#xfc;" horiz-adv-x="631" 
d="M195 654q0 18 11 29t30 11q17 0 28 -11t11 -29t-11 -29t-28 -11q-19 0 -30 11t-11 29zM310 654q0 18 11 29t30 11q17 0 28 -11t11 -29t-11 -29t-28 -11q-19 0 -30 11t-11 29zM479 100q-17 -31 -42 -54.5t-53 -39.5t-58 -24t-58 -8q-46 0 -84.5 15t-66 44.5t-42.5 74
t-15 103.5v166q0 45 -2 79.5t-13 51.5l85 15v-339q0 -43 11.5 -75t32 -53t47.5 -31.5t57 -10.5q28 0 57 11t56 32t50 52.5t38 71.5v196q0 45 -2 79.5t-13 51.5l85 15v-457q1 -21 7 -34.5t26 -18.5l4 -13h-107v100z" />
    <glyph glyph-name="yacute" unicode="&#xfd;" horiz-adv-x="543" 
d="M339 784l43 -30l-93 -127l-29 12zM310 91l101 255q26 64 28 110t-7 67h96l-202 -503v-1q-18 -49 -42 -97t-57.5 -86.5t-77.5 -62t-102 -23.5q-39 0 -77 15.5t-60 35.5v84q20 -42 57 -69.5t80 -27.5q39 0 72 16t60.5 44.5t50.5 67t41 83.5l-211 482q-11 16 -21 21.5
t-20 7.5l-4 13h110z" />
    <glyph glyph-name="ydieresis" unicode="&#xff;" horiz-adv-x="543" 
d="M188 653q0 18 11 29t30 11q17 0 28 -11t11 -29t-11 -29t-28 -11q-19 0 -30 11t-11 29zM303 653q0 18 11 29t30 11q17 0 28 -11t11 -29t-11 -29t-28 -11q-19 0 -30 11t-11 29zM310 91l101 255q26 64 28 110t-7 67h96l-202 -503v-1q-18 -49 -42 -97t-57.5 -86.5t-77.5 -62
t-102 -23.5q-39 0 -77 15.5t-60 35.5v84q20 -42 57 -69.5t80 -27.5q39 0 72 16t60.5 44.5t50.5 67t41 83.5l-211 482q-11 16 -21 21.5t-20 7.5l-4 13h110z" />
    <glyph glyph-name="caron" unicode="&#x2c7;" horiz-adv-x="287" 
d="M237 661l-86 -103h-16l-85 103l22 13l72 -67l71 67z" />
    <glyph glyph-name="Scaron" unicode="&#x160;" horiz-adv-x="628" 
d="M322 862h-16l-85 103l22 13l72 -67l71 67l22 -13zM521 181q0 45 -20.5 74t-54.5 48.5t-77 33t-87.5 26.5t-87.5 29t-77 41t-54.5 62t-20.5 93q0 43 14.5 82.5t46.5 69.5t84.5 48t127.5 18q31 0 64.5 -5.5t64.5 -13.5t56.5 -17.5t41.5 -18.5v-90q-17 21 -40.5 40t-53 33
t-63 22.5t-70.5 8.5q-49 0 -87 -11.5t-63 -31.5t-38 -47.5t-13 -59.5q0 -45 20.5 -75t54.5 -50.5t77.5 -34.5t88.5 -27.5t88.5 -30t77.5 -41.5t54.5 -62t20.5 -92q0 -106 -73.5 -167t-216.5 -61q-27 0 -63.5 5.5t-74.5 15.5t-73 23.5t-60 29.5v90q25 -30 59.5 -53
t71.5 -38.5t73.5 -24t66.5 -8.5q56 0 96.5 14.5t67 38t39 53.5t12.5 61z" />
    <glyph glyph-name="Zcaron" unicode="&#x17d;" horiz-adv-x="604" 
d="M325 863h-16l-85 103l22 13l72 -67l71 67l22 -13zM25 33l432 707h-160q-51 0 -88.5 -2.5t-64.5 -8t-46.5 -13t-34.5 -16.5v83h504v-33l-440 -707l218 -1q51 0 88.5 2.5t64.5 8t46.5 13t34.5 16.5v-83l-554 1v33z" />
    <glyph glyph-name="zcaron" unicode="&#x17e;" horiz-adv-x="481" 
d="M246 610h-16l-85 103l22 13l72 -67l71 67l22 -13zM30 22l307 461h-45q-51 0 -88.5 -2.5t-64.5 -7.5t-46.5 -12.5t-34.5 -16.5v80l341 -1h35v-22l-308 -461h89q51 0 88.5 2.5t64.5 7.5t46.5 12.5t34.5 16.5v-80l-367 1h-52v22z" />
    <glyph glyph-name="scaron" unicode="&#x161;" horiz-adv-x="535" 
d="M267 615h-16l-85 103l22 13l72 -67l71 67l22 -13zM439 107q0 39 -29.5 60.5t-73.5 36t-96 26.5t-96 31.5t-73.5 51t-29.5 85.5q0 30 12 57.5t39 48t71 33t107 12.5q26 0 54 -3.5t54 -9.5t47.5 -12.5t34.5 -12.5v-72q-29 29 -78.5 50.5t-111.5 21.5q-164 0 -164 -94
q0 -36 29.5 -57t74 -36t96 -28t96 -32.5t74 -50.5t29.5 -81q0 -73 -61.5 -115.5t-181.5 -42.5q-23 0 -53.5 4t-62 10.5t-61 16t-50.5 20.5v75q21 -21 50 -37t60 -27.5t61.5 -17.5t55.5 -6q94 0 135.5 26t41.5 69z" />
    <glyph glyph-name="uniE05A" unicode="&#xe05a;" horiz-adv-x="1117" 
d="M955 100q-17 -31 -42 -54.5t-53 -39.5t-58 -24t-58 -8q-46 0 -85 15t-67.5 44.5t-44.5 74t-16 103.5v441q0 36 -1 65.5t-7 49.5h-195q-33 0 -59 -10t-44 -33.5t-27.5 -63t-9.5 -99.5v-52l110 2q29 1 60.5 4t53.5 8l12 -40l-236 1v-418q1 -21 7 -34.5t26 -18.5l4 -13h-149
l4 13q20 5 26 18.5t7 34.5v419h-93v20l93 2v54q0 65 16.5 111.5t45.5 76.5t68.5 44t84.5 14l278 -1v-622q0 -43 11.5 -75t32 -53t47.5 -31.5t57 -10.5q28 0 57 11t56 32t50 52.5t38 71.5v456q0 45 -2 79.5t-13 51.5l90 15v-717q1 -21 7 -34.5t26 -18.5l4 -13h-112v100z" />
    <glyph glyph-name="bracketleft" unicode="[" horiz-adv-x="296" 
d="M80 673q0 44 5 81t22.5 65t50.5 43.5t88 15.5v-30q-27 0 -45 -14.5t-28 -39.5t-14 -56.5t-4 -66.5v-613q0 -34 4 -66t14 -57t28 -39.5t45 -14.5v-30q-55 0 -88 16t-50.5 43.5t-22.5 65t-5 80.5v617z" />
    <glyph glyph-name="bracketright" unicode="]" horiz-adv-x="296" 
d="M216 56q0 -43 -5 -80.5t-22.5 -65t-50 -43.5t-88.5 -16v30q27 0 45 14.5t28 39.5t14 57t4 66v613q0 35 -4 66.5t-14 56.5t-28 39.5t-45 14.5v30q56 0 88.5 -15.5t50 -43.5t22.5 -65t5 -81v-617z" />
    <glyph glyph-name="less" unicode="&#x3c;" horiz-adv-x="476" 
d="M35 385l360 312l46 -76q-36 -11 -77 -34.5t-82 -55t-81 -69.5t-74 -77q34 -39 74 -77t81 -69.5t82 -55.5t77 -35l-46 -76z" />
    <glyph glyph-name="greater" unicode="&#x3e;" horiz-adv-x="476" 
d="M35 148q36 11 77 35t82 55.5t81 69.5t74 77q-34 39 -74 77t-81 69.5t-82 55t-77 34.5l46 76l360 -312l-360 -313z" />
    <glyph glyph-name="ampersand" unicode="&#x26;" horiz-adv-x="617" 
d="M468 470l-11 -56q-32 5 -60 8t-67 3h-34q-8 0 -14.5 -0.5t-13.5 -1.5l206 -324q20 17 34.5 35t22.5 36l61 -44q-11 -14 -33 -35t-54 -42l31 -49h-69l-13 21q-38 -18 -80.5 -30.5t-88.5 -12.5q-55 0 -101 19.5t-79 52.5t-51.5 76t-18.5 91q0 41 11.5 76t31 64t46 51
t55.5 35l-27 41q-38 58 -49 115t8 102.5t69.5 73.5t134.5 28q42 0 74 -3t58.5 -8.5t49 -12t45.5 -12.5l-32 -87q-28 33 -76.5 58t-114.5 25t-102.5 -21t-49 -54.5t-3 -74.5t34.5 -81l44 -70q15 3 31 3zM207 399q-47 -26 -67 -74t-20 -112q0 -38 10.5 -73t32 -62t53 -43.5
t73.5 -16.5q32 0 67 13t69 33z" />
    <glyph glyph-name="quotesingle" unicode="'" horiz-adv-x="225" 
d="M58 648l44 135h63l-84 -147z" />
    <glyph glyph-name="quotedbl" unicode="&#x22;" horiz-adv-x="317" 
d="M58 648l44 135h63l-84 -147zM159 648l44 135h63l-84 -147z" />
    <glyph glyph-name="quotedblright" unicode="&#x201d;" horiz-adv-x="317" 
d="M58 648l44 135h63l-84 -147zM159 648l44 135h63l-84 -147z" />
    <glyph glyph-name="quotedblleft" unicode="&#x201c;" horiz-adv-x="324" 
d="M266 771l-44 -135h-63l84 147zM165 771l-44 -135h-63l84 147z" />
    <glyph glyph-name="quoteright" unicode="&#x2019;" horiz-adv-x="216" 
d="M58 648l44 135h63l-84 -147z" />
    <glyph glyph-name="quoteleft" unicode="&#x2018;" horiz-adv-x="216" 
d="M165 771l-44 -135h-63l84 147z" />
    <glyph glyph-name="quotesinglbase" unicode="&#x201a;" horiz-adv-x="217" 
d="M58 -73l46 146h49q10 0 13.5 -7t-1.5 -15l-84 -136z" />
    <glyph glyph-name="quotedblbase" unicode="&#x201e;" horiz-adv-x="319" 
d="M151 -73l46 146h49q10 0 13.5 -7t-1.5 -15l-84 -136zM58 -73l46 146h49q10 0 13.5 -7t-1.5 -15l-84 -136z" />
    <glyph glyph-name="hungarumlaut" unicode="&#x2dd;" horiz-adv-x="343" 
d="M60 638l79 145l43 -30l-93 -127zM161 638l79 145l43 -30l-93 -127z" />
    <glyph glyph-name="asterisk" unicode="*" horiz-adv-x="488" 
d="M86 462q34 30 60 51t55 47q-38 -2 -72 -4.5t-79 -4.5v50q23 -1 43 -2.5t38 -3t36.5 -2.5t38.5 -1q-29 29 -55.5 52t-60.5 55l38 37q29 -34 50.5 -59.5t46.5 -53.5q-1 38 -3.5 71t-4.5 78h50q-1 -23 -2 -42.5t-2 -38t-2 -36.5t-2 -38q14 15 26.5 28.5t24.5 27t25 28
t29 31.5l37 -38q-34 -31 -61 -53t-56 -49q20 0 38 1t36 2.5t37.5 3t42.5 2.5v-50q-46 2 -80 4.5t-73 4.5q28 -28 53.5 -49.5t58.5 -53.5l-38 -37q-15 17 -27.5 32t-24 29.5t-23 28t-25.5 28.5q2 -40 4 -74t4 -80h-50q2 46 4.5 79.5t3.5 72.5q-27 -28 -49 -53.5t-53 -58.5z
" />
    <glyph glyph-name="asciicircum" unicode="^" horiz-adv-x="489" 
d="M245 783l219 -360l-53 -46q-8 36 -25 77t-39 82t-48.5 81t-53.5 74q-28 -34 -54.5 -74t-49 -81t-39 -82t-24.5 -77l-53 46z" />
    <glyph glyph-name="underscore" unicode="_" horiz-adv-x="513" 
d="M50 40h413v-40h-413v40z" />
    <glyph glyph-name="backslash" unicode="\" horiz-adv-x="466" 
d="M411 -130l-401 1026h45l401 -1026h-45z" />
    <glyph glyph-name="braceleft" unicode="{" horiz-adv-x="364" 
d="M70 380q46 5 70 37.5t25 85.5v146q0 46 5.5 81.5t22.5 59.5t48.5 36.5t82.5 12.5v-28q-25 0 -41.5 -13.5t-26 -36.5t-13 -52.5t-3.5 -61.5v-142q0 -23 -6 -46t-16.5 -42.5t-25 -34t-33.5 -20.5q39 -18 59.5 -57t21.5 -85v-142q0 -32 3.5 -61.5t13 -52.5t26 -36.5
t41.5 -13.5v-28q-51 0 -82.5 12.5t-48.5 36.5t-22.5 59.5t-5.5 81.5v146q-1 53 -25 90t-70 42v26z" />
    <glyph glyph-name="braceright" unicode="}" horiz-adv-x="364" 
d="M294 354q-46 -5 -70 -42t-25 -90v-146q0 -46 -5.5 -81.5t-22.5 -59.5t-48.5 -36.5t-82.5 -12.5v28q26 0 42 13.5t25.5 36.5t13 52.5t3.5 61.5v142q1 46 21.5 85t59.5 57q-19 6 -33.5 20.5t-25 34t-16.5 42.5t-6 46v142q0 32 -3.5 61.5t-13 52.5t-25.5 36.5t-42 13.5v28
q51 0 82.5 -12.5t48.5 -36.5t22.5 -59.5t5.5 -81.5v-146q1 -53 25 -85.5t70 -37.5v-26z" />
    <glyph glyph-name="cent" unicode="&#xa2;" horiz-adv-x="574" 
d="M288 106q-55 6 -102.5 28.5t-82 59.5t-54 87t-19.5 110q0 59 19 109t53.5 87.5t81.5 61t103 29.5q-2 28 -6.5 52t-9.5 43l72 10v-104q61 -3 111 -22.5t79 -39.5v-85q-17 20 -36.5 38t-42.5 32.5t-50.5 24.5t-60.5 12v-495q38 0 68.5 10.5t55 26t42.5 34t29 35.5l11 -7
q-33 -63 -87.5 -98t-118.5 -40v-105h-55v106zM288 637q-43 -7 -76 -29t-55.5 -55t-34.5 -74.5t-12 -86.5q0 -42 12 -82t35 -72t56 -55.5t75 -32.5v487z" />
    <glyph glyph-name="yen" unicode="&#xa5;" horiz-adv-x="659" 
d="M389 316v-32h133v-40h-133v-76h133v-40h-133v-62q1 -21 7 -34.5t26 -18.5l4 -13h-149l4 13q20 5 26 18.5t7 34.5v62h-133v40h133v76h-133v40h133v32l-228 401q-16 28 -33 35.5t-32 11.5l-6 19h130l225 -411l121 221q35 65 47.5 109.5t10.5 80.5h95z" />
    <glyph glyph-name="sterling" unicode="&#xa3;" horiz-adv-x="611" 
d="M316 7q-45 14 -89.5 28.5t-85.5 14.5q-29 0 -54 -10t-45 -35l-26 15q10 20 26 36t36 29q23 32 34 69t14.5 76.5t3 79.5t-0.5 77h-114v40h114q-3 107 14.5 180t50 117t77 63t96.5 19q29 0 51 -4.5t40.5 -12.5t34 -18.5t30.5 -22.5l-38 -49q-11 38 -40.5 60t-74.5 22
q-47 0 -80 -28t-53 -76.5t-28 -113t-5 -136.5h197v-40h-197q0 -31 -0.5 -70t-6 -78.5t-17 -75.5t-32.5 -61q9 3 19 4t21 1q32 0 63 -7t54 -15q40 -13 81 -23.5t79 -10.5q34 0 63.5 11.5t52.5 40.5l15 -15q-22 -45 -68.5 -71.5t-110.5 -26.5q-23 0 -48.5 4t-52.5 13z" />
    <glyph glyph-name="copyright" unicode="&#xa9;" horiz-adv-x="908" 
d="M457 799q89 0 165.5 -31.5t132 -87t87 -132t31.5 -165.5q0 -93 -31 -170.5t-86 -133.5t-131.5 -87t-167.5 -31q-93 0 -170.5 31t-133.5 87t-87 133.5t-31 170.5q0 90 32 166t88.5 131.5t133.5 87t168 31.5zM457 768q-84 0 -155.5 -29t-123.5 -81t-81.5 -122t-29.5 -153
q0 -86 28.5 -158t80 -123.5t123.5 -80.5t158 -29q84 0 155 29t122 80.5t79.5 123.5t28.5 158q0 83 -29 153t-81 122t-122 81t-153 29zM471 96q-62 0 -115.5 20.5t-92.5 58t-61.5 90.5t-22.5 118q0 64 22.5 117t62 91.5t93 59.5t116.5 21q33 0 64.5 -6t58.5 -15t49 -20
t37 -22v-85q-18 21 -39 40.5t-46.5 34.5t-56 24t-67.5 9q-51 0 -91 -20t-67.5 -54t-41.5 -79t-14 -95q0 -49 16 -93.5t46 -79t72.5 -55t95.5 -20.5q38 0 69.5 10t56.5 25.5t43 34.5t29 36l11 -7q-36 -68 -96.5 -103.5t-130.5 -35.5z" />
    <glyph glyph-name="registered" unicode="&#xae;" horiz-adv-x="908" 
d="M457 799q89 0 165.5 -31.5t132 -87t87 -132t31.5 -165.5q0 -93 -31 -170.5t-86 -133.5t-131.5 -87t-167.5 -31q-93 0 -170.5 31t-133.5 87t-87 133.5t-31 170.5q0 90 32 166t88.5 131.5t133.5 87t168 31.5zM457 768q-84 0 -155.5 -29t-123.5 -81t-81.5 -122t-29.5 -153
q0 -86 28.5 -158t80 -123.5t123.5 -80.5t158 -29q84 0 155 29t122 80.5t79.5 123.5t28.5 158q0 83 -29 153t-81 122t-122 81t-153 29zM671 466q0 -54 -30.5 -97.5t-87.5 -62.5l140 -187h-102l-123 173q-10 -1 -20.5 -1.5t-21.5 -0.5h-75v-171h-75v523h150q66 0 113 -13.5
t76 -37t42.5 -55.5t13.5 -70zM405 322q92 0 136.5 36.5t44.5 107.5t-44.5 107.5t-136.5 36.5h-54v-288h54z" />
    <glyph glyph-name="guillemotleft" unicode="&#xab;" horiz-adv-x="559" 
d="M35 385l280 242l40 -68q-28 -9 -60.5 -26.5t-64 -41t-60 -51t-48.5 -55.5q20 -28 48.5 -55.5t60 -51t64 -41t60.5 -26.5l-40 -68zM204 385l280 242l40 -68q-28 -9 -60.5 -26.5t-64 -41t-60 -51t-48.5 -55.5q20 -28 48.5 -55.5t60 -51t64 -41t60.5 -26.5l-40 -68z" />
    <glyph glyph-name="guillemotright" unicode="&#xbb;" horiz-adv-x="559" 
d="M204 211q28 9 60.5 26.5t64 41t60 51t48.5 55.5q-20 28 -48.5 55.5t-60 51t-64 41t-60.5 26.5l40 68l280 -242l-280 -242zM35 211q28 9 60.5 26.5t64 41t60 51t48.5 55.5q-20 28 -48.5 55.5t-60 51t-64 41t-60.5 26.5l40 68l280 -242l-280 -242z" />
    <glyph glyph-name="questiondown" unicode="&#xbf;" horiz-adv-x="543" 
d="M362 763q0 -18 -11 -29t-29 -11t-29 11t-11 29t11 29t29 11t29 -11t11 -29zM345 664q3 -38 -12.5 -72t-39.5 -67.5t-53.5 -67.5t-55 -72t-44 -82t-20.5 -97q-2 -45 9.5 -77t32 -52.5t48.5 -30.5t59 -10q30 0 59 12.5t54.5 32t47 43.5t37.5 48l51 -73
q-48 -50 -108.5 -76.5t-144.5 -26.5q-48 0 -90 11.5t-73 37t-49 65t-18 96.5q0 53 20 97.5t50.5 84t65.5 75t65 68.5t50 65.5t19 67.5h40z" />
    <glyph glyph-name="exclamdown" unicode="&#xa1;" horiz-adv-x="200" 
d="M140 743q0 -18 -11 -29t-29 -11t-29 11t-11 29t11 29t29 11t29 -11t11 -29zM138 190v-194h-75v194l13 459h50z" />
    <glyph glyph-name="degree" unicode="&#xb0;" horiz-adv-x="278" 
d="M45 689q0 43 25.5 68.5t68.5 25.5t68.5 -25.5t25.5 -68.5t-25.5 -68.5t-68.5 -25.5t-68.5 25.5t-25.5 68.5zM74 689q0 -29 18 -47t47 -18t47 18t18 47t-18 47t-47 18t-47 -18t-18 -47z" />
    <glyph glyph-name="asciitilde" unicode="~" horiz-adv-x="425" 
d="M25 331q21 39 48.5 53t58.5 14q23 0 47.5 -5.5t48.5 -12t46.5 -12t43.5 -5.5q19 0 35 6t29 22l18 -14q-23 -36 -51.5 -49t-60.5 -13q-24 0 -48 5t-48 11.5t-46 11.5t-42 5q-19 0 -34.5 -7t-26.5 -24z" />
    <glyph glyph-name="germandbls" unicode="&#xdf;" horiz-adv-x="580" 
d="M298 27q30 0 59 8.5t52 25t37 42t14 59.5q0 33 -14 57t-35 43.5t-45.5 36t-45.5 35t-35 40.5t-14 52q0 26 17 54t37 57.5t37 59.5t17 59q0 23 -5 43t-17 34.5t-31.5 22.5t-49.5 6q-34 -2 -56.5 -20t-35 -52t-17.5 -83t-5 -114v-427q1 -21 7 -34.5t26 -18.5l4 -13h-149
l4 13q20 5 26 18.5t7 34.5v430q0 53 6.5 107.5t26 98.5t57 72t100.5 28q88 0 137.5 -38.5t49.5 -111.5q0 -39 -21.5 -71t-48 -59.5t-48 -50.5t-21.5 -43q0 -21 16.5 -35t40.5 -27.5t53 -28.5t53 -37.5t40.5 -55.5t16.5 -81q0 -22 -10.5 -50.5t-38 -53.5t-76 -42t-123.5 -17z
" />
    <glyph glyph-name="plusminus" unicode="&#xb1;" horiz-adv-x="430" 
d="M50 294h145v145h40v-145h145v-40h-145v-145h-40v145h-145v40zM50 40h328v-40h-328v40z" />
    <glyph glyph-name="section" unicode="&#xa7;" horiz-adv-x="634" 
d="M400 107q0 29 -16 48.5t-42 32.5t-59 22.5t-67.5 19.5t-67.5 22t-59 31t-42 47t-16 68q0 29 10 55t32.5 47t59 34.5t88.5 16.5q-21 18 -33.5 44t-12.5 61q0 30 11 57.5t36.5 48t66 33t99.5 12.5q24 0 50 -3.5t50 -9.5t44.5 -12.5t32.5 -12.5v-72q-27 29 -73.5 50.5
t-103.5 21.5q-152 0 -152 -94q0 -36 27.5 -57t68.5 -36t89.5 -28t89.5 -32.5t68.5 -50.5t27.5 -81q0 -67 -48.5 -108.5t-144.5 -48.5q22 -18 35 -42.5t13 -58.5q0 -73 -57 -115.5t-169 -42.5q-21 0 -49.5 4t-58 10.5t-57 16t-46.5 20.5v75q20 -21 46.5 -37t55.5 -27.5
t57.5 -17.5t51.5 -6q87 0 125.5 26t38.5 69zM545 365q0 36 -23.5 57t-60 35t-80 25t-84.5 26q-25 6 -54 6q-152 0 -152 -97q0 -33 24 -53.5t61 -35t81.5 -26.5t85.5 -29q21 -3 38 -3q87 0 125.5 26t38.5 69z" />
    <glyph glyph-name="onesuperior" unicode="&#xb9;" horiz-adv-x="187" 
d="M56 474q8 2 10.5 7.5t2.5 13.5v229q0 18 -5.5 26.5t-13.5 13.5l72 19v-288q1 -8 3.5 -13.5t10.5 -7.5l1 -5h-83z" />
    <glyph glyph-name="twosuperior" unicode="&#xb2;" horiz-adv-x="241" 
d="M15 476v19q16 12 41 32.5t49 47t42 59t19 68.5q2 38 -11.5 52.5t-37.5 14.5q-25 0 -43.5 -18t-31.5 -37l-25 34q19 19 43.5 30t56.5 11q19 0 37.5 -5t33.5 -15.5t24 -27.5t9 -40q0 -31 -16.5 -60.5t-40.5 -54.5t-50 -45.5t-46 -34.5l140 15v-45h-193z" />
    <glyph glyph-name="threesuperior" unicode="&#xb3;" horiz-adv-x="223" 
d="M198 710q0 -30 -18.5 -49.5t-41.5 -24.5q29 -6 47 -26.5t18 -50.5q0 -37 -27 -61t-74 -24q-32 0 -51 4.5t-36 9.5l15 39q11 -13 28 -23t42 -10t41.5 20t16.5 44q0 36 -19.5 53.5t-48.5 17.5h-20v16h20q25 0 44 17t19 46q0 24 -12.5 43.5t-40.5 19.5q-25 0 -43.5 -8
t-29.5 -21l-12 33q17 5 36 10.5t51 5.5q44 0 70 -22.5t26 -58.5z" />
    <glyph glyph-name="ordfeminine" unicode="&#xaa;" horiz-adv-x="317" 
d="M155 760q-38 0 -59.5 -16t-35.5 -45l-21 54q15 12 45.5 23.5t67.5 11.5q52 0 85.5 -33.5t33.5 -99.5v-137q1 -19 4 -26t14 -4l2 -7q-10 -5 -20 -5q-15 0 -28.5 10t-16.5 33q-20 -23 -48 -36.5t-57 -13.5q-51 0 -76 23.5t-25 65.5q0 46 30.5 71.5t93.5 25.5h81v15
q0 49 -18 69.5t-52 20.5zM225 628l-80 -1q-41 -1 -57.5 -19t-16.5 -49q0 -32 15 -47.5t41 -15.5t53.5 14t44.5 39v79z" />
    <glyph glyph-name="ordmasculine" unicode="&#xba;" horiz-adv-x="293" 
d="M147 466q-26 0 -49 11.5t-40.5 33t-27.5 52t-10 67.5q0 38 10 68t27.5 51.5t40.5 33t49 11.5t49 -11.5t40 -33t27 -51.5t10 -68q0 -37 -10 -67.5t-27 -52t-40 -33t-49 -11.5zM147 486q22 0 36.5 12t23.5 31.5t12.5 46t3.5 54.5q0 64 -17.5 104t-58.5 40t-59 -40t-18 -104
q0 -28 3.5 -54.5t12.5 -46t24 -31.5t37 -12z" />
    <glyph glyph-name="dotlessi" unicode="&#x131;" horiz-adv-x="234" 
d="M49 13q20 5 26 18.5t7 34.5v309q0 45 -2 79.5t-13 51.5l85 15v-455q1 -21 7 -34.5t26 -18.5l4 -13h-144z" />
    <glyph glyph-name="Euro" unicode="&#x20ac;" horiz-adv-x="691" 
d="M188 396q0 -20 1.5 -42.5t3.5 -45.5h260v-40h-254q8 -46 23.5 -91t41.5 -80.5t63.5 -57t89.5 -21.5q69 0 116.5 37.5t67.5 106.5l65 -39q-44 -70 -108.5 -107.5t-140.5 -37.5q-54 0 -104 17t-91 52.5t-70.5 90.5t-43.5 130h-83v40h77q-2 20 -3.5 40.5t-1.5 43.5
q0 34 3 65h-75v40h80q12 79 41.5 137t71 96t93 56.5t106.5 18.5q76 0 140.5 -37.5t108.5 -107.5l-65 -39q-20 69 -67.5 106.5t-116.5 37.5q-55 0 -94.5 -23.5t-65.5 -61.5t-40.5 -86t-21.5 -97h258v-40h-263q-2 -16 -2 -31.5v-29.5z" />
    <glyph glyph-name="endash" unicode="&#x2013;" horiz-adv-x="481" 
d="M50 290h381v-40h-381v40z" />
    <glyph glyph-name="emdash" unicode="&#x2014;" horiz-adv-x="687" 
d="M50 290h587v-40h-587v40z" />
    <glyph glyph-name="guilsinglleft" unicode="&#x2039;" horiz-adv-x="390" 
d="M35 385l280 242l40 -68q-28 -9 -60.5 -26.5t-64 -41t-60 -51t-48.5 -55.5q20 -28 48.5 -55.5t60 -51t64 -41t60.5 -26.5l-40 -68z" />
    <glyph glyph-name="guilsinglright" unicode="&#x203a;" horiz-adv-x="390" 
d="M35 211q28 9 60.5 26.5t64 41t60 51t48.5 55.5q-20 28 -48.5 55.5t-60 51t-64 41t-60.5 26.5l40 68l280 -242l-280 -242z" />
    <glyph glyph-name="minus" unicode="&#x2212;" horiz-adv-x="428" 
d="M50 290h328v-40h-328v40z" />
    <glyph glyph-name="multiply" unicode="&#xd7;" horiz-adv-x="362" 
d="M78 413l103 -103l103 103l28 -28l-103 -103l103 -103l-28 -28l-103 103l-103 -103l-28 28l103 103l-103 103z" />
    <glyph glyph-name="dagger" unicode="&#x2020;" horiz-adv-x="353" 
d="M153 509h-128v40h127l-13 234h75l-13 -234h127v-40h-128l14 -509h-75z" />
    <glyph glyph-name="daggerdbl" unicode="&#x2021;" horiz-adv-x="353" 
d="M151 559h-126v40h127l-13 184h75l-13 -184h127v-40h-126l12 -167l-12 -169h126v-40h-127l13 -183h-75l13 183h-127v40h126l-12 169z" />
    <glyph glyph-name="bullet" unicode="&#x2022;" horiz-adv-x="299" 
d="M35 347q0 51 31.5 82.5t83.5 31.5q51 0 82.5 -31.5t31.5 -82.5q0 -52 -31.5 -83.5t-82.5 -31.5q-52 0 -83.5 31.5t-31.5 83.5z" />
    <glyph glyph-name="dotaccent" unicode="&#x2d9;" horiz-adv-x="163" 
d="M35 721q0 20 13 33t33 13q21 0 34 -13t13 -33q0 -21 -13 -34t-34 -13q-20 0 -33 13t-13 34z" />
    <glyph glyph-name="ellipsis" unicode="&#x2026;" horiz-adv-x="540" 
d="M50 36q0 18 11 29t29 11t29 -11t11 -29t-11 -29t-29 -11t-29 11t-11 29zM230 36q0 18 11 29t29 11t29 -11t11 -29t-11 -29t-29 -11t-29 11t-11 29zM410 36q0 18 11 29t29 11t29 -11t11 -29t-11 -29t-29 -11t-29 11t-11 29z" />
    <glyph glyph-name="macron" unicode="&#xaf;" horiz-adv-x="365" 
d="M50 783h265v-40h-265v40z" />
    <glyph glyph-name="perthousand" unicode="&#x2030;" horiz-adv-x="983" 
d="M176 0q9 24 27.5 76.5t43 122t53 150t56 160t52.5 151t44 123.5h40l-276 -783h-40zM171 741q26 0 50.5 -11.5t43.5 -33t30.5 -52t11.5 -68.5t-11.5 -68.5t-30.5 -52t-43.5 -33t-50.5 -11.5t-50.5 11.5t-43.5 33t-30.5 52t-11.5 68.5t11.5 68.5t30.5 52t43.5 33t50.5 11.5
zM171 710q-15 0 -27.5 -11t-21 -29.5t-13 -43t-4.5 -51.5q0 -26 4.5 -50t13 -42.5t21 -29.5t27.5 -11t27.5 11t21 29.5t13 42.5t4.5 50q0 27 -4.5 51.5t-13 43t-21 29.5t-27.5 11zM499 366q26 0 50.5 -11.5t43.5 -33t30.5 -52t11.5 -68.5t-11.5 -68.5t-30.5 -52t-43.5 -33
t-50.5 -11.5t-50.5 11.5t-43.5 33t-30.5 52t-11.5 68.5t11.5 68.5t30.5 52t43.5 33t50.5 11.5zM812 366q26 0 50.5 -11.5t43.5 -33t30.5 -52t11.5 -68.5t-11.5 -68.5t-30.5 -52t-43.5 -33t-50.5 -11.5t-50.5 11.5t-43.5 33t-30.5 52t-11.5 68.5t11.5 68.5t30.5 52t43.5 33
t50.5 11.5zM499 335q-15 0 -27.5 -11t-21 -29.5t-13 -43t-4.5 -51.5q0 -26 4.5 -50t13 -42.5t21 -29.5t27.5 -11t27.5 11t21 29.5t13 42.5t4.5 50q0 27 -4.5 51.5t-13 43t-21 29.5t-27.5 11zM812 335q-15 0 -27.5 -11t-21 -29.5t-13 -43t-4.5 -51.5q0 -26 4.5 -50t13 -42.5
t21 -29.5t27.5 -11t27.5 11t21 29.5t13 42.5t4.5 50q0 27 -4.5 51.5t-13 43t-21 29.5t-27.5 11z" />
    <glyph glyph-name="fraction" unicode="&#x2044;" horiz-adv-x="401" 
d="M331 783h45l-306 -783h-45z" />
    <glyph glyph-name="onequarter" unicode="&#xbc;" horiz-adv-x="518" 
d="M344 783h45l-291 -783h-45zM56 474q8 2 10.5 7.5t2.5 13.5v229q0 18 -5.5 26.5t-13.5 13.5l72 19v-288q1 -8 3.5 -13.5t10.5 -7.5l1 -5h-83zM221 107l181 237h20v-223h50v-24h-50v-68q0 -10 3 -16t12 -8l2 -5h-81l1 5q9 2 11.5 8t3.5 16v68h-153v10zM374 121v142
l-108 -142h108z" />
    <glyph glyph-name="onehalf" unicode="&#xbd;" horiz-adv-x="526" 
d="M344 783h45l-291 -783h-45zM56 474q8 2 10.5 7.5t2.5 13.5v229q0 18 -5.5 26.5t-13.5 13.5l72 19v-288q1 -8 3.5 -13.5t10.5 -7.5l1 -5h-83zM274 0v19q16 12 41 32.5t49 47t42 59t19 68.5q2 38 -11.5 52.5t-37.5 14.5q-25 0 -43.5 -18t-31.5 -37l-25 34q19 19 43.5 30
t56.5 11q19 0 37.5 -5t33.5 -15.5t24 -27.5t9 -40q0 -31 -16.5 -60.5t-40.5 -54.5t-50 -45.5t-46 -34.5l140 15v-45h-193z" />
    <glyph glyph-name="threequarters" unicode="&#xbe;" horiz-adv-x="519" 
d="M344 783h45l-291 -783h-45zM56 474q8 2 10.5 7.5t2.5 13.5v229q0 18 -5.5 26.5t-13.5 13.5l72 19v-288q1 -8 3.5 -13.5t10.5 -7.5l1 -5h-83zM468 229q0 -30 -18.5 -49.5t-41.5 -24.5q29 -6 47 -26.5t18 -50.5q0 -37 -27 -61t-74 -24q-32 0 -51 4.5t-36 9.5l15 39
q11 -13 28 -23t42 -10t41.5 20t16.5 44q0 36 -19.5 53.5t-48.5 17.5h-20v16h20q25 0 44 17t19 46q0 24 -12.5 43.5t-40.5 19.5q-25 0 -43.5 -8t-29.5 -21l-12 33q17 5 36 10.5t51 5.5q44 0 70 -22.5t26 -58.5z" />
    <glyph glyph-name="periodcentered" unicode="&#xb7;" horiz-adv-x="175" 
d="M50 134q0 17 10.5 27t27.5 10t27 -10t10 -27t-10 -27.5t-27 -10.5t-27.5 10.5t-10.5 27.5z" />
    <glyph glyph-name="cacute" unicode="&#x107;" horiz-adv-x="584" 
d="M352 783l43 -30l-93 -127l-29 12zM327 -26q-62 0 -115.5 20.5t-92.5 58t-61.5 90.5t-22.5 118q0 64 22.5 117t62 91.5t93 59.5t116.5 21q33 0 64.5 -6t58.5 -15t49 -20t37 -22v-85q-18 21 -39 40.5t-46.5 34.5t-56 24t-67.5 9q-51 0 -91 -20t-67.5 -54t-41.5 -79t-14 -95
q0 -49 16 -93.5t46 -79t72.5 -55t95.5 -20.5q38 0 69.5 10t56.5 25.5t43 34.5t29 36l11 -7q-36 -68 -96.5 -103.5t-130.5 -35.5z" />
    <glyph glyph-name="amacron" unicode="&#x101;" horiz-adv-x="556" 
d="M121 676h265v-40h-265v40zM272 509q-69 0 -119 -29t-89 -78v85q14 11 34.5 22t47 20t57.5 15t64 6q47 0 85.5 -15.5t67 -45.5t44 -74.5t15.5 -102.5v-246q1 -33 7 -45.5t26 -7.5l4 -13q-16 -9 -35 -9q-27 0 -49 21t-23 70q-16 -23 -39 -42t-49 -32.5t-54 -21t-56 -7.5
q-91 0 -136 41.5t-45 116.5q0 83 54 129t168 46h157v27q0 87 -38 128.5t-99 41.5zM409 271l-156 1q-72 1 -107.5 -34t-35.5 -99q0 -57 27.5 -88.5t84.5 -31.5q26 0 53.5 9t53 25t46.5 38t34 49v131z" />
    <glyph glyph-name="emacron" unicode="&#x113;" horiz-adv-x="629" 
d="M171 675h265v-40h-265v40zM337 14q35 0 70 10.5t65.5 30t54.5 48t37 65.5l10 -4q-13 -43 -39.5 -78.5t-60.5 -60.5t-72.5 -38t-75.5 -13q-61 1 -114 21t-92.5 57.5t-62 90t-22.5 118.5q0 65 24.5 118.5t65 91t93 58t109.5 20.5q50 0 95.5 -16t81.5 -45.5t60.5 -72
t32.5 -95.5q5 -35 -10 -54t-62 -19h-410q2 -44 19.5 -86t47.5 -74.5t69.5 -52.5t85.5 -20zM484 277q14 0 21 5.5t10 13t3 15.5t-1 14q-4 36 -17.5 69.5t-37 59.5t-57.5 41.5t-78 15.5q-50 0 -88.5 -19t-65.5 -51t-41.5 -74.5t-16.5 -89.5h369z" />
    <glyph glyph-name="ccaron" unicode="&#x10d;" horiz-adv-x="584" 
d="M310 634h-16l-85 103l22 13l72 -67l71 67l22 -13zM327 -26q-62 0 -115.5 20.5t-92.5 58t-61.5 90.5t-22.5 118q0 64 22.5 117t62 91.5t93 59.5t116.5 21q33 0 64.5 -6t58.5 -15t49 -20t37 -22v-85q-18 21 -39 40.5t-46.5 34.5t-56 24t-67.5 9q-51 0 -91 -20t-67.5 -54
t-41.5 -79t-14 -95q0 -49 16 -93.5t46 -79t72.5 -55t95.5 -20.5q38 0 69.5 10t56.5 25.5t43 34.5t29 36l11 -7q-36 -68 -96.5 -103.5t-130.5 -35.5z" />
    <glyph glyph-name="zacute" unicode="&#x17a;" horiz-adv-x="481" 
d="M285 781l43 -30l-93 -127l-29 12zM30 22l307 461h-45q-51 0 -88.5 -2.5t-64.5 -7.5t-46.5 -12.5t-34.5 -16.5v80l341 -1h35v-22l-308 -461h89q51 0 88.5 2.5t64.5 7.5t46.5 12.5t34.5 16.5v-80l-367 1h-52v22z" />
    <glyph glyph-name="edotaccent" unicode="&#x117;" horiz-adv-x="629" 
d="M252 686q0 20 13 33t33 13q21 0 34 -13t13 -33q0 -21 -13 -34t-34 -13q-20 0 -33 13t-13 34zM337 14q35 0 70 10.5t65.5 30t54.5 48t37 65.5l10 -4q-13 -43 -39.5 -78.5t-60.5 -60.5t-72.5 -38t-75.5 -13q-61 1 -114 21t-92.5 57.5t-62 90t-22.5 118.5q0 65 24.5 118.5
t65 91t93 58t109.5 20.5q50 0 95.5 -16t81.5 -45.5t60.5 -72t32.5 -95.5q5 -35 -10 -54t-62 -19h-410q2 -44 19.5 -86t47.5 -74.5t69.5 -52.5t85.5 -20zM484 277q14 0 21 5.5t10 13t3 15.5t-1 14q-4 36 -17.5 69.5t-37 59.5t-57.5 41.5t-78 15.5q-50 0 -88.5 -19t-65.5 -51
t-41.5 -74.5t-16.5 -89.5h369z" />
    <glyph glyph-name="omacron" unicode="&#x14d;" horiz-adv-x="654" 
d="M189 673h265v-40h-265v40zM327 -26q-57 0 -109.5 20.5t-93 58t-65 90.5t-24.5 118t24.5 118.5t65 91t93 58t109.5 20.5t110 -20.5t93.5 -58t64.5 -91t24 -118.5t-24 -118t-64.5 -90.5t-93.5 -58t-110 -20.5zM115 261q0 -49 13.5 -94.5t40 -79.5t66.5 -54.5t92 -20.5
q53 0 92.5 20.5t66 54.5t40 79.5t13.5 94.5q0 50 -13.5 95t-40 79.5t-66 55t-92.5 20.5q-52 0 -92 -20.5t-66.5 -55t-40 -79.5t-13.5 -95z" />
    <glyph glyph-name="imacron" unicode="&#x12b;" horiz-adv-x="234" 
d="M-19 675h265v-40h-265v40zM49 13q20 5 26 18.5t7 34.5v309q0 45 -2 79.5t-13 51.5l85 15v-455q1 -21 7 -34.5t26 -18.5l4 -13h-144z" />
    <glyph glyph-name="Nacute" unicode="&#x143;" horiz-adv-x="632" 
d="M368 981l43 -30l-93 -127l-29 12zM513 113v604q-1 21 -7 34.5t-26 18.5l-4 13h114l-4 -13q-20 -5 -26 -18.5t-7 -34.5v-717q-17 1 -32 5.5t-29.5 16t-29.5 31t-32 49.5l-311 573v-610q1 -21 7 -34.5t26 -18.5l4 -13h-114l4 13q20 5 26 18.5t7 34.5v652q-1 21 -7 34.5
t-26 18.5l-4 13h109z" />
    <glyph glyph-name="Omacron" unicode="&#x14c;" 
d="M292 925h265v-40h-265v40zM424 -22q-75 0 -145 31t-124 86t-87 131t-33 167t33 167t87 131t124 85.5t145 30.5q86 0 158 -33t123.5 -89.5t80 -132t28.5 -159.5t-28.5 -159.5t-80 -132.5t-123.5 -90t-158 -33zM120 393q0 -70 20 -137t58.5 -119.5t95 -85t130.5 -32.5
t131 32.5t95.5 85t58.5 119.5t20 137t-20 137t-58.5 119.5t-95.5 85t-131 32.5t-130.5 -32.5t-95 -85t-58.5 -119.5t-20 -137z" />
    <glyph glyph-name="Sacute" unicode="&#x15a;" horiz-adv-x="628" 
d="M361 1021l43 -30l-93 -127l-29 12zM521 181q0 45 -20.5 74t-54.5 48.5t-77 33t-87.5 26.5t-87.5 29t-77 41t-54.5 62t-20.5 93q0 43 14.5 82.5t46.5 69.5t84.5 48t127.5 18q31 0 64.5 -5.5t64.5 -13.5t56.5 -17.5t41.5 -18.5v-90q-17 21 -40.5 40t-53 33t-63 22.5
t-70.5 8.5q-49 0 -87 -11.5t-63 -31.5t-38 -47.5t-13 -59.5q0 -45 20.5 -75t54.5 -50.5t77.5 -34.5t88.5 -27.5t88.5 -30t77.5 -41.5t54.5 -62t20.5 -92q0 -106 -73.5 -167t-216.5 -61q-27 0 -63.5 5.5t-74.5 15.5t-73 23.5t-60 29.5v90q25 -30 59.5 -53t71.5 -38.5
t73.5 -24t66.5 -8.5q56 0 96.5 14.5t67 38t39 53.5t12.5 61z" />
    <glyph glyph-name="Umacron" unicode="&#x16a;" horiz-adv-x="660" 
d="M197 924h265v-40h-265v40zM533 717q-1 21 -7 34.5t-26 18.5l-4 13h114l-4 -13q-20 -5 -26 -18.5t-7 -34.5v-418q0 -64 -11.5 -120.5t-39.5 -98t-74.5 -65.5t-116.5 -23q-73 1 -123.5 23.5t-82 62.5t-46 96.5t-14.5 124.5v338q0 45 -2 79.5t-13 51.5l90 15v-484
q0 -74 12.5 -125t36.5 -82.5t59.5 -45.5t82.5 -14q49 0 86.5 14.5t63 47t39 83t13.5 122.5v418z" />
    <glyph glyph-name="Zdotaccent" unicode="&#x17b;" horiz-adv-x="604" 
d="M255 936q0 20 13 33t33 13q21 0 34 -13t13 -33q0 -21 -13 -34t-34 -13q-20 0 -33 13t-13 34zM25 33l432 707h-160q-51 0 -88.5 -2.5t-64.5 -8t-46.5 -13t-34.5 -16.5v83h504v-33l-440 -707l218 -1q51 0 88.5 2.5t64.5 8t46.5 13t34.5 16.5v-83l-554 1v33z" />
    <glyph glyph-name="aogonek" unicode="&#x105;" horiz-adv-x="556" 
d="M272 509q-69 0 -119 -29t-89 -78v85q14 11 34.5 22t47 20t57.5 15t64 6q47 0 85.5 -15.5t67 -45.5t44 -74.5t15.5 -102.5v-246q1 -33 7 -45.5t26 -7.5l4 -13q-16 -9 -37 -9q-30 -11 -42 -32.5t-12 -43.5q0 -18 9.5 -30t27.5 -12q17 0 24.5 8t10.5 25l27 -29
q-19 -28 -62 -28q-20 0 -34 6t-23 15.5t-13 21.5t-4 23q0 31 19.5 53t42.5 31q-17 9 -28.5 29t-12.5 54q-16 -23 -39 -42t-49 -32.5t-54 -21t-56 -7.5q-91 0 -136 41.5t-45 116.5q0 83 54 129t168 46h157v27q0 87 -38 128.5t-99 41.5zM409 271l-156 1q-72 1 -107.5 -34
t-35.5 -99q0 -57 27.5 -88.5t84.5 -31.5q26 0 53.5 9t53 25t46.5 38t34 49v131z" />
    <glyph glyph-name="ogonek" unicode="&#x2db;" horiz-adv-x="236" 
d="M146 -7q-33 -11 -46 -33t-13 -45q0 -18 9.5 -30t27.5 -12q17 0 24.5 8t10.5 25l27 -29q-19 -28 -62 -28q-20 0 -34 6t-23 15.5t-13 21.5t-4 23q0 20 8.5 36.5t21.5 28t28.5 18t29.5 6.5z" />
    <glyph glyph-name="Uogonek" unicode="&#x172;" horiz-adv-x="660" 
d="M533 717q-1 21 -7 34.5t-26 18.5l-4 13h114l-4 -13q-20 -5 -26 -18.5t-7 -34.5v-418q0 -62 -10.5 -116t-35.5 -95.5t-67 -66.5t-105 -28q-32 -11 -45 -33t-13 -45q0 -18 9.5 -30t27.5 -12q17 0 24.5 8t10.5 25l27 -29q-19 -28 -62 -28q-20 0 -34 6t-23 15.5t-13 21.5
t-4 23q0 26 14.5 46.5t34.5 31.5q-66 4 -112.5 28t-76 63.5t-42.5 94t-13 120.5v338q0 45 -2 79.5t-13 51.5l90 15v-484q0 -74 12.5 -125t36.5 -82.5t59.5 -45.5t82.5 -14q49 0 86.5 14.5t63 47t39 83t13.5 122.5v418z" />
    <glyph glyph-name="iogonek" unicode="&#x12f;" horiz-adv-x="234" 
d="M65 645q0 40 40 40t40 -40t-40 -40t-40 40zM49 13q20 5 26 18.5t7 34.5v309q0 45 -2 79.5t-13 51.5l85 15v-455q1 -21 7 -34.5t26 -18.5l4 -13h-49q-32 -11 -44 -33t-12 -44q0 -18 9.5 -30t27.5 -12q17 0 24.5 8t10.5 25l27 -29q-19 -28 -62 -28q-20 0 -34 6t-23 15.5
t-13 21.5t-4 23q0 26 14 46t34 31h-50z" />
    <glyph glyph-name="eogonek" unicode="&#x119;" horiz-adv-x="629" 
d="M337 14q35 0 70 10.5t65.5 30t54.5 48t37 65.5l10 -4q-13 -43 -38.5 -77.5t-58.5 -59.5t-71 -38.5t-74 -14.5q-26 -12 -36 -32.5t-10 -40.5q0 -18 9.5 -30t27.5 -12q17 0 24.5 8t10.5 25l27 -29q-19 -28 -62 -28q-20 0 -34 6t-23 15.5t-13 21.5t-4 23q0 25 13 44.5
t31 30.5q-55 6 -102 28t-81.5 59t-54.5 87t-20 111q0 65 24.5 118.5t65 91t93 58t109.5 20.5q50 0 95.5 -16t81.5 -45.5t60.5 -72t32.5 -95.5q5 -35 -10 -54t-62 -19h-410q2 -44 19.5 -86t47.5 -74.5t69.5 -52.5t85.5 -20zM484 277q14 0 21 5.5t10 13t3 15.5t-1 14
q-4 36 -17.5 69.5t-37 59.5t-57.5 41.5t-78 15.5q-50 0 -88.5 -19t-65.5 -51t-41.5 -74.5t-16.5 -89.5h369z" />
    <glyph glyph-name="nacute" unicode="&#x144;" horiz-adv-x="651" 
d="M379 783l43 -30l-93 -127l-29 12zM49 13q20 5 26 18.5t7 34.5v311q0 45 -2 79.5t-13 51.5l85 15v-99q17 31 42 54.5t53.5 39t58.5 23.5t57 8q46 0 84.5 -15t66 -44.5t42.5 -74t15 -103.5v-246q1 -21 7 -34.5t26 -18.5l4 -13h-144l4 13q20 5 26 18.5t7 34.5v273
q0 44 -11.5 76t-32 53t-47.5 31t-57 10q-28 0 -57 -11t-56 -32t-50 -52t-38 -72v-276q1 -21 7 -34.5t26 -18.5l4 -13h-144z" />
    <glyph glyph-name="uogonek" unicode="&#x173;" horiz-adv-x="631" 
d="M479 100q-17 -31 -42 -54.5t-53 -39.5t-58 -24t-58 -8q-46 0 -84.5 15t-66 44.5t-42.5 74t-15 103.5v166q0 45 -2 79.5t-13 51.5l85 15v-339q0 -43 11.5 -75t32 -53t47.5 -31.5t57 -10.5q28 0 57 11t56 32t50 52.5t38 71.5v196q0 45 -2 79.5t-13 51.5l85 15v-457
q1 -21 7 -34.5t26 -18.5l4 -13h-46q-32 -11 -44 -33t-12 -44q0 -18 9.5 -30t27.5 -12q17 0 24.5 8t10.5 25l27 -29q-19 -28 -62 -28q-20 0 -34 6t-23 15.5t-13 21.5t-4 23q0 26 14 46t34 31h-16v100z" />
    <glyph glyph-name="sacute" unicode="&#x15b;" horiz-adv-x="535" 
d="M287 783l43 -30l-93 -127l-29 12zM439 107q0 39 -29.5 60.5t-73.5 36t-96 26.5t-96 31.5t-73.5 51t-29.5 85.5q0 30 12 57.5t39 48t71 33t107 12.5q26 0 54 -3.5t54 -9.5t47.5 -12.5t34.5 -12.5v-72q-29 29 -78.5 50.5t-111.5 21.5q-164 0 -164 -94q0 -36 29.5 -57
t74 -36t96 -28t96 -32.5t74 -50.5t29.5 -81q0 -73 -61.5 -115.5t-181.5 -42.5q-23 0 -53.5 4t-62 10.5t-61 16t-50.5 20.5v75q21 -21 50 -37t60 -27.5t61.5 -17.5t55.5 -6q94 0 135.5 26t41.5 69z" />
    <glyph glyph-name="umacron" unicode="&#x16b;" horiz-adv-x="626" 
d="M156 674h265v-40h-265v40zM479 100q-17 -31 -42 -54.5t-53 -39.5t-58 -24t-58 -8q-46 0 -84.5 15t-66 44.5t-42.5 74t-15 103.5v166q0 45 -2 79.5t-13 51.5l85 15v-339q0 -43 11.5 -75t32 -53t47.5 -31.5t57 -10.5q28 0 57 11t56 32t50 52.5t38 71.5v196q0 45 -2 79.5
t-13 51.5l85 15v-457q1 -21 7 -34.5t26 -18.5l4 -13h-107v100z" />
    <glyph glyph-name="zdotaccent" unicode="&#x17c;" horiz-adv-x="481" 
d="M191 644q0 20 13 33t33 13q21 0 34 -13t13 -33q0 -21 -13 -34t-34 -13q-20 0 -33 13t-13 34zM30 22l307 461h-45q-51 0 -88.5 -2.5t-64.5 -7.5t-46.5 -12.5t-34.5 -16.5v80l341 -1h35v-22l-308 -461h89q51 0 88.5 2.5t64.5 7.5t46.5 12.5t34.5 16.5v-80l-367 1h-52v22z
" />
    <glyph glyph-name="Aogonek" unicode="&#x104;" horiz-adv-x="775" 
d="M696 65q11 -26 24.5 -38t32.5 -14l4 -13h-54q-30 -11 -41.5 -32.5t-11.5 -43.5q0 -18 9.5 -30t27.5 -12q17 0 24.5 8t10.5 25l27 -29q-19 -28 -62 -28q-20 0 -34 6t-23 15.5t-13 21.5t-4 23q0 26 13.5 45.5t32.5 30.5h-74l4 13q20 4 26 17.5t-2 33.5l-75 185h-364
l-17 -39q-29 -66 -34 -120.5t0 -89.5h-105l305 690q18 41 37 65.5t48 32.5zM522 289l-156 396l-174 -396h330z" />
    <glyph glyph-name="Iogonek" unicode="&#x12e;" horiz-adv-x="249" 
d="M54 13q20 5 26 18.5t7 34.5v571q0 45 -2 79.5t-13 51.5l90 15v-717q1 -21 7 -34.5t26 -18.5l4 -13h-43q-32 -11 -44 -33t-12 -44q0 -18 9.5 -30t27.5 -12q17 0 24.5 8t10.5 25l27 -29q-19 -28 -62 -28q-20 0 -34 6t-23 15.5t-13 21.5t-4 23q0 26 14 46t34 31h-61z" />
    <glyph glyph-name="Amacron" unicode="&#x100;" horiz-adv-x="775" 
d="M255 926h265v-40h-265v40zM696 65q11 -26 24.5 -38t32.5 -14l4 -13h-172l4 13q20 4 26 17.5t-2 33.5l-75 185h-364l-17 -39q-29 -66 -34 -120.5t0 -89.5h-105l305 690q18 41 37 65.5t48 32.5zM522 289l-156 396l-174 -396h330z" />
    <glyph glyph-name="Cacute" unicode="&#x106;" horiz-adv-x="779" 
d="M434 1043l43 -30l-93 -127l-29 12zM424 -22q-79 0 -150 31t-124 86t-84 131t-31 167t29 167t81 131t124 85.5t157 30.5q92 0 164 -28.5t126 -79.5l-1 -118q-14 29 -36.5 62t-57 60.5t-82.5 45.5t-113 18q-74 0 -131 -32.5t-96 -85t-59 -119.5t-20 -137t22.5 -137
t64 -119.5t99.5 -85t128 -32.5q59 0 108.5 17.5t88.5 43.5t66 56.5t40 56.5l17 -9q-18 -37 -47.5 -73.5t-70.5 -66t-93.5 -48t-118.5 -18.5z" />
    <glyph glyph-name="Eogonek" unicode="&#x118;" horiz-adv-x="553" 
d="M54 13q20 5 26 18.5t7 34.5v651q-1 21 -7 34.5t-26 18.5l-4 13h478v-82q-15 9 -34.5 16.5t-46.5 13t-64.5 8t-88.5 2.5h-132v-335l317 15v-59l-317 9v-329h132q51 0 88.5 2.5t64.5 8t46.5 13t34.5 16.5v-83h-189q-30 -11 -42 -32.5t-12 -43.5q0 -18 9.5 -30t27.5 -12
q17 0 24.5 8t10.5 25l27 -29q-19 -28 -62 -28q-20 0 -34 6t-23 15.5t-13 21.5t-4 23q0 26 14 45.5t33 30.5l-245 1z" />
    <glyph glyph-name="Emacron" unicode="&#x112;" horiz-adv-x="553" 
d="M144 925h265v-40h-265v40zM54 13q20 5 26 18.5t7 34.5v651q-1 21 -7 34.5t-26 18.5l-4 13h478v-82q-15 9 -34.5 16.5t-46.5 13t-64.5 8t-88.5 2.5h-132v-335l317 15v-59l-317 9v-329h132q51 0 88.5 2.5t64.5 8t46.5 13t34.5 16.5v-83l-478 1z" />
    <glyph glyph-name="Ccaron" unicode="&#x10c;" horiz-adv-x="779" 
d="M424 869h-16l-85 103l22 13l72 -67l71 67l22 -13zM424 -22q-79 0 -150 31t-124 86t-84 131t-31 167t29 167t81 131t124 85.5t157 30.5q92 0 164 -28.5t126 -79.5l-1 -118q-14 29 -36.5 62t-57 60.5t-82.5 45.5t-113 18q-74 0 -131 -32.5t-96 -85t-59 -119.5t-20 -137
t22.5 -137t64 -119.5t99.5 -85t128 -32.5q59 0 108.5 17.5t88.5 43.5t66 56.5t40 56.5l17 -9q-18 -37 -47.5 -73.5t-70.5 -66t-93.5 -48t-118.5 -18.5z" />
    <glyph glyph-name="Zacute" unicode="&#x179;" horiz-adv-x="604" 
d="M369 1043l43 -30l-93 -127l-29 12zM25 33l432 707h-160q-51 0 -88.5 -2.5t-64.5 -8t-46.5 -13t-34.5 -16.5v83h504v-33l-440 -707l218 -1q51 0 88.5 2.5t64.5 8t46.5 13t34.5 16.5v-83l-554 1v33z" />
    <glyph glyph-name="Edotaccent" unicode="&#x116;" horiz-adv-x="553" 
d="M230 933q0 20 13 33t33 13q21 0 34 -13t13 -33q0 -21 -13 -34t-34 -13q-20 0 -33 13t-13 34zM54 13q20 5 26 18.5t7 34.5v651q-1 21 -7 34.5t-26 18.5l-4 13h478v-82q-15 9 -34.5 16.5t-46.5 13t-64.5 8t-88.5 2.5h-132v-335l317 15v-59l-317 9v-329h132q51 0 88.5 2.5
t64.5 8t46.5 13t34.5 16.5v-83l-478 1z" />
    <glyph glyph-name="uni0157" unicode="&#x157;" horiz-adv-x="456" 
d="M46 13q20 5 26 18.5t7 34.5v229q0 130 56.5 192t152.5 62q35 0 70 -6t68 -20v-68q-29 24 -64.5 40t-73.5 16q-72 -1 -105.5 -47t-33.5 -134v-264q1 -21 7 -34.5t26 -18.5l4 -13h-144zM72 -73q0 17 11.5 29t29.5 12q17 0 29.5 -12t12.5 -29q0 -15 -7.5 -30.5t-21 -27.5
t-33 -19.5t-44.5 -7.5q18 10 26.5 18.5t11.5 15.5t1.5 12.5t-4.5 8.5q-12 12 -12 30z" />
    <glyph glyph-name="uni0123" unicode="&#x123;" horiz-adv-x="633" 
d="M352 656q0 -17 -11.5 -29t-29.5 -12q-17 0 -29.5 12t-12.5 29q0 15 7.5 30.5t21 27.5t33 19.5t44.5 7.5q-18 -10 -26.5 -18.5t-11.5 -15.5t-1.5 -12.5t4.5 -8.5q12 -12 12 -30zM588 328q0 -57 -22.5 -98.5t-60 -69t-85 -40.5t-97.5 -13q-38 0 -77 -2.5t-70.5 -10.5
t-51 -23t-19.5 -40q0 -23 21.5 -33.5t52.5 -10.5q11 0 23 1.5t24 3.5q60 13 106 24.5t73 18.5q39 10 72 10q32 0 55 -9t37.5 -23.5t21 -33.5t6.5 -38q0 -49 -29.5 -85t-76.5 -59.5t-106 -35t-116 -11.5q-48 0 -87.5 8.5t-68 24.5t-44.5 39.5t-16 54.5q0 20 11 41t29 32
q-20 13 -30.5 32t-10.5 46q0 42 35.5 69t91.5 32q-31 11 -57 29t-45.5 42.5t-30.5 56.5t-11 71q0 59 24 101t63 68.5t89 39t101 12.5q41 0 80 -7t74 -24q20 32 32 58.5t19 55.5l59 -18l-78 -114q41 -27 65.5 -69.5t24.5 -102.5zM111 328q0 -98 53.5 -140.5t146.5 -42.5
q94 0 147.5 42t53.5 141q0 98 -53.5 140.5t-146.5 42.5q-94 0 -147.5 -42t-53.5 -141zM141 -68q-16 -8 -26.5 -20t-10.5 -30t11 -34.5t31.5 -30t50.5 -21.5t69 -8q71 0 125 14.5t89 37t50 50.5t9 55q-5 18 -19 28.5t-46 10.5q-23 0 -56 -6q-34 -7 -69 -16.5t-70 -17.5
t-70 -12t-68 0z" />
    <glyph glyph-name="uni0137" unicode="&#x137;" horiz-adv-x="533" 
d="M233 279l-81 -79v-134q1 -21 7 -34.5t26 -18.5l4 -13h-144l4 13q20 5 26 18.5t7 34.5v571q0 45 -2 79.5t-13 51.5l85 15v-538l166 164q32 32 48 61.5t23 52.5h93l-198 -194l187 -285q12 -17 22.5 -23t20.5 -8l4 -13h-105zM232 -68q0 17 11.5 29t29.5 12q17 0 29.5 -12
t12.5 -29q0 -15 -7.5 -30.5t-21 -27.5t-33 -19.5t-44.5 -7.5q18 10 26.5 18.5t11.5 15.5t1.5 12.5t-4.5 8.5q-12 12 -12 30z" />
    <glyph glyph-name="uni013C" unicode="&#x13c;" horiz-adv-x="234" 
d="M49 13q20 5 26 18.5t7 34.5v571q0 45 -2 79.5t-13 51.5l85 15v-717q1 -21 7 -34.5t26 -18.5l4 -13h-144zM79 -68q0 17 11.5 29t29.5 12q17 0 29.5 -12t12.5 -29q0 -15 -7.5 -30.5t-21 -27.5t-33 -19.5t-44.5 -7.5q18 10 26.5 18.5t11.5 15.5t1.5 12.5t-4.5 8.5
q-12 12 -12 30z" />
    <glyph glyph-name="uni0146" unicode="&#x146;" horiz-adv-x="651" 
d="M49 13q20 5 26 18.5t7 34.5v311q0 45 -2 79.5t-13 51.5l85 15v-99q17 31 42 54.5t53.5 39t58.5 23.5t57 8q46 0 84.5 -15t66 -44.5t42.5 -74t15 -103.5v-246q1 -21 7 -34.5t26 -18.5l4 -13h-144l4 13q20 5 26 18.5t7 34.5v273q0 44 -11.5 76t-32 53t-47.5 31t-57 10
q-28 0 -57 -11t-56 -32t-50 -52t-38 -72v-276q1 -21 7 -34.5t26 -18.5l4 -13h-144zM272 -68q0 17 11.5 29t29.5 12q17 0 29.5 -12t12.5 -29q0 -15 -7.5 -30.5t-21 -27.5t-33 -19.5t-44.5 -7.5q18 10 26.5 18.5t11.5 15.5t1.5 12.5t-4.5 8.5q-12 12 -12 30z" />
    <glyph glyph-name="uni0122" unicode="&#x122;" horiz-adv-x="822" 
d="M383 409h397v-409l-63 7q5 26 9 49t7 45.5t4.5 47t2.5 53.5q-22 -49 -55 -90t-74.5 -71t-92 -46.5t-107.5 -16.5q-82 0 -151.5 31.5t-119 87.5t-77.5 132t-28 164q0 91 32 167t87.5 131t130 85.5t159.5 30.5q92 0 170.5 -28.5t132.5 -79.5l-1 -118q-14 29 -38.5 62
t-61.5 60.5t-87 45.5t-115 18q-74 0 -134 -32.5t-102 -85t-65 -119.5t-23 -137q0 -69 21 -134.5t60 -117t94.5 -82.5t124.5 -31t126 28t98.5 75t66.5 108t29 127h-123q-51 0 -88.5 -2.5t-64.5 -8t-46.5 -13t-34.5 -16.5v83zM374 -118q0 17 11.5 29t29.5 12q17 0 29.5 -12
t12.5 -29q0 -15 -7.5 -30.5t-21 -27.5t-33 -19.5t-44.5 -7.5q18 10 26.5 18.5t11.5 15.5t1.5 12.5t-4.5 8.5q-12 12 -12 30z" />
    <glyph glyph-name="uni0136" unicode="&#x136;" horiz-adv-x="661" 
d="M241 348l-79 -104v-178q1 -21 7 -34.5t26 -18.5l4 -13h-149l4 13q20 5 26 18.5t7 34.5v571q0 45 -2 79.5t-13 51.5l90 15v-470l207 274q44 57 65 108t27 88h111l-283 -372l310 -367q14 -16 23.5 -22.5t19.5 -8.5l4 -13h-111zM276 -118q0 17 11.5 29t29.5 12
q17 0 29.5 -12t12.5 -29q0 -15 -7.5 -30.5t-21 -27.5t-33 -19.5t-44.5 -7.5q18 10 26.5 18.5t11.5 15.5t1.5 12.5t-4.5 8.5q-12 12 -12 30z" />
    <glyph glyph-name="Imacron" unicode="&#x12a;" horiz-adv-x="249" 
d="M-8 921h265v-40h-265v40zM54 13q20 5 26 18.5t7 34.5v571q0 45 -2 79.5t-13 51.5l90 15v-717q1 -21 7 -34.5t26 -18.5l4 -13h-149z" />
    <glyph glyph-name="uni013B" unicode="&#x13b;" horiz-adv-x="506" 
d="M50 0l4 13q20 5 26 18.5t7 34.5v571q0 45 -2 79.5t-13 51.5l90 15v-741h95q51 0 88.5 2.5t64.5 8t46.5 13t34.5 16.5v-82h-441zM239 -118q0 17 11.5 29t29.5 12q17 0 29.5 -12t12.5 -29q0 -15 -7.5 -30.5t-21 -27.5t-33 -19.5t-44.5 -7.5q18 10 26.5 18.5t11.5 15.5
t1.5 12.5t-4.5 8.5q-12 12 -12 30z" />
    <glyph glyph-name="uni0145" unicode="&#x145;" horiz-adv-x="632" 
d="M513 113v604q-1 21 -7 34.5t-26 18.5l-4 13h114l-4 -13q-20 -5 -26 -18.5t-7 -34.5v-717q-17 1 -32 5.5t-29.5 16t-29.5 31t-32 49.5l-311 573v-610q1 -21 7 -34.5t26 -18.5l4 -13h-114l4 13q20 5 26 18.5t7 34.5v652q-1 21 -7 34.5t-26 18.5l-4 13h109zM296 -118
q0 17 11.5 29t29.5 12q17 0 29.5 -12t12.5 -29q0 -15 -7.5 -30.5t-21 -27.5t-33 -19.5t-44.5 -7.5q18 10 26.5 18.5t11.5 15.5t1.5 12.5t-4.5 8.5q-12 12 -12 30z" />
    <glyph glyph-name="uni0156" unicode="&#x156;" horiz-adv-x="664" 
d="M621 564q0 -50 -17.5 -92.5t-51.5 -73.5t-82 -48.5t-110 -17.5q-14 0 -26.5 1t-24.5 3l290 -292q15 -16 24.5 -22t21.5 -9l4 -13h-115l-372 374v-308q1 -21 7 -34.5t26 -18.5l4 -13h-149l4 13q20 5 26 18.5t7 34.5v651q-1 21 -7 34.5t-26 18.5l-4 13h110l2 2v-82
q29 39 77 66.5t121 27.5q62 0 110 -17.5t82 -49t51.5 -74t17.5 -92.5zM162 564q0 -44 14.5 -79.5t41 -60.5t63 -38.5t79.5 -13.5q48 0 81.5 15t54.5 41.5t30.5 61.5t9.5 74t-9.5 74t-30.5 61.5t-54.5 42t-81.5 15.5q-45 0 -81.5 -13.5t-62.5 -38.5t-40 -61t-14 -80z
M292 -118q0 17 11.5 29t29.5 12q17 0 29.5 -12t12.5 -29q0 -15 -7.5 -30.5t-21 -27.5t-33 -19.5t-44.5 -7.5q18 10 26.5 18.5t11.5 15.5t1.5 12.5t-4.5 8.5q-12 12 -12 30z" />
    </font>
</defs>
</svg>
