<?xml version="1.0" standalone="no"?>
<!DOCTYPE svg PUBLIC "-//W3C//DTD SVG 20010904//EN"
 "http://www.w3.org/TR/2001/REC-SVG-20010904/DTD/svg10.dtd">
<svg version="1.0" xmlns="http://www.w3.org/2000/svg"
 width="612.000000pt" height="612.000000pt" viewBox="0 0 612.000000 612.000000"
 preserveAspectRatio="xMidYMid meet">

<g transform="translate(0.000000,612.000000) scale(0.100000,-0.100000)"
fill="#000000" stroke="none">
<path d="M2805 5854 c-799 -81 -1508 -477 -1987 -1112 -300 -397 -485 -865
-544 -1373 -20 -177 -15 -556 11 -714 122 -760 501 -1394 1102 -1842 414 -308
885 -490 1407 -543 152 -16 533 -7 671 15 468 75 867 237 1235 504 612 443
1004 1080 1130 1836 31 186 39 546 16 744 -40 346 -122 622 -276 936 -359 730
-1037 1277 -1829 1475 -221 55 -363 72 -636 75 -143 2 -278 1 -300 -1z m145
-779 l0 -555 -59 0 c-87 0 -418 28 -535 45 -142 21 -276 46 -276 52 0 15 82
198 140 313 186 366 399 588 648 676 37 13 70 24 75 24 4 0 7 -250 7 -555z
m322 525 c235 -88 457 -327 636 -685 58 -115 135 -295 129 -301 -6 -6 -236
-44 -352 -58 -132 -17 -385 -36 -464 -36 l-51 0 0 548 c0 302 3 552 7 555 7 8
23 4 95 -23z m-962 -127 c-137 -152 -304 -435 -404 -689 l-48 -121 -82 22
c-178 50 -402 132 -500 182 l-37 19 71 67 c193 182 455 355 700 463 105 46
319 123 343 123 14 1 2 -18 -43 -66z m1630 10 c310 -111 627 -303 858 -519
l84 -77 -28 -15 c-93 -49 -351 -144 -503 -186 l-89 -24 -48 121 c-104 266
-297 590 -423 711 -63 60 -44 59 149 -11z m-2772 -812 c112 -56 316 -133 480
-182 117 -35 142 -45 137 -58 -4 -9 -24 -88 -45 -176 -65 -266 -111 -573 -125
-835 -3 -58 -8 -138 -11 -177 l-6 -73 -559 0 -559 0 6 58 c3 31 10 98 15 147
32 295 144 645 294 921 80 147 265 412 288 414 4 0 42 -17 85 -39z m3928 -28
c209 -282 327 -507 424 -809 60 -189 87 -334 114 -606 l6 -58 -559 0 -559 0
-6 63 c-3 34 -8 114 -11 178 -15 298 -76 682 -154 964 -11 39 -18 71 -17 72 1
2 64 21 138 42 155 46 381 132 483 184 39 20 75 36 81 37 6 0 33 -30 60 -67z
m-2741 -302 c163 -21 383 -40 510 -44 l80 -2 3 -562 2 -563 -561 0 -562 0 7
153 c14 316 67 672 142 957 14 52 27 100 29 106 2 7 33 5 102 -7 54 -10 166
-27 248 -38z m1783 -36 c81 -311 134 -661 148 -982 l7 -153 -562 0 -561 0 2
562 c3 553 3 561 23 563 11 2 88 6 170 9 194 8 481 42 675 80 36 7 68 10 71 7
4 -3 16 -42 27 -86z m-2534 -1427 c3 -40 8 -120 11 -178 14 -257 61 -574 125
-835 21 -88 41 -168 45 -177 5 -13 -2 -19 -37 -28 -205 -55 -381 -119 -557
-201 -57 -27 -107 -49 -110 -49 -10 0 -129 161 -194 260 -226 348 -364 766
-401 1213 l-5 67 559 0 558 0 6 -72z m1344 -490 l-3 -563 -65 -2 c-247 -9
-575 -44 -798 -86 -40 -8 -74 -11 -76 -8 -6 12 -55 207 -75 301 -50 232 -86
519 -97 773 l-7 147 562 0 561 0 -2 -562z m1338 405 c-13 -300 -60 -620 -132
-913 -20 -80 -38 -148 -40 -151 -2 -3 -34 0 -71 7 -211 41 -566 80 -793 87
l-75 2 -3 563 -2 562 561 0 562 0 -7 -157z m1346 92 c-2 -33 -10 -112 -18
-175 -62 -472 -259 -922 -570 -1299 -2 -2 -52 19 -111 46 -148 70 -292 124
-461 174 -117 35 -142 45 -137 58 4 9 24 86 44 171 63 253 112 584 126 840 3
58 8 138 11 178 l6 72 556 -2 557 -3 -3 -60z m-2682 -1833 c0 -302 -3 -551 -6
-554 -7 -8 -111 24 -164 52 -257 131 -483 426 -666 866 -19 48 -33 88 -31 90
7 7 208 40 352 58 141 18 327 32 443 35 l72 1 0 -548z m470 538 c206 -15 602
-69 618 -84 5 -6 -67 -174 -125 -291 -144 -290 -308 -496 -491 -618 -56 -36
-171 -88 -224 -101 l-28 -6 0 555 0 555 53 0 c28 0 117 -5 197 -10z m-1525
-227 c98 -256 280 -569 416 -717 62 -68 63 -69 33 -63 -60 12 -290 99 -399
152 -220 106 -469 275 -629 426 l-80 75 105 46 c112 49 303 116 433 153 45 13
82 24 82 24 1 1 19 -43 39 -96z m2643 11 c73 -24 181 -65 239 -91 l107 -47
-83 -78 c-167 -159 -438 -338 -666 -441 -135 -61 -362 -143 -371 -134 -4 3 19
34 51 69 130 143 288 414 395 674 l53 132 71 -20 c39 -11 131 -40 204 -64z"/>
</g>
</svg>
